<svg xmlns="http://www.w3.org/2000/svg" viewBox="0 0 821 449" width="821" height="449">
  <path d="M 332.41,405.00 C 332.65,403.62 333.13,400.25 333.47,397.50 C 333.81,394.75 335.51,383.40 337.24,372.28 C 338.97,361.15 340.10,351.77 339.75,351.42 C 339.40,351.07 336.60,351.57 333.53,352.53 C 330.47,353.50 327.69,354.02 327.36,353.69 C 327.03,353.36 325.13,354.20 323.15,355.55 C 321.16,356.90 319.09,358.00 318.54,358.00 C 317.99,358.00 319.22,356.86 321.27,355.46 C 323.35,354.05 325.00,352.10 325.00,351.05 C 325.00,348.31 334.28,341.30 338.95,340.51 C 343.45,339.75 344.32,338.31 342.77,334.19 C 341.75,331.50 343.07,319.81 345.71,308.24 C 346.44,305.04 344.25,306.02 334.63,313.21 C 322.52,322.26 317.77,324.40 309.66,324.45 C 303.23,324.50 302.67,324.32 300.42,321.50 C 297.04,317.28 295.02,310.75 294.32,301.83 C 293.37,289.74 291.22,290.40 277.82,306.87 C 275.50,309.73 272.56,312.32 271.29,312.64 C 270.02,312.96 268.07,314.50 266.96,316.05 C 265.85,317.61 264.03,319.17 262.92,319.53 C 261.80,319.88 259.03,322.18 256.77,324.64 C 253.62,328.05 252.05,329.03 250.08,328.80 C 247.60,328.51 247.50,328.26 247.56,322.00 C 247.60,318.43 248.00,311.52 248.47,306.65 C 249.27,298.25 249.21,297.81 247.41,298.15 C 244.63,298.67 237.45,310.13 225.97,332.36 C 216.27,351.14 213.92,354.31 211.01,352.51 C 209.38,351.50 209.85,337.56 212.00,323.00 C 213.09,315.57 213.99,309.16 214.00,308.75 C 214.01,306.59 210.10,308.61 204.82,313.51 C 192.41,325.00 181.38,331.12 171.61,331.93 C 164.73,332.50 164.73,332.50 161.51,339.82 C 157.89,348.06 155.88,350.55 153.58,349.67 C 149.80,348.22 152.96,322.57 166.58,244.00 C 167.96,236.03 169.72,227.93 170.49,226.00 C 172.10,221.99 172.54,223.46 170.97,227.59 C 169.56,231.29 158.65,296.07 155.53,319.27 C 152.62,340.87 152.30,349.00 154.38,349.00 C 156.26,349.00 157.13,347.68 160.92,339.00 C 162.72,334.88 164.83,331.14 165.60,330.70 C 166.37,330.26 167.00,329.08 167.00,328.07 C 167.00,327.06 169.12,322.69 171.70,318.37 C 181.37,302.20 190.26,288.21 192.65,285.40 C 195.88,281.61 194.86,283.41 186.93,295.50 C 183.32,301.00 178.87,308.20 177.05,311.50 C 175.23,314.80 172.66,319.11 171.35,321.09 C 170.03,323.06 168.55,326.10 168.05,327.84 C 167.14,331.00 167.14,331.00 171.82,330.99 C 179.78,330.97 189.59,325.40 204.65,312.34 C 208.04,309.40 211.50,307.00 212.34,307.00 C 214.27,307.00 214.21,307.23 218.53,284.00 C 220.53,273.27 223.66,257.07 225.49,248.00 C 227.32,238.93 229.12,229.61 229.49,227.31 C 229.86,225.00 230.87,222.53 231.74,221.81 C 233.13,220.66 233.20,220.74 232.28,222.50 C 231.26,224.44 223.74,260.88 218.46,289.50 C 211.95,324.72 209.28,352.00 212.35,352.00 C 214.56,352.00 216.27,349.32 225.80,330.84 C 235.96,311.15 242.38,300.12 244.78,298.25 C 245.66,297.56 247.26,297.00 248.32,297.00 C 250.44,297.00 250.43,295.35 248.40,319.75 C 247.72,327.89 247.74,328.00 250.02,328.00 C 251.47,328.00 253.85,326.33 256.45,323.50 C 258.72,321.02 261.05,319.00 261.62,319.00 C 263.50,319.00 266.77,314.56 267.52,311.00 C 268.93,304.23 276.50,291.03 280.45,288.44 C 283.30,286.57 286.63,287.27 287.47,289.91 C 287.79,290.91 289.50,292.14 291.27,292.65 C 294.47,293.56 294.51,293.66 295.27,301.54 C 296.31,312.25 298.45,318.36 302.29,321.59 C 305.11,323.96 306.03,324.18 311.15,323.72 C 317.85,323.11 323.38,320.33 334.59,311.93 C 338.94,308.67 343.09,306.00 343.80,306.00 C 345.25,306.00 348.00,300.16 348.00,297.09 C 348.00,296.01 348.40,294.87 348.89,294.57 C 349.76,294.03 348.47,301.44 347.38,303.19 C 347.09,303.67 346.70,305.65 346.52,307.58 C 346.34,309.52 345.41,315.53 344.46,320.95 C 343.51,326.36 343.02,331.95 343.38,333.37 C 343.95,335.67 344.28,335.83 346.40,334.86 C 350.08,333.19 351.64,329.57 350.01,326.52 C 348.85,324.36 349.09,322.48 351.92,311.50 C 357.58,289.55 363.95,275.83 370.29,271.97 C 380.71,265.61 384.07,275.01 377.94,293.35 C 376.26,298.38 373.56,304.86 371.94,307.73 C 366.42,317.55 368.20,317.89 383.37,309.93 C 392.60,305.09 404.34,300.08 402.50,301.78 C 401.95,302.28 399.48,303.47 397.00,304.42 C 394.52,305.36 388.45,308.29 383.50,310.91 C 378.55,313.53 373.15,316.01 371.50,316.42 C 369.85,316.83 365.52,320.04 361.85,323.58 C 358.19,327.11 354.67,330.00 354.04,330.00 C 352.22,330.00 344.10,338.72 343.58,341.23 C 343.32,342.48 342.90,344.85 342.64,346.50 C 342.38,348.15 340.77,357.60 339.07,367.49 C 337.37,377.39 335.49,389.50 334.90,394.41 C 334.30,399.32 333.39,404.27 332.88,405.42 C 332.05,407.30 332.00,407.25 332.41,405.00" fill="none" stroke="black" stroke-width="1" stroke-linecap="round" stroke-linejoin="round" />
  <path d="M 333.90,351.44 C 336.33,350.59 338.88,350.12 339.57,350.39 C 341.15,350.99 342.00,348.87 342.00,344.34 C 342.00,340.91 341.93,340.86 338.75,341.55 C 333.66,342.65 325.17,349.85 326.47,351.96 C 327.33,353.35 328.68,353.26 333.90,351.44" fill="none" stroke="black" stroke-width="1" stroke-linecap="round" stroke-linejoin="round" />
  <path d="M 361.36,322.74 C 365.01,319.30 368.00,315.69 368.00,314.73 C 368.00,313.76 369.32,310.61 370.94,307.73 C 377.81,295.52 382.21,275.61 378.80,272.20 C 375.65,269.05 369.13,272.67 364.36,280.22 C 360.83,285.82 356.59,297.34 353.01,311.12 C 350.25,321.71 350.04,323.47 351.19,326.06 C 351.90,327.68 352.99,329.00 353.60,329.00 C 354.22,329.00 357.71,326.18 361.36,322.74" fill="none" stroke="black" stroke-width="1" stroke-linecap="round" stroke-linejoin="round" />
  <path d="M 275.83,307.56 C 277.11,305.69 280.43,301.78 283.22,298.87 C 288.07,293.81 288.22,293.48 286.86,291.05 C 284.83,287.44 282.44,287.39 279.23,290.91 C 276.03,294.41 269.55,306.19 268.62,310.20 C 268.01,312.78 268.11,312.86 270.74,311.93 C 272.26,311.40 274.55,309.44 275.83,307.56" fill="none" stroke="black" stroke-width="1" stroke-linecap="round" stroke-linejoin="round" />
  <path d="M 537.10,352.08 C 535.01,350.76 536.39,333.51 540.53,309.26 C 541.08,306.09 541.03,306.04 538.38,307.04 C 536.89,307.61 532.73,310.82 529.14,314.19 C 520.98,321.82 507.78,331.70 502.50,334.12 C 500.30,335.13 496.66,335.97 494.41,335.98 C 490.99,336.00 490.13,335.58 489.16,333.45 C 487.48,329.76 487.72,325.62 490.12,317.06 C 494.75,300.55 503.26,288.00 509.83,288.00 C 512.74,288.00 513.00,288.26 512.98,291.25 C 512.98,293.04 512.56,295.15 512.05,295.95 C 511.46,296.89 511.33,295.93 511.70,293.20 C 512.24,289.19 512.15,289.00 509.63,289.00 C 503.79,289.00 495.42,301.69 491.12,317.06 C 487.45,330.17 488.47,335.00 494.89,335.00 C 501.38,335.00 511.66,328.40 528.56,313.37 C 532.44,309.92 536.82,306.64 538.28,306.08 C 541.32,304.93 540.92,306.26 545.39,282.50 C 556.17,225.25 556.55,223.42 558.16,221.57 C 558.60,221.05 558.47,222.18 557.87,224.07 C 557.27,225.96 556.57,228.85 556.31,230.50 C 555.83,233.53 544.91,290.22 543.02,299.50 C 542.46,302.25 541.76,306.51 541.47,308.97 C 541.18,311.42 540.27,317.89 539.45,323.34 C 537.28,337.80 536.51,350.58 537.77,351.36 C 540.25,352.89 542.49,349.86 550.49,334.14 C 566.27,303.18 572.23,294.80 575.87,298.45 C 577.04,299.62 576.99,301.71 575.50,312.36 C 573.64,325.66 573.83,328.00 576.78,328.00 C 579.19,328.00 590.81,315.75 593.86,310.00 C 595.17,307.52 596.86,304.79 597.62,303.92 C 598.38,303.05 599.00,301.37 599.00,300.17 C 599.00,295.99 604.36,292.67 607.69,294.79 C 609.41,295.88 611.00,300.60 611.00,304.63 C 611.00,308.14 611.00,308.14 619.25,307.44 C 623.79,307.06 630.83,305.90 634.91,304.87 C 638.99,303.84 643.38,303.00 644.68,303.00 C 647.31,303.00 647.37,301.93 643.86,315.91 C 639.28,334.13 643.05,339.12 653.14,328.21 C 656.09,325.03 662.86,316.81 668.18,309.96 C 681.73,292.52 686.21,288.61 689.98,290.97 C 691.20,291.74 691.41,294.43 691.18,306.05 C 690.86,322.58 691.66,325.00 697.47,325.00 C 701.90,325.00 711.15,318.01 719.75,308.17 C 723.19,304.24 726.00,301.47 726.00,302.03 C 726.00,303.71 710.07,319.76 705.20,322.99 C 702.15,325.01 699.41,326.00 696.85,326.00 C 690.84,326.00 689.81,322.99 690.19,306.48 C 690.52,292.14 689.92,289.90 686.26,291.86 C 683.34,293.42 674.33,303.45 664.88,315.66 C 653.34,330.57 648.94,335.00 645.71,335.00 C 640.42,335.00 639.70,328.19 643.41,313.50 C 645.21,306.37 645.41,304.43 644.36,304.18 C 643.63,304.00 639.32,304.76 634.77,305.86 C 630.22,306.96 622.90,308.16 618.50,308.53 C 610.31,309.23 609.04,309.91 609.02,313.64 C 609.01,314.82 607.69,317.19 606.10,318.89 C 603.59,321.58 602.51,322.00 598.12,322.00 C 593.60,322.00 592.97,321.74 592.44,319.61 C 591.59,316.25 588.78,317.26 585.38,322.17 C 582.07,326.94 579.34,329.00 576.30,329.00 C 572.94,329.00 572.57,325.68 574.48,312.47 C 575.41,306.09 575.93,300.25 575.64,299.51 C 574.94,297.68 571.86,298.65 569.90,301.32 C 566.74,305.61 556.72,323.59 549.93,337.14 C 546.14,344.71 542.15,351.38 541.08,351.96 C 538.76,353.20 538.86,353.20 537.10,352.08" fill="none" stroke="black" stroke-width="1" stroke-linecap="round" stroke-linejoin="round" />
  <path d="M 605.25,318.25 C 606.96,316.45 607.98,314.14 608.18,311.56 C 608.48,307.84 608.32,307.59 605.26,306.94 C 603.47,306.56 601.43,305.77 600.72,305.18 C 598.88,303.65 597.62,304.80 594.64,310.70 C 592.54,314.86 592.21,316.42 592.98,318.45 C 593.81,320.64 594.56,321.00 598.29,321.00 C 601.72,321.00 603.17,320.42 605.25,318.25" fill="none" stroke="black" stroke-width="1" stroke-linecap="round" stroke-linejoin="round" />
  <path d="M 609.63,302.35 C 608.65,295.18 605.78,293.08 601.83,296.65 C 599.79,298.50 599.37,303.49 601.16,304.60 C 602.22,305.25 607.20,306.65 609.39,306.90 C 609.87,306.95 609.99,304.91 609.63,302.35" fill="none" stroke="black" stroke-width="1" stroke-linecap="round" stroke-linejoin="round" />
  <path d="M 597.17,286.05 C 602.32,285.05 608.33,279.55 609.17,275.08 C 609.83,271.59 609.84,271.61 609.64,275.76 C 609.38,281.35 612.19,284.98 617.56,286.01 C 621.50,286.77 621.50,286.77 618.17,286.89 C 615.69,286.97 614.06,286.21 611.73,283.88 C 609.22,281.37 608.30,280.98 607.05,281.89 C 601.81,285.73 599.16,286.98 596.50,286.88 C 593.68,286.78 593.71,286.73 597.17,286.05" fill="none" stroke="black" stroke-width="1" stroke-linecap="round" stroke-linejoin="round" />
  <path d="M 282.82,278.25 C 280.19,275.16 277.34,265.52 278.80,264.63 C 279.24,264.35 279.71,265.76 279.84,267.76 C 279.98,269.75 281.05,273.10 282.23,275.19 C 284.12,278.56 284.81,279.00 288.18,279.00 C 291.48,279.00 292.38,278.46 294.93,274.94 C 296.54,272.71 298.16,269.57 298.51,267.95 C 298.86,266.34 299.56,264.77 300.05,264.47 C 301.31,263.69 298.39,271.64 295.97,275.54 C 294.87,277.33 293.26,279.07 292.40,279.40 C 289.31,280.59 284.30,279.99 282.82,278.25" fill="none" stroke="black" stroke-width="1" stroke-linecap="round" stroke-linejoin="round" />
  <path d="M 622.00,273.24 C 622.00,270.51 632.63,259.00 635.15,259.00 C 635.70,259.00 634.71,260.22 632.94,261.71 C 631.17,263.20 627.98,266.61 625.86,269.30 C 623.74,271.98 622.00,273.76 622.00,273.24" fill="none" stroke="black" stroke-width="1" stroke-linecap="round" stroke-linejoin="round" />
  <path d="M 291.00,258.30 C 291.00,256.70 296.42,249.67 299.93,246.71 C 304.82,242.59 305.59,243.47 300.84,247.75 C 298.55,249.81 295.40,253.26 293.84,255.40 C 292.28,257.55 291.00,258.85 291.00,258.30" fill="none" stroke="black" stroke-width="1" stroke-linecap="round" stroke-linejoin="round" />
  <path d="M 60.82,234.75 C 60.73,223.06 60.76,211.81 60.89,209.75 C 61.13,206.08 61.06,206.00 57.60,206.00 C 55.66,206.00 51.69,206.93 48.79,208.07 C 45.88,209.21 43.95,209.73 44.50,209.22 C 45.96,207.87 53.73,205.00 55.91,205.00 C 57.58,205.00 57.69,204.58 56.87,201.25 C 55.26,194.71 54.58,151.43 55.91,140.44 C 57.57,126.74 61.30,111.57 65.51,101.40 C 69.68,91.32 70.67,89.66 77.77,80.71 C 81.67,75.79 83.99,73.75 86.18,73.31 C 89.81,72.59 92.99,67.93 93.00,63.31 C 93.00,61.55 93.36,59.90 93.79,59.63 C 94.23,59.36 94.41,60.65 94.19,62.49 C 93.80,65.82 93.81,65.83 97.15,65.03 C 98.99,64.58 102.26,63.46 104.40,62.53 C 111.29,59.56 122.63,58.00 137.34,58.01 C 165.82,58.04 184.35,65.06 191.24,78.43 C 194.20,84.19 194.09,95.36 190.98,103.46 C 180.18,131.64 143.76,162.66 90.08,189.43 C 83.16,192.88 75.47,196.46 73.00,197.40 C 70.29,198.42 67.16,200.69 65.13,203.12 C 61.77,207.14 61.77,207.14 61.93,231.57 C 62.02,245.01 61.84,256.00 61.54,256.00 C 61.25,256.00 60.92,246.44 60.82,234.75" fill="none" stroke="black" stroke-width="1" stroke-linecap="round" stroke-linejoin="round" />
  <path d="M 64.20,202.31 C 66.26,200.33 67.00,198.67 67.00,195.98 C 67.00,192.32 72.89,160.64 84.03,104.38 C 87.32,87.81 90.00,73.89 90.00,73.46 C 90.00,73.02 90.25,72.91 90.55,73.22 C 90.85,73.52 88.39,87.43 85.08,104.13 C 74.55,157.33 68.00,192.24 68.00,195.23 C 68.00,198.95 68.29,198.87 87.00,189.85 C 134.63,166.89 174.43,135.23 186.82,110.42 C 191.25,101.53 192.39,97.22 192.36,89.41 C 192.32,80.56 189.64,75.19 182.58,69.86 C 172.88,62.53 158.16,59.00 137.31,59.00 C 122.55,59.00 112.68,60.35 104.50,63.49 C 101.20,64.76 97.27,66.07 95.77,66.41 C 94.01,66.81 92.82,67.87 92.44,69.39 C 91.89,71.58 89.93,73.05 85.82,74.35 C 82.70,75.34 72.88,88.44 68.46,97.50 C 59.93,114.99 56.03,136.04 56.05,164.50 C 56.07,182.05 57.32,202.09 58.52,204.03 C 59.52,205.65 61.26,205.13 64.20,202.31" fill="none" stroke="black" stroke-width="1" stroke-linecap="round" stroke-linejoin="round" />
  <path d="M 499.61,213.53 C 492.58,202.80 496.04,163.66 510.57,89.50 C 514.94,67.16 516.79,59.46 517.58,60.25 C 517.79,60.46 517.51,62.18 516.96,64.07 C 515.38,69.44 507.42,110.59 504.10,130.50 C 499.12,160.43 497.70,173.66 497.60,191.00 C 497.51,205.22 497.76,208.02 499.36,211.25 C 501.05,214.63 501.61,215.00 505.17,215.00 C 508.62,215.00 509.74,214.34 514.16,209.75 C 520.21,203.45 530.62,188.11 538.88,173.31 C 542.20,167.37 545.77,161.98 546.80,161.34 C 547.84,160.70 549.27,158.10 549.98,155.56 C 550.69,153.02 551.64,150.72 552.09,150.44 C 552.55,150.16 552.10,152.31 551.11,155.22 C 549.71,159.33 549.47,161.97 550.01,167.11 C 550.87,175.25 551.32,176.00 555.24,176.00 C 559.91,176.00 564.71,170.06 578.07,147.79 C 588.06,131.12 590.00,128.46 592.32,128.18 C 594.61,127.91 595.00,128.24 595.00,130.43 C 595.00,132.75 595.38,133.00 598.94,133.00 C 603.18,133.00 603.92,132.35 605.06,127.59 C 605.73,124.79 605.80,124.74 605.90,127.03 C 606.07,131.33 603.42,134.00 598.96,134.00 C 594.53,134.00 594.81,133.42 593.06,146.29 C 591.58,157.17 591.74,167.44 593.45,171.53 C 594.67,174.45 595.40,175.00 598.07,175.00 C 601.33,175.00 602.39,174.11 612.75,162.63 C 615.12,160.01 617.00,156.92 617.00,155.65 C 617.00,154.40 617.65,152.51 618.45,151.44 C 619.66,149.83 619.64,150.36 618.33,154.50 C 616.63,159.86 616.51,171.21 618.11,174.20 C 618.69,175.29 620.20,176.00 621.93,176.00 C 626.42,176.00 633.51,167.31 645.55,147.05 C 651.71,136.70 656.93,128.99 657.98,128.72 C 661.93,127.68 662.24,129.13 660.58,141.07 C 657.40,163.92 658.83,175.00 664.95,175.00 C 668.78,175.00 672.83,170.88 680.19,159.53 C 683.38,154.59 686.00,150.88 686.00,151.27 C 686.00,153.17 676.96,166.97 672.93,171.20 C 669.18,175.15 667.75,176.00 664.87,176.00 C 661.85,176.00 661.14,175.52 659.69,172.47 C 657.53,167.95 657.47,156.16 659.51,141.59 C 660.34,135.68 660.76,130.42 660.45,129.92 C 659.17,127.85 655.76,131.53 650.38,140.78 C 634.07,168.82 627.71,177.00 622.23,177.00 C 617.99,177.00 616.00,173.93 616.00,167.37 C 616.00,162.68 615.81,162.24 614.00,162.71 C 612.90,163.00 612.00,163.59 612.00,164.04 C 612.00,164.48 609.70,167.35 606.90,170.42 C 602.43,175.32 601.33,176.00 598.01,176.00 C 594.52,176.00 594.09,175.68 592.61,171.98 C 591.65,169.59 591.00,165.04 591.00,160.78 C 591.00,153.15 592.75,137.50 593.88,135.00 C 595.03,132.46 594.00,129.00 592.10,129.00 C 590.93,129.00 588.26,132.56 584.04,139.75 C 572.09,160.11 567.49,167.24 563.16,172.11 C 559.62,176.09 558.20,177.00 555.53,177.00 C 551.14,177.00 549.70,174.96 549.20,168.04 C 548.59,159.70 546.76,160.91 539.00,174.78 C 529.66,191.46 521.41,203.65 514.99,210.25 C 509.99,215.40 508.98,216.00 505.32,216.00 C 502.07,216.00 500.90,215.49 499.61,213.53" fill="none" stroke="black" stroke-width="1" stroke-linecap="round" stroke-linejoin="round" />
  <path d="M 188.32,200.40 C 187.11,197.24 188.99,177.15 192.38,157.00 C 196.76,130.96 207.99,73.74 208.91,72.75 C 209.29,72.33 207.21,84.03 204.27,98.75 C 192.09,159.85 186.39,201.03 190.10,200.98 C 190.87,200.98 191.98,200.64 192.56,200.23 C 193.14,199.83 198.32,190.54 204.06,179.59 C 217.76,153.46 221.61,147.60 225.40,147.17 C 228.62,146.80 228.54,144.84 226.36,169.75 C 225.73,177.00 225.73,177.00 228.28,177.00 C 231.06,177.00 236.80,171.19 241.74,163.37 C 243.26,160.97 245.08,159.00 245.80,159.00 C 246.51,159.00 247.67,157.63 248.37,155.96 C 249.51,153.27 249.68,154.57 249.88,167.21 C 250.12,182.66 250.44,185.06 252.85,189.25 C 254.14,191.49 255.13,192.00 258.25,192.00 C 261.59,192.00 262.80,191.26 267.79,186.17 C 280.60,173.10 284.11,168.53 287.12,160.98 C 288.75,156.86 290.67,153.05 291.38,152.50 C 292.09,151.95 292.97,150.27 293.35,148.77 C 294.78,143.00 303.61,135.87 307.48,137.35 C 308.36,137.69 309.00,139.17 309.00,140.88 C 309.00,144.96 301.59,151.49 295.94,152.39 C 292.06,153.01 291.74,153.35 288.86,159.77 C 287.21,163.47 285.50,167.18 285.06,168.02 C 283.86,170.32 284.43,181.83 285.81,183.21 C 287.57,184.97 294.25,184.42 298.68,182.16 C 304.13,179.38 313.86,172.05 323.56,163.42 C 328.16,159.33 333.06,155.55 334.46,155.02 C 335.86,154.48 337.00,153.39 337.00,152.58 C 337.00,151.78 337.45,150.84 338.00,150.50 C 338.64,150.10 338.69,150.70 338.13,152.19 C 336.47,156.66 335.89,170.34 337.26,173.00 C 339.17,176.72 343.49,176.86 347.21,173.33 C 350.65,170.07 360.47,155.35 367.45,143.00 C 373.82,131.72 376.70,128.00 379.05,128.00 C 381.52,128.00 381.57,130.80 379.40,147.33 C 377.79,159.61 378.04,167.80 380.16,172.46 C 381.06,174.42 382.06,175.00 384.58,175.00 C 387.26,175.00 388.65,174.08 392.32,169.88 C 394.78,167.07 398.49,161.88 400.55,158.35 C 402.62,154.82 404.78,151.64 405.36,151.28 C 406.78,150.40 401.70,159.11 396.42,166.60 C 391.48,173.60 388.32,176.00 384.06,176.00 C 377.80,176.00 375.78,165.68 378.40,147.04 C 380.50,132.04 380.49,128.76 378.37,129.18 C 377.47,129.35 371.51,138.18 365.12,148.78 C 351.11,172.02 346.97,177.00 341.63,177.00 C 338.28,177.00 337.74,176.63 336.36,173.33 C 335.21,170.57 335.00,167.96 335.52,162.83 C 336.06,157.42 335.92,156.00 334.85,156.01 C 334.11,156.02 329.90,159.22 325.50,163.11 C 308.89,177.82 297.72,185.00 291.02,185.26 C 285.43,185.49 283.48,183.31 283.57,176.96 C 283.61,174.23 283.36,172.00 283.01,172.00 C 281.81,172.00 279.34,174.54 273.98,181.29 C 266.46,190.76 263.04,193.19 257.79,192.81 C 254.20,192.54 253.30,192.00 251.55,189.00 C 249.83,186.06 249.44,183.40 249.15,172.25 C 248.96,164.96 248.51,159.01 248.15,159.02 C 246.64,159.05 244.86,160.95 238.79,169.00 C 232.93,176.78 232.09,177.50 228.94,177.50 C 225.50,177.50 225.50,177.50 225.57,171.50 C 225.60,168.20 226.01,161.56 226.46,156.75 C 227.25,148.48 227.19,148.00 225.36,148.00 C 222.69,148.00 216.80,157.24 204.37,180.87 C 198.75,191.55 193.56,200.66 192.83,201.13 C 190.76,202.44 189.00,202.15 188.32,200.40" fill="none" stroke="black" stroke-width="1" stroke-linecap="round" stroke-linejoin="round" />
  <path d="M 303.94,147.32 C 306.97,144.73 308.00,143.10 308.00,140.92 C 308.00,138.85 307.51,138.00 306.31,138.00 C 302.40,138.00 294.00,146.28 294.00,150.14 C 294.00,152.70 299.47,151.14 303.94,147.32" fill="none" stroke="black" stroke-width="1" stroke-linecap="round" stroke-linejoin="round" />
  <path d="M 251.75,139.34 C 252.44,139.06 253.56,139.06 254.25,139.34 C 254.94,139.62 254.38,139.84 253.00,139.84 C 251.62,139.84 251.06,139.62 251.75,139.34" fill="none" stroke="black" stroke-width="1" stroke-linecap="round" stroke-linejoin="round" />
  <path d="M 298.00,130.11 C 298.82,129.52 300.43,129.02 301.57,129.02 C 302.71,129.01 305.52,127.55 307.82,125.79 C 311.40,123.03 312.00,122.04 312.00,118.85 C 312.00,116.80 312.35,114.90 312.79,114.63 C 313.22,114.36 313.33,116.25 313.04,118.82 C 312.56,122.98 312.81,123.81 315.28,126.25 C 316.82,127.76 319.15,129.00 320.48,129.00 C 321.80,129.00 323.13,129.40 323.43,129.89 C 324.56,131.72 316.45,129.04 314.84,127.05 C 312.71,124.42 311.87,124.47 307.40,127.50 C 305.38,128.88 302.92,130.00 301.94,130.00 C 300.96,130.00 299.34,130.27 298.33,130.59 C 296.81,131.09 296.75,131.01 298.00,130.11" fill="none" stroke="black" stroke-width="1" stroke-linecap="round" stroke-linejoin="round" />
</svg>
