<svg xmlns="http://www.w3.org/2000/svg" viewBox="0 0 821 449" width="821" height="449">
  <path d="M 335.00,379.00 L 338.00,380.00 L 338.00,384.00 L 335.00,387.00 L 333.00,385.00 L 333.00,381.00" fill="none" stroke="black" stroke-width="1" stroke-linecap="round" stroke-linejoin="round" />
  <path d="M 334.00,374.00 L 335.00,373.00 L 339.00,374.00 L 338.00,379.00 L 334.00,378.00" fill="none" stroke="black" stroke-width="1" stroke-linecap="round" stroke-linejoin="round" />
  <path d="M 335.00,367.00 L 336.00,366.00 L 340.00,367.00 L 340.00,372.00 L 339.00,373.00 L 335.00,372.00" fill="none" stroke="black" stroke-width="1" stroke-linecap="round" stroke-linejoin="round" />
  <path d="M 338.00,360.00 L 341.00,361.00 L 341.00,365.00 L 337.00,366.00 L 336.00,362.00" fill="none" stroke="black" stroke-width="1" stroke-linecap="round" stroke-linejoin="round" />
  <path d="M 337.00,355.00 L 338.00,354.00 L 342.00,355.00 L 341.00,360.00 L 337.00,359.00" fill="none" stroke="black" stroke-width="1" stroke-linecap="round" stroke-linejoin="round" />
  <path d="M 325.00,352.00 L 326.00,351.00 L 327.00,352.00 L 326.00,353.00" fill="none" stroke="black" stroke-width="1" stroke-linecap="round" stroke-linejoin="round" />
  <path d="M 342.00,345.00 L 344.00,347.00 L 343.00,353.00 L 339.00,354.00 L 337.00,350.00" fill="none" stroke="black" stroke-width="1" stroke-linecap="round" stroke-linejoin="round" />
  <path d="M 338.00,341.00 L 339.00,340.00 L 341.00,345.00 L 336.00,351.00 L 333.00,351.00 L 330.00,353.00 L 328.00,353.00 L 325.00,350.00 L 335.00,341.00" fill="none" stroke="black" stroke-width="1" stroke-linecap="round" stroke-linejoin="round" />
  <path d="M 344.00,335.00 L 346.00,336.00 L 345.00,342.00 L 342.00,344.00 L 340.00,343.00 L 339.00,340.00 L 342.00,337.00" fill="none" stroke="black" stroke-width="1" stroke-linecap="round" stroke-linejoin="round" />
  <path d="M 350.00,326.00 L 351.00,325.00 L 352.00,326.00 L 351.00,327.00" fill="none" stroke="black" stroke-width="1" stroke-linecap="round" stroke-linejoin="round" />
  <path d="M 369.00,314.00 L 370.00,313.00 L 371.00,314.00 L 370.00,315.00" fill="none" stroke="black" stroke-width="1" stroke-linecap="round" stroke-linejoin="round" />
  <path d="M 598.00,304.00 L 599.00,303.00 L 601.00,305.00 L 607.00,306.00 L 609.00,308.00 L 608.00,315.00 L 602.00,321.00 L 594.00,321.00 L 591.00,316.00 L 597.00,304.00" fill="none" stroke="black" stroke-width="1" stroke-linecap="round" stroke-linejoin="round" />
  <path d="M 603.00,294.00 L 606.00,294.00 L 609.00,297.00 L 610.00,306.00 L 608.00,307.00 L 601.00,305.00 L 599.00,303.00 L 599.00,298.00" fill="none" stroke="black" stroke-width="1" stroke-linecap="round" stroke-linejoin="round" />
  <path d="M 282.00,287.00 L 284.00,287.00 L 287.00,290.00 L 288.00,294.00 L 282.00,299.00 L 277.00,306.00 L 271.00,312.00 L 268.00,313.00 L 267.00,311.00 L 272.00,299.00 L 278.00,290.00 L 280.00,289.00" fill="none" stroke="black" stroke-width="1" stroke-linecap="round" stroke-linejoin="round" />
  <path d="M 609.00,272.00 L 607.00,280.00 L 599.00,286.00 L 593.00,286.00 L 599.00,286.00 L 607.00,280.00 L 609.00,280.00 L 615.00,286.00 L 620.00,286.00 L 615.00,286.00 L 610.00,282.00 L 608.00,279.00 L 608.00,274.00 L 609.00,273.00" fill="none" stroke="black" stroke-width="1" stroke-linecap="round" stroke-linejoin="round" />
  <path d="M 374.00,270.00 L 376.00,269.00 L 380.00,273.00 L 380.00,284.00 L 378.00,292.00 L 374.00,302.00 L 368.00,312.00 L 369.00,315.00 L 354.00,329.00 L 352.00,329.00 L 351.00,328.00 L 352.00,326.00 L 349.00,324.00 L 353.00,305.00 L 358.00,290.00 L 364.00,278.00 L 373.00,270.00" fill="none" stroke="black" stroke-width="1" stroke-linecap="round" stroke-linejoin="round" />
  <path d="M 279.00,264.00 L 278.00,266.00 L 281.00,276.00 L 284.00,279.00 L 293.00,278.00 L 296.00,274.00 L 300.00,264.00 L 297.00,272.00 L 291.00,279.00 L 284.00,279.00 L 279.00,271.00 L 278.00,265.00" fill="none" stroke="black" stroke-width="1" stroke-linecap="round" stroke-linejoin="round" />
  <path d="M 634.00,259.00 L 625.00,267.00 L 623.00,272.00 L 625.00,268.00 L 635.00,259.00" fill="none" stroke="black" stroke-width="1" stroke-linecap="round" stroke-linejoin="round" />
  <path d="M 303.00,244.00 L 294.00,252.00 L 291.00,256.00 L 291.00,258.00 L 294.00,253.00 L 304.00,244.00" fill="none" stroke="black" stroke-width="1" stroke-linecap="round" stroke-linejoin="round" />
  <path d="M 558.00,221.00 L 555.00,228.00 L 555.00,235.00 L 541.00,304.00 L 539.00,306.00 L 535.00,307.00 L 521.00,320.00 L 503.00,333.00 L 499.00,335.00 L 491.00,335.00 L 488.00,331.00 L 488.00,324.00 L 491.00,312.00 L 498.00,297.00 L 507.00,288.00 L 512.00,289.00 L 512.00,294.00 L 511.00,296.00 L 512.00,294.00 L 512.00,289.00 L 511.00,288.00 L 505.00,289.00 L 499.00,295.00 L 491.00,312.00 L 488.00,324.00 L 488.00,331.00 L 490.00,335.00 L 499.00,335.00 L 505.00,332.00 L 519.00,322.00 L 535.00,307.00 L 540.00,305.00 L 541.00,307.00 L 540.00,308.00 L 540.00,315.00 L 539.00,316.00 L 537.00,337.00 L 536.00,338.00 L 536.00,351.00 L 539.00,352.00 L 543.00,349.00 L 554.00,326.00 L 567.00,303.00 L 574.00,297.00 L 576.00,300.00 L 575.00,312.00 L 573.00,319.00 L 574.00,328.00 L 579.00,328.00 L 587.00,318.00 L 591.00,316.00 L 593.00,321.00 L 602.00,321.00 L 604.00,320.00 L 608.00,315.00 L 608.00,311.00 L 610.00,308.00 L 627.00,307.00 L 641.00,303.00 L 645.00,303.00 L 646.00,304.00 L 641.00,322.00 L 641.00,331.00 L 643.00,334.00 L 647.00,334.00 L 655.00,327.00 L 674.00,302.00 L 687.00,290.00 L 690.00,292.00 L 691.00,296.00 L 690.00,300.00 L 690.00,320.00 L 693.00,325.00 L 700.00,325.00 L 707.00,321.00 L 724.00,304.00 L 725.00,301.00 L 719.00,309.00 L 705.00,322.00 L 700.00,325.00 L 694.00,325.00 L 690.00,320.00 L 690.00,300.00 L 691.00,296.00 L 690.00,291.00 L 687.00,290.00 L 684.00,291.00 L 676.00,299.00 L 657.00,324.00 L 647.00,334.00 L 643.00,334.00 L 641.00,331.00 L 641.00,322.00 L 646.00,303.00 L 641.00,303.00 L 627.00,307.00 L 611.00,308.00 L 610.00,307.00 L 610.00,300.00 L 608.00,295.00 L 603.00,294.00 L 600.00,296.00 L 599.00,302.00 L 596.00,305.00 L 592.00,312.00 L 592.00,314.00 L 578.00,328.00 L 575.00,328.00 L 573.00,326.00 L 573.00,319.00 L 576.00,300.00 L 574.00,297.00 L 571.00,298.00 L 568.00,301.00 L 556.00,322.00 L 556.00,324.00 L 554.00,326.00 L 544.00,347.00 L 541.00,351.00 L 538.00,352.00 L 536.00,350.00 L 536.00,339.00 L 537.00,338.00 L 537.00,330.00 L 538.00,329.00 L 540.00,308.00 L 541.00,307.00 L 540.00,305.00 L 542.00,302.00 L 543.00,292.00 L 557.00,222.00" fill="none" stroke="black" stroke-width="1" stroke-linecap="round" stroke-linejoin="round" />
  <path d="M 232.00,221.00 L 230.00,223.00 L 228.00,238.00 L 225.00,248.00 L 222.00,268.00 L 218.00,284.00 L 218.00,289.00 L 216.00,295.00 L 216.00,300.00 L 214.00,306.00 L 209.00,308.00 L 187.00,326.00 L 176.00,331.00 L 167.00,331.00 L 166.00,330.00 L 169.00,322.00 L 173.00,317.00 L 179.00,305.00 L 194.00,283.00 L 187.00,292.00 L 171.00,320.00 L 167.00,325.00 L 167.00,329.00 L 164.00,331.00 L 158.00,346.00 L 155.00,349.00 L 152.00,348.00 L 152.00,335.00 L 153.00,334.00 L 153.00,326.00 L 154.00,325.00 L 157.00,298.00 L 158.00,297.00 L 163.00,262.00 L 165.00,256.00 L 167.00,238.00 L 171.00,223.00 L 167.00,238.00 L 167.00,244.00 L 166.00,245.00 L 165.00,256.00 L 163.00,262.00 L 163.00,267.00 L 157.00,298.00 L 157.00,304.00 L 156.00,305.00 L 156.00,311.00 L 153.00,326.00 L 153.00,334.00 L 152.00,335.00 L 152.00,348.00 L 155.00,349.00 L 158.00,346.00 L 162.00,335.00 L 165.00,331.00 L 179.00,330.00 L 192.00,323.00 L 209.00,308.00 L 213.00,307.00 L 214.00,312.00 L 213.00,313.00 L 211.00,333.00 L 210.00,334.00 L 210.00,351.00 L 211.00,352.00 L 215.00,351.00 L 234.00,314.00 L 240.00,304.00 L 246.00,297.00 L 249.00,298.00 L 249.00,309.00 L 247.00,317.00 L 247.00,327.00 L 248.00,328.00 L 252.00,328.00 L 260.00,319.00 L 264.00,318.00 L 269.00,312.00 L 273.00,311.00 L 289.00,292.00 L 294.00,294.00 L 295.00,310.00 L 299.00,320.00 L 304.00,324.00 L 317.00,323.00 L 325.00,319.00 L 342.00,306.00 L 345.00,305.00 L 346.00,308.00 L 342.00,326.00 L 343.00,335.00 L 338.00,341.00 L 335.00,341.00 L 326.00,348.00 L 325.00,352.00 L 318.00,357.00 L 325.00,353.00 L 330.00,353.00 L 337.00,350.00 L 338.00,351.00 L 335.00,372.00 L 334.00,373.00 L 334.00,379.00 L 333.00,380.00 L 333.00,385.00 L 335.00,387.00 L 335.00,389.00 L 334.00,390.00 L 334.00,397.00 L 332.00,406.00 L 334.00,397.00 L 334.00,390.00 L 338.00,384.00 L 338.00,379.00 L 340.00,373.00 L 340.00,367.00 L 344.00,348.00 L 342.00,345.00 L 345.00,343.00 L 346.00,335.00 L 352.00,329.00 L 356.00,328.00 L 369.00,315.00 L 374.00,315.00 L 382.00,310.00 L 402.00,301.00 L 394.00,304.00 L 374.00,315.00 L 368.00,312.00 L 374.00,302.00 L 380.00,284.00 L 380.00,273.00 L 379.00,271.00 L 375.00,269.00 L 369.00,272.00 L 365.00,276.00 L 361.00,283.00 L 353.00,305.00 L 349.00,321.00 L 349.00,325.00 L 351.00,330.00 L 348.00,334.00 L 344.00,335.00 L 342.00,333.00 L 342.00,326.00 L 349.00,294.00 L 347.00,302.00 L 344.00,306.00 L 340.00,307.00 L 332.00,314.00 L 317.00,323.00 L 304.00,324.00 L 297.00,316.00 L 294.00,303.00 L 294.00,294.00 L 288.00,292.00 L 286.00,288.00 L 282.00,287.00 L 274.00,295.00 L 268.00,307.00 L 267.00,314.00 L 262.00,319.00 L 260.00,319.00 L 251.00,328.00 L 247.00,327.00 L 249.00,297.00 L 244.00,298.00 L 234.00,314.00 L 217.00,348.00 L 213.00,352.00 L 211.00,352.00 L 210.00,351.00 L 210.00,334.00 L 211.00,333.00 L 211.00,326.00 L 214.00,312.00 L 214.00,305.00 L 216.00,300.00 L 216.00,295.00 L 222.00,268.00 L 222.00,263.00 L 231.00,222.00" fill="none" stroke="black" stroke-width="1" stroke-linecap="round" stroke-linejoin="round" />
  <path d="M 59.00,202.00 L 64.00,202.00 L 65.00,203.00 L 63.00,216.00 L 61.00,218.00 L 58.00,215.00 L 57.00,204.00" fill="none" stroke="black" stroke-width="1" stroke-linecap="round" stroke-linejoin="round" />
  <path d="M 251.00,139.00 L 254.00,139.00" fill="none" stroke="black" stroke-width="1" stroke-linecap="round" stroke-linejoin="round" />
  <path d="M 303.00,138.00 L 307.00,137.00 L 308.00,138.00 L 308.00,143.00 L 299.00,151.00 L 294.00,152.00 L 293.00,151.00 L 294.00,146.00 L 302.00,138.00" fill="none" stroke="black" stroke-width="1" stroke-linecap="round" stroke-linejoin="round" />
  <path d="M 312.00,115.00 L 312.00,122.00 L 303.00,129.00 L 296.00,130.00 L 303.00,129.00 L 310.00,124.00 L 313.00,124.00 L 318.00,129.00 L 323.00,129.00 L 316.00,128.00 L 311.00,123.00 L 312.00,122.00" fill="none" stroke="black" stroke-width="1" stroke-linecap="round" stroke-linejoin="round" />
  <path d="M 87.00,74.00 L 88.00,73.00 L 89.00,74.00 L 88.00,75.00" fill="none" stroke="black" stroke-width="1" stroke-linecap="round" stroke-linejoin="round" />
  <path d="M 85.00,73.00 L 89.00,76.00 L 89.00,81.00 L 69.00,179.00 L 69.00,184.00 L 67.00,190.00 L 67.00,199.00 L 64.00,202.00 L 59.00,202.00 L 58.00,203.00 L 56.00,198.00 L 55.00,145.00 L 56.00,144.00 L 58.00,124.00 L 62.00,109.00 L 69.00,93.00 L 78.00,80.00" fill="none" stroke="black" stroke-width="1" stroke-linecap="round" stroke-linejoin="round" />
  <path d="M 209.00,71.00 L 207.00,76.00 L 206.00,87.00 L 198.00,123.00 L 198.00,128.00 L 192.00,156.00 L 192.00,162.00 L 190.00,168.00 L 189.00,182.00 L 188.00,183.00 L 188.00,200.00 L 189.00,201.00 L 193.00,200.00 L 196.00,196.00 L 210.00,167.00 L 217.00,155.00 L 224.00,146.00 L 227.00,147.00 L 225.00,176.00 L 226.00,177.00 L 231.00,177.00 L 243.00,161.00 L 248.00,157.00 L 249.00,158.00 L 249.00,182.00 L 251.00,188.00 L 254.00,192.00 L 262.00,192.00 L 271.00,184.00 L 278.00,174.00 L 282.00,171.00 L 284.00,172.00 L 283.00,175.00 L 284.00,182.00 L 288.00,185.00 L 295.00,184.00 L 303.00,180.00 L 314.00,172.00 L 333.00,155.00 L 336.00,156.00 L 335.00,170.00 L 338.00,176.00 L 346.00,175.00 L 359.00,158.00 L 368.00,141.00 L 377.00,128.00 L 380.00,129.00 L 380.00,138.00 L 377.00,154.00 L 377.00,166.00 L 381.00,175.00 L 389.00,174.00 L 396.00,166.00 L 405.00,151.00 L 394.00,168.00 L 387.00,175.00 L 381.00,175.00 L 377.00,166.00 L 377.00,155.00 L 378.00,154.00 L 378.00,146.00 L 380.00,138.00 L 380.00,128.00 L 377.00,128.00 L 372.00,134.00 L 354.00,165.00 L 344.00,176.00 L 339.00,176.00 L 336.00,173.00 L 335.00,170.00 L 336.00,154.00 L 338.00,150.00 L 335.00,155.00 L 331.00,156.00 L 307.00,177.00 L 295.00,184.00 L 288.00,185.00 L 284.00,182.00 L 283.00,179.00 L 284.00,174.00 L 283.00,169.00 L 285.00,167.00 L 286.00,162.00 L 290.00,154.00 L 292.00,152.00 L 301.00,150.00 L 307.00,145.00 L 308.00,138.00 L 304.00,137.00 L 300.00,139.00 L 295.00,144.00 L 293.00,148.00 L 293.00,151.00 L 290.00,153.00 L 283.00,170.00 L 276.00,176.00 L 272.00,182.00 L 261.00,192.00 L 255.00,192.00 L 251.00,188.00 L 249.00,182.00 L 249.00,158.00 L 248.00,157.00 L 249.00,153.00 L 249.00,155.00 L 244.00,159.00 L 236.00,171.00 L 230.00,177.00 L 226.00,177.00 L 225.00,176.00 L 225.00,166.00 L 227.00,158.00 L 227.00,146.00 L 224.00,146.00 L 222.00,147.00 L 215.00,158.00 L 194.00,199.00 L 189.00,201.00 L 188.00,200.00 L 188.00,184.00 L 189.00,183.00 L 192.00,156.00 L 206.00,87.00 L 207.00,77.00 L 209.00,73.00" fill="none" stroke="black" stroke-width="1" stroke-linecap="round" stroke-linejoin="round" />
  <path d="M 517.00,60.00 L 514.00,69.00 L 514.00,75.00 L 512.00,80.00 L 512.00,85.00 L 510.00,90.00 L 508.00,105.00 L 505.00,116.00 L 505.00,121.00 L 500.00,146.00 L 499.00,160.00 L 498.00,161.00 L 498.00,169.00 L 497.00,170.00 L 496.00,203.00 L 499.00,213.00 L 501.00,215.00 L 510.00,214.00 L 518.00,206.00 L 530.00,189.00 L 545.00,162.00 L 548.00,161.00 L 549.00,162.00 L 550.00,174.00 L 552.00,176.00 L 558.00,176.00 L 570.00,162.00 L 582.00,140.00 L 590.00,128.00 L 594.00,129.00 L 593.00,143.00 L 591.00,151.00 L 591.00,168.00 L 594.00,175.00 L 601.00,175.00 L 615.00,161.00 L 616.00,162.00 L 616.00,172.00 L 619.00,176.00 L 625.00,176.00 L 632.00,169.00 L 640.00,157.00 L 654.00,132.00 L 659.00,128.00 L 661.00,131.00 L 660.00,132.00 L 660.00,142.00 L 658.00,149.00 L 658.00,169.00 L 661.00,175.00 L 668.00,175.00 L 675.00,168.00 L 684.00,153.00 L 676.00,166.00 L 667.00,175.00 L 662.00,175.00 L 658.00,169.00 L 658.00,149.00 L 659.00,148.00 L 660.00,132.00 L 661.00,131.00 L 659.00,128.00 L 655.00,130.00 L 636.00,163.00 L 624.00,176.00 L 619.00,176.00 L 616.00,172.00 L 616.00,162.00 L 615.00,160.00 L 619.00,150.00 L 617.00,153.00 L 616.00,159.00 L 610.00,164.00 L 607.00,169.00 L 602.00,174.00 L 595.00,175.00 L 591.00,168.00 L 591.00,151.00 L 593.00,143.00 L 593.00,136.00 L 595.00,133.00 L 602.00,133.00 L 605.00,130.00 L 605.00,125.00 L 605.00,129.00 L 601.00,133.00 L 595.00,133.00 L 594.00,128.00 L 590.00,128.00 L 586.00,133.00 L 571.00,160.00 L 561.00,173.00 L 557.00,176.00 L 552.00,176.00 L 550.00,174.00 L 548.00,160.00 L 552.00,150.00 L 548.00,160.00 L 544.00,163.00 L 534.00,182.00 L 520.00,203.00 L 508.00,215.00 L 501.00,215.00 L 498.00,210.00 L 496.00,202.00 L 497.00,170.00 L 498.00,169.00 L 498.00,161.00 L 499.00,160.00 L 500.00,146.00 L 501.00,145.00 L 505.00,116.00 L 508.00,105.00 L 510.00,90.00 L 512.00,85.00 L 512.00,80.00 L 514.00,75.00 L 514.00,69.00 L 517.00,61.00" fill="none" stroke="black" stroke-width="1" stroke-linecap="round" stroke-linejoin="round" />
  <path d="M 120.00,59.00 L 121.00,58.00 L 151.00,58.00 L 152.00,59.00 L 158.00,59.00 L 170.00,62.00 L 183.00,69.00 L 189.00,75.00 L 192.00,81.00 L 193.00,91.00 L 189.00,107.00 L 181.00,120.00 L 170.00,133.00 L 145.00,155.00 L 131.00,165.00 L 103.00,182.00 L 69.00,198.00 L 67.00,197.00 L 67.00,190.00 L 89.00,81.00 L 89.00,72.00 L 91.00,71.00 L 93.00,66.00 L 99.00,65.00 L 104.00,62.00 L 115.00,59.00" fill="none" stroke="black" stroke-width="1" stroke-linecap="round" stroke-linejoin="round" />
  <path d="M 121.00,58.00 L 107.00,61.00 L 99.00,65.00 L 94.00,66.00 L 93.00,65.00 L 93.00,60.00 L 94.00,59.00 L 93.00,60.00 L 93.00,66.00 L 91.00,70.00 L 88.00,73.00 L 83.00,74.00 L 72.00,87.00 L 67.00,96.00 L 62.00,109.00 L 58.00,124.00 L 56.00,144.00 L 55.00,145.00 L 55.00,185.00 L 56.00,186.00 L 57.00,204.00 L 44.00,209.00 L 53.00,205.00 L 56.00,205.00 L 58.00,208.00 L 58.00,216.00 L 61.00,218.00 L 61.00,255.00 L 61.00,218.00 L 63.00,217.00 L 64.00,214.00 L 64.00,208.00 L 66.00,200.00 L 68.00,198.00 L 75.00,196.00 L 112.00,177.00 L 133.00,164.00 L 152.00,150.00 L 176.00,127.00 L 189.00,107.00 L 192.00,98.00 L 193.00,89.00 L 192.00,88.00 L 192.00,81.00 L 186.00,71.00 L 179.00,66.00 L 170.00,62.00 L 151.00,58.00" fill="none" stroke="black" stroke-width="1" stroke-linecap="round" stroke-linejoin="round" />
</svg>
