<svg xmlns="http://www.w3.org/2000/svg" viewBox="0 0 821 449" width="821" height="449">
  <path d="M 330.32,409.40 C 329.39,406.98 330.70,390.13 333.00,375.00 C 334.12,367.57 335.33,359.54 335.67,357.15 L 336.30,352.80 L 328.56,356.90 C 319.69,361.60 315.00,362.26 315.00,358.80 C 315.00,356.42 320.75,350.60 332.50,341.07 L 339.49,335.39 L 341.70,323.45 C 344.80,306.69 344.88,307.09 339.25,311.74 C 321.36,326.50 308.24,330.66 300.62,323.97 C 296.47,320.33 294.18,314.17 293.40,304.53 C 292.68,295.57 292.10,293.73 290.94,296.73 C 290.42,298.07 289.51,298.75 288.68,298.43 C 287.77,298.08 283.71,302.29 277.08,310.45 C 267.42,322.34 264.98,324.40 263.46,321.94 C 263.08,321.33 260.78,323.00 257.96,325.94 C 254.19,329.88 252.43,331.00 250.03,331.00 C 245.19,331.00 244.43,327.73 246.39,315.36 C 248.24,303.72 248.40,300.00 247.04,300.00 C 245.73,300.00 237.70,313.77 227.30,333.84 C 216.37,354.94 215.50,356.20 212.21,355.81 C 210.32,355.58 209.41,354.70 208.79,352.50 C 207.89,349.32 209.23,331.53 211.39,317.95 C 212.09,313.58 212.39,310.00 212.07,310.00 C 211.75,310.00 208.77,312.37 205.46,315.26 C 191.23,327.67 179.47,334.18 171.07,334.31 L 166.24,334.38 L 161.37,344.44 C 157.18,353.09 156.16,354.50 154.07,354.50 C 151.36,354.50 149.91,351.13 150.51,346.25 C 150.70,344.74 151.13,339.68 151.46,335.00 C 152.24,324.05 155.86,299.31 161.55,266.12 C 165.75,241.61 165.95,239.60 164.44,237.93 C 162.92,236.25 162.98,235.90 165.34,232.79 C 166.74,230.96 168.33,227.50 168.86,225.11 C 170.15,219.39 171.49,218.07 173.74,220.31 C 175.36,221.93 175.36,222.31 173.78,226.77 C 170.03,237.33 156.67,319.12 155.48,338.77 L 154.95,347.50 L 157.68,341.50 C 164.43,326.66 177.55,301.00 181.67,294.56 C 189.33,282.61 195.73,277.26 197.35,281.46 C 198.23,283.76 192.03,295.11 180.11,313.00 C 169.57,328.83 169.23,329.51 171.64,329.82 C 177.53,330.58 193.13,320.71 208.75,306.33 L 214.01,301.50 L 217.51,282.50 C 219.45,272.05 222.44,256.63 224.17,248.22 C 227.14,233.76 227.21,232.88 225.55,231.66 C 223.91,230.46 224.04,229.98 227.42,224.69 C 230.87,219.31 234.00,217.28 234.00,220.44 C 234.00,221.23 231.09,236.41 227.54,254.19 C 217.42,304.79 212.63,335.10 213.19,345.00 L 213.50,350.50 L 223.16,331.92 C 238.42,302.54 244.14,294.00 248.55,294.00 C 251.63,294.00 252.43,296.90 251.66,305.28 C 251.34,308.70 250.79,315.10 250.42,319.50 L 249.77,327.50 L 253.45,324.00 C 257.57,320.09 265.92,307.91 271.32,297.95 C 275.13,290.93 279.01,286.45 282.15,285.45 C 284.19,284.81 289.00,287.32 289.00,289.02 C 289.00,289.56 290.06,290.00 291.35,290.00 C 295.15,290.00 296.69,292.84 297.41,301.19 C 299.77,328.54 310.29,329.77 339.27,306.10 C 344.91,301.49 346.15,299.93 346.65,296.80 C 347.35,292.40 349.21,290.33 350.76,292.24 C 351.47,293.12 350.75,298.92 348.37,311.45 C 346.50,321.32 345.13,329.87 345.32,330.45 C 345.52,331.03 346.92,326.10 348.45,319.50 C 353.80,296.34 360.04,279.91 365.86,273.66 C 371.60,267.50 377.55,266.35 381.03,270.75 C 382.94,273.16 383.15,274.38 382.71,280.50 C 382.12,288.83 379.97,295.65 374.48,306.59 L 370.42,314.68 L 383.96,307.80 C 398.42,300.45 405.48,298.31 404.85,301.47 C 404.63,302.61 401.35,304.59 395.66,307.04 C 381.26,313.25 365.23,322.90 361.74,327.47 C 360.05,329.69 356.28,333.98 353.36,337.00 L 348.05,342.50 L 342.98,372.00 C 337.25,405.40 335.80,411.00 332.89,411.00 C 331.82,411.00 330.66,410.28 330.32,409.40 Z" fill="black" stroke="none" />
  <path d="M 336.68,381.81 C 336.36,381.01 336.13,381.25 336.08,382.42 C 336.04,383.47 336.27,384.06 336.60,383.73 C 336.94,383.40 336.97,382.53 336.68,381.81 Z" fill="black" stroke="none" />
  <path d="M 337.66,374.75 C 337.38,374.06 337.16,374.62 337.16,376.00 C 337.16,377.38 337.38,377.94 337.66,377.25 C 337.94,376.56 337.94,375.44 337.66,374.75 Z" fill="black" stroke="none" />
  <path d="M 338.69,368.27 C 338.44,367.30 338.22,367.85 338.19,369.50 C 338.17,371.15 338.38,371.95 338.66,371.27 C 338.93,370.59 338.95,369.24 338.69,368.27 Z" fill="black" stroke="none" />
  <path d="M 339.68,362.81 C 339.36,362.01 339.13,362.25 339.08,363.42 C 339.04,364.47 339.27,365.06 339.60,364.73 C 339.94,364.40 339.97,363.53 339.68,362.81 Z" fill="black" stroke="none" />
  <path d="M 340.66,355.75 C 340.38,355.06 340.16,355.62 340.16,357.00 C 340.16,358.38 340.38,358.94 340.66,358.25 C 340.94,357.56 340.94,356.44 340.66,355.75 Z" fill="black" stroke="none" />
  <path d="M 341.69,350.27 C 341.44,349.30 341.22,349.85 341.19,351.50 C 341.17,353.15 341.38,353.95 341.66,353.27 C 341.93,352.59 341.95,351.24 341.69,350.27 Z" fill="black" stroke="none" />
  <path d="M 335.25,347.66 C 338.36,345.36 339.18,342.27 336.25,343.91 C 335.29,344.45 332.48,346.74 330.00,348.99 C 325.52,353.06 325.52,353.07 329.00,351.39 C 330.93,350.45 333.74,348.78 335.25,347.66 Z" fill="black" stroke="none" />
  <path d="M 364.72,314.52 C 375.14,298.93 381.51,278.81 377.68,273.57 C 376.43,271.87 376.17,271.86 373.16,273.42 C 365.74,277.26 359.12,292.52 352.60,320.81 L 351.15,327.11 L 355.33,324.72 C 358.17,323.08 361.16,319.84 364.72,314.52 Z" fill="black" stroke="none" />
  <path d="M 281.08,298.82 C 284.23,295.18 285.78,292.58 285.39,291.57 C 283.82,287.48 278.53,292.57 273.85,302.66 C 270.35,310.22 270.30,311.40 273.61,307.50 C 275.02,305.85 278.38,301.94 281.08,298.82 Z" fill="black" stroke="none" />
  <path d="M 535.61,354.42 C 534.11,350.51 534.98,338.39 538.63,312.50 L 539.34,307.50 L 532.11,314.00 C 497.41,345.19 481.41,346.32 488.62,317.06 C 493.67,296.58 506.96,281.13 514.04,287.54 C 516.40,289.67 516.49,291.16 514.47,295.05 C 513.52,296.89 512.16,298.00 510.86,298.00 C 508.75,298.00 508.69,297.14 510.49,292.75 C 511.86,289.44 507.39,290.83 503.77,294.84 C 496.32,303.08 489.01,325.66 491.61,332.42 C 493.73,337.94 508.74,328.98 530.61,309.14 L 540.73,299.97 L 542.98,287.73 C 544.22,281.01 547.14,265.94 549.48,254.25 C 553.01,236.56 553.49,232.82 552.36,231.88 C 550.47,230.31 550.59,229.80 554.15,224.07 C 557.14,219.25 559.20,217.89 560.45,219.91 C 560.76,220.42 559.47,227.95 557.58,236.66 C 545.83,290.95 536.32,351.78 539.92,349.55 C 540.43,349.24 544.97,341.01 550.01,331.27 C 564.97,302.35 570.57,294.00 574.97,294.00 C 578.47,294.00 579.40,298.25 578.02,308.00 C 575.97,322.52 575.68,327.00 576.78,327.00 C 579.09,327.00 592.56,308.51 596.11,300.47 C 601.18,289.02 611.10,289.83 612.70,301.84 L 613.26,306.00 L 619.38,305.95 C 622.75,305.92 629.55,304.77 634.50,303.40 C 639.45,302.02 645.03,300.64 646.89,300.32 C 650.82,299.66 650.84,298.52 646.63,314.36 C 643.99,324.26 643.28,331.44 644.84,332.40 C 646.55,333.46 650.51,329.35 663.42,313.13 C 682.06,289.71 687.03,285.58 691.37,289.93 C 693.37,291.94 693.48,292.89 693.17,305.96 C 692.83,320.45 693.55,324.00 696.84,324.00 C 700.08,324.00 707.40,318.41 716.28,309.15 C 724.66,300.43 728.00,298.23 728.00,301.47 C 728.00,303.78 715.65,317.34 708.96,322.37 C 700.12,329.01 694.38,329.73 690.61,324.67 C 688.65,322.05 688.52,320.79 688.81,307.42 C 689.07,295.31 688.88,293.00 687.66,293.00 C 685.72,293.00 678.51,300.99 666.64,316.29 C 651.72,335.52 646.02,339.87 641.57,335.43 C 639.06,332.92 639.24,324.25 642.03,313.63 C 643.05,309.74 643.73,306.39 643.53,306.19 C 643.33,305.99 639.41,306.75 634.83,307.87 C 630.25,309.00 623.26,310.21 619.30,310.58 C 612.39,311.22 612.07,311.37 611.03,314.35 C 607.83,323.51 594.94,328.07 591.18,321.36 C 590.32,319.82 589.53,320.31 584.81,325.30 C 580.45,329.92 578.82,331.00 576.23,331.00 C 572.27,331.00 571.44,328.56 572.41,319.66 C 574.36,301.78 574.40,299.43 572.73,300.81 C 570.45,302.70 564.40,313.19 554.46,332.50 C 549.64,341.85 544.62,350.96 543.30,352.75 C 540.70,356.27 536.65,357.15 535.61,354.42 Z" fill="black" stroke="none" />
  <path d="M 604.10,316.89 C 608.06,312.65 607.86,310.26 603.39,308.39 C 601.41,307.56 599.66,307.02 599.51,307.19 C 598.21,308.68 595.00,316.35 595.00,317.96 C 595.00,321.35 600.55,320.70 604.10,316.89 Z" fill="black" stroke="none" />
  <path d="M 609.00,304.15 C 609.00,303.68 608.50,301.86 607.88,300.09 C 607.03,297.65 606.26,296.96 604.63,297.20 C 602.95,297.44 602.54,298.12 602.71,300.42 C 602.83,302.02 603.50,303.70 604.21,304.15 C 605.91,305.23 609.00,305.23 609.00,304.15 Z" fill="black" stroke="none" />
  <path d="M 591.05,288.56 C 589.30,286.45 590.62,285.00 594.31,285.00 C 596.06,284.99 598.97,284.10 600.76,283.00 C 603.77,281.17 604.79,279.56 607.91,271.67 C 609.65,267.28 611.48,268.94 611.63,275.03 C 611.74,279.52 612.20,280.77 614.44,282.70 C 615.93,283.99 618.42,285.00 620.09,285.00 C 623.20,285.00 625.04,287.36 623.30,289.10 C 621.50,290.90 613.70,288.86 610.63,285.78 C 607.76,282.92 607.73,282.91 605.62,284.82 C 601.03,288.99 593.10,291.03 591.05,288.56 Z" fill="black" stroke="none" />
  <path d="M 284.92,281.88 C 281.25,280.55 277.99,274.20 277.72,267.85 C 277.55,263.66 277.83,262.50 279.13,262.24 C 280.42,261.97 281.00,263.21 281.86,268.09 C 283.57,277.82 287.67,280.62 292.52,275.38 C 293.86,273.94 295.81,270.45 296.86,267.63 C 298.23,263.98 299.31,262.50 300.64,262.50 C 303.20,262.50 302.72,266.06 299.25,272.90 C 295.32,280.63 290.24,283.82 284.92,281.88 Z" fill="black" stroke="none" />
  <path d="M 620.00,274.40 C 620.00,271.08 629.30,259.99 634.27,257.38 C 636.75,256.08 637.10,256.10 637.67,257.57 C 638.11,258.72 636.89,260.41 633.63,263.19 C 631.07,265.39 627.61,269.16 625.94,271.59 C 622.89,276.01 620.00,277.39 620.00,274.40 Z" fill="black" stroke="none" />
  <path d="M 289.00,259.09 C 289.00,255.09 301.27,242.00 305.02,242.00 C 308.53,242.00 307.95,243.73 303.02,247.88 C 300.32,250.17 296.65,254.05 294.88,256.52 C 291.50,261.22 289.00,262.32 289.00,259.09 Z" fill="black" stroke="none" />
  <path d="M 59.01,258.02 C 58.34,256.76 58.20,252.59 58.63,246.50 C 59.31,236.83 57.47,211.37 55.90,208.84 C 55.25,207.79 54.17,207.89 50.30,209.37 C 43.98,211.78 42.65,211.85 42.22,209.75 C 41.97,208.57 42.77,207.68 44.68,206.99 C 46.23,206.43 49.25,205.20 51.38,204.27 L 55.26,202.58 L 54.57,191.77 C 53.58,176.12 53.84,147.75 55.06,137.95 C 58.98,106.37 69.08,83.93 84.99,71.43 C 90.10,67.41 90.91,66.28 91.66,62.18 C 92.34,58.46 92.93,57.50 94.51,57.50 C 96.14,57.50 96.45,58.09 96.25,60.75 C 96.11,62.54 96.16,64.00 96.37,64.00 C 96.58,64.00 98.72,63.13 101.12,62.07 C 110.40,57.99 120.89,56.73 140.88,57.29 C 153.05,57.63 161.69,58.36 165.82,59.41 C 179.24,62.81 189.09,69.42 193.11,77.73 C 196.64,85.01 196.32,96.21 192.33,105.61 C 180.12,134.37 142.76,165.29 85.97,193.63 C 75.95,198.63 68.91,202.74 68.61,203.77 C 67.59,207.18 65.03,223.63 64.46,230.50 C 64.13,234.35 64.30,241.53 64.83,246.46 C 65.39,251.64 65.43,256.38 64.92,257.71 C 63.84,260.54 60.46,260.72 59.01,258.02 Z" fill="black" stroke="none" />
  <path d="M 63.00,209.51 C 63.51,206.15 63.36,205.00 62.40,205.00 C 60.44,205.00 60.08,206.21 60.70,210.83 C 61.39,215.94 62.08,215.54 63.00,209.51 Z" fill="black" stroke="none" />
  <path d="M 66.18,189.39 C 67.12,184.50 71.54,161.82 76.00,139.00 C 80.45,116.17 85.12,92.24 86.38,85.81 C 88.54,74.68 88.56,74.16 86.80,75.11 C 83.42,76.91 73.13,90.91 69.40,98.77 C 64.67,108.74 60.51,125.35 58.95,140.50 C 57.74,152.27 58.20,191.83 59.63,198.29 C 60.20,200.87 60.40,200.98 62.36,199.68 C 63.95,198.62 64.88,196.12 66.18,189.39 Z" fill="black" stroke="none" />
  <path d="M 93.44,184.68 C 123.88,169.02 147.65,152.51 165.58,134.58 C 194.93,105.24 199.24,81.19 177.44,68.41 C 168.59,63.22 159.34,61.64 137.50,61.58 C 116.14,61.52 111.21,62.28 99.60,67.41 L 94.37,69.73 L 92.63,77.61 C 86.49,105.48 70.00,190.32 70.00,194.04 C 70.00,195.94 70.16,195.96 73.69,194.49 C 75.71,193.64 84.60,189.23 93.44,184.68 Z" fill="black" stroke="none" />
  <path d="M 501.36,218.01 C 500.09,217.50 498.46,215.18 497.36,212.32 C 494.87,205.87 494.87,179.25 497.35,160.00 C 500.26,137.52 510.16,81.43 512.58,73.75 C 512.94,72.61 512.61,72.00 511.63,72.00 C 508.89,72.00 508.74,69.88 511.30,67.17 C 512.68,65.70 514.52,62.77 515.39,60.66 C 517.21,56.25 519.54,56.22 519.42,60.60 C 519.38,62.19 517.22,73.62 514.62,86.00 C 504.64,133.59 499.66,168.62 499.57,192.00 C 499.50,209.10 500.50,213.21 504.88,213.84 C 510.45,214.63 524.01,196.59 541.20,165.50 C 548.37,152.54 551.07,148.50 552.55,148.50 C 554.72,148.50 554.71,148.17 552.86,160.52 C 549.32,184.24 559.02,178.06 578.06,144.45 C 586.24,130.03 589.57,125.27 592.05,124.48 C 594.65,123.66 597.00,125.58 597.00,128.52 C 597.00,129.76 597.75,131.08 598.68,131.43 C 600.95,132.30 603.50,129.55 603.50,126.23 C 603.50,122.86 606.53,121.94 607.50,125.02 C 609.14,130.17 604.87,136.00 599.45,136.00 L 596.28,136.00 L 595.14,146.04 C 593.09,164.04 594.12,174.00 598.01,174.00 C 600.96,174.00 608.39,165.55 613.57,156.32 C 620.05,144.78 622.69,144.98 620.25,156.84 C 618.51,165.31 618.93,172.94 621.21,174.37 C 622.59,175.23 623.56,174.85 626.11,172.47 C 629.69,169.13 639.29,154.63 649.00,137.92 C 655.59,126.57 658.45,123.47 661.30,124.56 C 663.85,125.54 664.16,129.84 662.53,141.45 C 659.82,160.74 660.83,174.00 665.01,174.00 C 667.43,174.00 674.61,165.85 679.37,157.68 C 683.95,149.82 685.59,148.19 687.23,149.83 C 688.51,151.11 686.52,155.26 679.95,165.00 C 670.42,179.15 662.79,182.26 658.38,173.79 C 656.25,169.70 656.04,156.31 657.93,144.00 C 660.22,129.01 659.42,128.89 651.10,143.00 C 638.60,164.18 636.66,167.16 632.13,172.20 C 627.98,176.82 623.44,180.00 621.00,180.00 C 620.40,180.00 618.80,178.90 617.45,177.55 C 615.49,175.58 615.00,174.07 615.00,169.96 C 615.00,167.14 614.60,164.98 614.11,165.17 C 613.62,165.35 611.42,167.79 609.22,170.59 C 601.91,179.87 594.60,181.08 591.45,173.53 C 589.58,169.07 589.60,154.73 591.49,141.54 C 592.27,136.06 592.70,131.36 592.44,131.11 C 591.63,130.29 590.46,132.05 580.53,149.00 C 575.22,158.07 569.43,167.36 567.66,169.63 C 557.31,182.93 549.37,183.05 548.11,169.93 L 547.50,163.50 L 541.58,174.00 C 528.61,196.99 518.24,211.25 510.89,216.19 C 506.50,219.13 504.90,219.44 501.36,218.01 Z" fill="black" stroke="none" />
  <path d="M 188.26,204.75 C 184.17,199.56 187.07,175.17 199.15,113.20 C 204.65,84.97 205.09,81.78 203.65,80.70 C 202.23,79.63 202.43,78.90 205.48,74.00 C 209.46,67.59 211.53,66.90 211.44,72.00 C 211.41,73.92 208.61,89.22 205.24,106.00 C 195.67,153.51 190.98,182.40 191.03,193.50 C 191.06,199.11 191.16,199.37 192.61,197.50 C 193.45,196.40 197.31,189.20 201.18,181.50 C 213.85,156.27 222.50,143.00 226.28,143.00 C 227.09,143.00 228.32,143.68 229.01,144.51 C 230.25,146.01 230.16,149.55 228.40,168.75 C 227.93,173.80 228.07,176.00 228.84,176.00 C 230.27,176.00 236.42,168.21 243.55,157.38 C 251.88,144.73 252.39,145.32 252.45,167.54 C 252.49,183.07 252.75,185.96 254.27,188.29 C 255.44,190.08 256.92,191.00 258.63,191.00 C 264.15,191.00 280.46,170.37 288.93,152.67 C 294.89,140.23 302.50,133.72 308.45,135.98 C 310.55,136.78 311.00,137.61 311.00,140.66 C 311.00,143.78 310.27,145.04 306.30,148.74 C 303.42,151.42 299.93,153.56 297.29,154.27 C 293.70,155.23 292.65,156.10 291.05,159.46 C 288.36,165.12 285.93,177.69 286.99,180.48 C 288.28,183.86 290.23,184.08 295.82,181.49 C 303.99,177.71 316.88,167.70 331.71,153.64 C 336.00,149.58 338.43,147.95 339.57,148.39 C 340.73,148.83 341.04,149.72 340.61,151.43 C 339.08,157.53 338.08,168.78 338.82,171.50 C 341.28,180.46 347.67,173.33 367.87,139.07 C 375.36,126.36 378.85,122.80 381.57,125.06 C 383.39,126.57 383.28,131.92 381.02,151.00 C 379.20,166.40 381.06,175.07 385.87,173.54 C 388.55,172.69 394.62,165.18 400.15,155.87 C 404.26,148.95 407.05,147.06 406.94,151.25 C 406.82,156.13 393.39,174.71 387.96,177.52 C 377.86,182.74 374.06,170.73 377.49,144.44 C 378.46,137.00 379.05,130.72 378.81,130.47 C 378.56,130.23 373.30,138.51 367.10,148.87 C 351.03,175.77 344.51,182.53 338.46,178.57 C 334.77,176.15 333.73,172.52 334.33,164.19 L 334.85,156.89 L 326.68,164.30 C 310.66,178.82 296.41,188.00 289.86,188.00 C 285.41,188.00 282.80,185.02 282.26,179.30 L 281.77,174.23 L 275.63,181.83 C 269.32,189.65 263.44,194.46 258.91,195.53 C 255.12,196.42 250.63,192.27 248.89,186.28 C 248.11,183.59 247.50,177.02 247.50,171.25 C 247.50,165.62 247.26,161.01 246.97,161.00 C 246.67,161.00 245.62,162.37 244.63,164.06 C 241.14,169.96 233.16,178.69 230.10,179.96 C 223.85,182.55 222.20,177.86 224.46,163.95 C 226.15,153.52 226.39,149.00 225.25,149.00 C 223.97,149.00 217.48,160.07 206.34,181.25 C 193.59,205.47 191.24,208.53 188.26,204.75 Z" fill="black" stroke="none" />
  <path d="M 301.61,146.92 C 307.13,142.53 308.51,140.00 305.38,140.00 C 303.56,140.00 296.00,147.16 296.00,148.88 C 296.00,150.71 297.50,150.18 301.61,146.92 Z" fill="black" stroke="none" />
  <path d="M 248.96,141.46 C 247.39,139.56 248.45,138.43 252.65,137.55 C 256.63,136.71 257.72,138.28 255.04,140.96 C 252.60,143.40 250.70,143.55 248.96,141.46 Z" fill="black" stroke="none" />
  <path d="M 294.32,131.40 C 293.60,129.52 295.56,128.04 298.80,128.02 C 302.95,127.99 307.08,125.04 309.06,120.68 C 310.10,118.38 310.97,115.74 310.98,114.81 C 310.99,113.88 311.49,112.82 312.09,112.45 C 314.05,111.23 315.41,113.92 315.13,118.47 C 314.90,122.14 315.31,123.40 317.38,125.47 C 318.77,126.86 321.02,128.00 322.37,128.00 C 325.80,128.00 328.00,128.98 328.00,130.50 C 328.00,134.12 318.21,133.06 314.14,128.99 L 311.41,126.25 L 308.70,128.58 C 304.09,132.55 295.42,134.25 294.32,131.40 Z" fill="black" stroke="none" />
</svg>
