<svg xmlns="http://www.w3.org/2000/svg" viewBox="0 0 630 139" width="630" height="139">
  <path d="M 398.00,70.00 L 399.00,69.00 L 400.00,69.00 L 401.00,69.00 L 402.00,69.00 L 403.00,69.00 L 404.00,69.00 L 405.00,69.00 L 406.00,69.00 L 407.00,70.00 L 407.00,71.00 L 407.00,72.00 L 407.00,73.00 L 407.00,74.00 L 407.00,75.00 L 407.00,76.00 L 407.00,77.00 L 407.00,78.00 L 407.00,79.00 L 407.00,80.00 L 407.00,81.00 L 407.00,82.00 L 406.00,83.00 L 405.00,83.00 L 404.00,84.00 L 403.00,84.00 L 402.00,85.00 L 401.00,85.00 L 400.00,86.00 L 399.00,86.00 L 398.00,87.00 L 397.00,87.00 L 396.00,87.00 L 395.00,87.00 L 394.00,87.00 L 393.00,88.00 L 392.00,88.00 L 391.00,88.00 L 390.00,88.00 L 389.00,88.00 L 388.00,87.00 L 387.00,87.00 L 386.00,87.00 L 385.00,86.00 L 384.00,85.00 L 383.00,84.00 L 383.00,83.00 L 382.00,82.00 L 381.00,81.00 L 381.00,80.00 L 381.00,79.00 L 382.00,78.00 L 382.00,77.00 L 383.00,76.00 L 383.00,75.00 L 384.00,74.00 L 385.00,73.00 L 386.00,72.00 L 387.00,72.00 L 388.00,72.00 L 389.00,71.00 L 390.00,71.00 L 391.00,71.00 L 392.00,71.00 L 393.00,71.00 L 394.00,70.00 L 395.00,70.00 L 396.00,70.00 L 397.00,70.00" fill="none" stroke="black" stroke-width="1" />
  <path d="M 535.00,56.00 L 535.00,57.00 L 535.00,58.00 L 535.00,59.00 L 535.00,60.00 L 535.00,61.00 L 535.00,62.00 L 535.00,63.00 L 535.00,64.00 L 535.00,65.00 L 535.00,66.00 L 535.00,67.00 L 535.00,68.00 L 535.00,69.00 L 535.00,70.00 L 535.00,71.00 L 535.00,72.00 L 535.00,73.00 L 535.00,74.00 L 535.00,75.00 L 535.00,76.00 L 535.00,77.00 L 535.00,78.00 L 535.00,79.00 L 535.00,80.00 L 536.00,81.00 L 536.00,82.00 L 536.00,83.00 L 537.00,84.00 L 538.00,85.00 L 539.00,86.00 L 540.00,86.00 L 541.00,87.00 L 542.00,87.00 L 543.00,87.00 L 544.00,88.00 L 545.00,88.00 L 546.00,88.00 L 547.00,87.00 L 548.00,87.00 L 549.00,87.00 L 550.00,87.00 L 551.00,86.00 L 552.00,86.00 L 553.00,85.00 L 554.00,85.00 L 555.00,84.00 L 556.00,84.00 L 557.00,84.00 L 558.00,83.00 L 559.00,84.00 L 559.00,85.00 L 559.00,86.00 L 559.00,85.00 L 559.00,84.00 L 559.00,83.00 L 559.00,82.00 L 559.00,81.00 L 559.00,80.00 L 559.00,79.00 L 559.00,78.00 L 559.00,77.00 L 559.00,76.00 L 559.00,75.00 L 559.00,74.00 L 559.00,73.00 L 559.00,72.00 L 559.00,71.00 L 559.00,70.00 L 559.00,69.00 L 559.00,68.00 L 559.00,67.00 L 559.00,66.00 L 559.00,65.00 L 559.00,64.00 L 559.00,63.00 L 559.00,62.00 L 559.00,61.00 L 559.00,60.00 L 559.00,59.00 L 559.00,58.00 L 559.00,57.00 L 559.00,56.00 L 559.00,57.00 L 559.00,58.00 L 559.00,59.00 L 559.00,60.00 L 559.00,61.00 L 559.00,62.00 L 559.00,63.00 L 559.00,64.00 L 559.00,65.00 L 559.00,66.00 L 559.00,67.00 L 559.00,68.00 L 559.00,69.00 L 559.00,70.00 L 559.00,71.00 L 559.00,72.00 L 559.00,73.00 L 559.00,74.00 L 559.00,75.00 L 559.00,76.00 L 559.00,77.00 L 559.00,78.00 L 559.00,79.00 L 559.00,80.00 L 559.00,81.00 L 559.00,82.00 L 558.00,83.00 L 557.00,83.00 L 556.00,84.00 L 555.00,84.00 L 554.00,85.00 L 553.00,85.00 L 552.00,86.00 L 551.00,86.00 L 550.00,86.00 L 549.00,87.00 L 548.00,87.00 L 547.00,87.00 L 546.00,88.00 L 545.00,88.00 L 544.00,88.00 L 543.00,87.00 L 542.00,87.00 L 541.00,87.00 L 540.00,86.00 L 539.00,86.00 L 538.00,85.00 L 537.00,84.00 L 537.00,83.00 L 536.00,82.00 L 536.00,81.00 L 535.00,80.00 L 535.00,79.00 L 535.00,78.00 L 535.00,77.00 L 535.00,76.00 L 535.00,75.00 L 535.00,74.00 L 535.00,73.00 L 535.00,72.00 L 535.00,71.00 L 535.00,70.00 L 535.00,69.00 L 535.00,68.00 L 535.00,67.00 L 535.00,66.00 L 535.00,65.00 L 535.00,64.00 L 535.00,63.00 L 535.00,62.00 L 535.00,61.00 L 535.00,60.00 L 535.00,59.00 L 535.00,58.00 L 535.00,57.00" fill="none" stroke="black" stroke-width="1" />
  <path d="M 119.00,56.00 L 119.00,57.00 L 119.00,58.00 L 119.00,59.00 L 119.00,60.00 L 119.00,61.00 L 119.00,62.00 L 119.00,63.00 L 119.00,64.00 L 119.00,65.00 L 119.00,66.00 L 119.00,67.00 L 119.00,68.00 L 119.00,69.00 L 119.00,70.00 L 119.00,71.00 L 119.00,72.00 L 119.00,73.00 L 119.00,74.00 L 119.00,75.00 L 119.00,76.00 L 119.00,77.00 L 119.00,78.00 L 119.00,79.00 L 119.00,80.00 L 120.00,81.00 L 120.00,82.00 L 120.00,83.00 L 121.00,84.00 L 122.00,85.00 L 123.00,86.00 L 124.00,86.00 L 125.00,87.00 L 126.00,87.00 L 127.00,87.00 L 128.00,88.00 L 129.00,88.00 L 130.00,88.00 L 131.00,87.00 L 132.00,87.00 L 133.00,87.00 L 134.00,87.00 L 135.00,86.00 L 136.00,86.00 L 137.00,85.00 L 138.00,85.00 L 139.00,84.00 L 140.00,84.00 L 141.00,84.00 L 142.00,83.00 L 143.00,84.00 L 143.00,85.00 L 143.00,86.00 L 143.00,85.00 L 143.00,84.00 L 143.00,83.00 L 143.00,82.00 L 143.00,81.00 L 143.00,80.00 L 143.00,79.00 L 143.00,78.00 L 143.00,77.00 L 143.00,76.00 L 143.00,75.00 L 143.00,74.00 L 143.00,73.00 L 143.00,72.00 L 143.00,71.00 L 143.00,70.00 L 143.00,69.00 L 143.00,68.00 L 143.00,67.00 L 143.00,66.00 L 143.00,65.00 L 143.00,64.00 L 143.00,63.00 L 143.00,62.00 L 143.00,61.00 L 143.00,60.00 L 143.00,59.00 L 143.00,58.00 L 143.00,57.00 L 143.00,56.00 L 143.00,57.00 L 143.00,58.00 L 143.00,59.00 L 143.00,60.00 L 143.00,61.00 L 143.00,62.00 L 143.00,63.00 L 143.00,64.00 L 143.00,65.00 L 143.00,66.00 L 143.00,67.00 L 143.00,68.00 L 143.00,69.00 L 143.00,70.00 L 143.00,71.00 L 143.00,72.00 L 143.00,73.00 L 143.00,74.00 L 143.00,75.00 L 143.00,76.00 L 143.00,77.00 L 143.00,78.00 L 143.00,79.00 L 143.00,80.00 L 143.00,81.00 L 143.00,82.00 L 142.00,83.00 L 141.00,83.00 L 140.00,84.00 L 139.00,84.00 L 138.00,85.00 L 137.00,85.00 L 136.00,86.00 L 135.00,86.00 L 134.00,86.00 L 133.00,87.00 L 132.00,87.00 L 131.00,87.00 L 130.00,88.00 L 129.00,88.00 L 128.00,88.00 L 127.00,87.00 L 126.00,87.00 L 125.00,87.00 L 124.00,86.00 L 123.00,86.00 L 122.00,85.00 L 121.00,84.00 L 121.00,83.00 L 120.00,82.00 L 120.00,81.00 L 119.00,80.00 L 119.00,79.00 L 119.00,78.00 L 119.00,77.00 L 119.00,76.00 L 119.00,75.00 L 119.00,74.00 L 119.00,73.00 L 119.00,72.00 L 119.00,71.00 L 119.00,70.00 L 119.00,69.00 L 119.00,68.00 L 119.00,67.00 L 119.00,66.00 L 119.00,65.00 L 119.00,64.00 L 119.00,63.00 L 119.00,62.00 L 119.00,61.00 L 119.00,60.00 L 119.00,59.00 L 119.00,58.00 L 119.00,57.00" fill="none" stroke="black" stroke-width="1" />
  <path d="M 203.00,55.00 L 204.00,54.00 L 205.00,54.00 L 206.00,54.00 L 207.00,54.00 L 208.00,54.00 L 209.00,54.00 L 210.00,54.00 L 211.00,54.00 L 212.00,55.00 L 213.00,55.00 L 214.00,56.00 L 215.00,56.00 L 216.00,57.00 L 217.00,58.00 L 218.00,59.00 L 219.00,60.00 L 219.00,61.00 L 220.00,62.00 L 220.00,63.00 L 220.00,64.00 L 220.00,65.00 L 220.00,66.00 L 220.00,67.00 L 221.00,68.00 L 220.00,69.00 L 219.00,70.00 L 218.00,70.00 L 217.00,70.00 L 216.00,70.00 L 215.00,70.00 L 214.00,70.00 L 213.00,70.00 L 212.00,70.00 L 211.00,70.00 L 210.00,70.00 L 209.00,70.00 L 208.00,70.00 L 207.00,70.00 L 206.00,70.00 L 205.00,70.00 L 204.00,70.00 L 203.00,70.00 L 202.00,70.00 L 201.00,70.00 L 200.00,70.00 L 199.00,70.00 L 198.00,70.00 L 197.00,70.00 L 196.00,70.00 L 195.00,70.00 L 194.00,69.00 L 194.00,68.00 L 194.00,67.00 L 194.00,66.00 L 194.00,65.00 L 195.00,64.00 L 195.00,63.00 L 195.00,62.00 L 196.00,61.00 L 196.00,60.00 L 197.00,59.00 L 198.00,58.00 L 199.00,57.00 L 200.00,56.00 L 201.00,56.00 L 202.00,55.00" fill="none" stroke="black" stroke-width="1" />
  <path d="M 183.00,55.00 L 182.00,56.00 L 182.00,57.00 L 182.00,58.00 L 181.00,59.00 L 181.00,60.00 L 180.00,61.00 L 180.00,62.00 L 180.00,63.00 L 179.00,64.00 L 179.00,65.00 L 179.00,66.00 L 178.00,67.00 L 178.00,68.00 L 177.00,69.00 L 177.00,70.00 L 177.00,71.00 L 176.00,72.00 L 176.00,73.00 L 176.00,74.00 L 175.00,75.00 L 175.00,76.00 L 174.00,77.00 L 174.00,78.00 L 174.00,79.00 L 173.00,80.00 L 173.00,81.00 L 173.00,82.00 L 172.00,83.00 L 171.00,84.00 L 170.00,84.00 L 169.00,84.00 L 168.00,84.00 L 167.00,83.00 L 167.00,82.00 L 167.00,81.00 L 166.00,80.00 L 166.00,79.00 L 166.00,78.00 L 165.00,77.00 L 165.00,76.00 L 164.00,75.00 L 164.00,74.00 L 164.00,73.00 L 163.00,72.00 L 163.00,71.00 L 163.00,70.00 L 162.00,69.00 L 162.00,68.00 L 162.00,67.00 L 161.00,66.00 L 161.00,65.00 L 160.00,64.00 L 160.00,63.00 L 160.00,62.00 L 159.00,61.00 L 159.00,60.00 L 159.00,59.00 L 158.00,58.00 L 158.00,57.00 L 158.00,56.00 L 158.00,57.00 L 158.00,58.00 L 158.00,59.00 L 159.00,60.00 L 159.00,61.00 L 160.00,62.00 L 160.00,63.00 L 160.00,64.00 L 161.00,65.00 L 161.00,66.00 L 162.00,67.00 L 162.00,68.00 L 162.00,69.00 L 163.00,70.00 L 163.00,71.00 L 163.00,72.00 L 164.00,73.00 L 164.00,74.00 L 164.00,75.00 L 165.00,76.00 L 165.00,77.00 L 166.00,78.00 L 166.00,79.00 L 166.00,80.00 L 167.00,81.00 L 167.00,82.00 L 167.00,83.00 L 168.00,84.00 L 169.00,84.00 L 170.00,85.00 L 170.00,86.00 L 169.00,87.00 L 169.00,88.00 L 169.00,89.00 L 169.00,90.00 L 169.00,91.00 L 169.00,92.00 L 168.00,93.00 L 168.00,94.00 L 167.00,95.00 L 167.00,96.00 L 166.00,97.00 L 166.00,98.00 L 165.00,99.00 L 164.00,100.00 L 163.00,101.00 L 162.00,101.00 L 161.00,101.00 L 160.00,101.00 L 159.00,101.00 L 160.00,101.00 L 161.00,101.00 L 162.00,101.00 L 163.00,101.00 L 164.00,100.00 L 165.00,99.00 L 166.00,99.00 L 166.00,98.00 L 167.00,97.00 L 167.00,96.00 L 167.00,95.00 L 168.00,94.00 L 168.00,93.00 L 169.00,92.00 L 169.00,91.00 L 169.00,90.00 L 169.00,89.00 L 169.00,88.00 L 169.00,87.00 L 170.00,86.00 L 170.00,85.00 L 171.00,84.00 L 172.00,84.00 L 172.00,83.00 L 173.00,82.00 L 173.00,81.00 L 173.00,80.00 L 174.00,79.00 L 174.00,78.00 L 174.00,77.00 L 175.00,76.00 L 175.00,75.00 L 176.00,74.00 L 176.00,73.00 L 176.00,72.00 L 177.00,71.00 L 177.00,70.00 L 177.00,69.00 L 178.00,68.00 L 178.00,67.00 L 179.00,66.00 L 179.00,65.00 L 179.00,64.00 L 180.00,63.00 L 180.00,62.00 L 180.00,61.00 L 181.00,60.00 L 181.00,59.00 L 182.00,58.00 L 182.00,57.00 L 182.00,56.00" fill="none" stroke="black" stroke-width="1" />
  <path d="M 86.00,55.00 L 87.00,54.00 L 88.00,54.00 L 89.00,54.00 L 90.00,54.00 L 91.00,54.00 L 92.00,54.00 L 93.00,54.00 L 94.00,55.00 L 95.00,55.00 L 96.00,56.00 L 97.00,56.00 L 98.00,57.00 L 99.00,57.00 L 100.00,58.00 L 101.00,58.00 L 102.00,58.00 L 103.00,59.00 L 103.00,60.00 L 103.00,61.00 L 103.00,62.00 L 103.00,63.00 L 103.00,64.00 L 103.00,65.00 L 103.00,66.00 L 103.00,67.00 L 103.00,68.00 L 103.00,69.00 L 103.00,70.00 L 103.00,71.00 L 103.00,72.00 L 103.00,73.00 L 103.00,74.00 L 103.00,75.00 L 103.00,76.00 L 103.00,77.00 L 103.00,78.00 L 103.00,79.00 L 103.00,80.00 L 103.00,81.00 L 103.00,82.00 L 102.00,83.00 L 101.00,83.00 L 100.00,84.00 L 99.00,84.00 L 98.00,84.00 L 97.00,85.00 L 96.00,85.00 L 95.00,85.00 L 94.00,86.00 L 93.00,86.00 L 92.00,86.00 L 91.00,87.00 L 90.00,87.00 L 89.00,87.00 L 88.00,87.00 L 87.00,86.00 L 86.00,86.00 L 85.00,86.00 L 84.00,85.00 L 83.00,84.00 L 82.00,83.00 L 81.00,83.00 L 80.00,82.00 L 80.00,81.00 L 79.00,80.00 L 79.00,79.00 L 78.00,78.00 L 78.00,77.00 L 78.00,76.00 L 77.00,75.00 L 77.00,74.00 L 77.00,73.00 L 77.00,72.00 L 77.00,71.00 L 77.00,70.00 L 77.00,69.00 L 77.00,68.00 L 77.00,67.00 L 78.00,66.00 L 78.00,65.00 L 78.00,64.00 L 78.00,63.00 L 79.00,62.00 L 79.00,61.00 L 80.00,60.00 L 81.00,59.00 L 82.00,58.00 L 83.00,57.00 L 84.00,56.00 L 85.00,55.00" fill="none" stroke="black" stroke-width="1" />
  <path d="M 437.00,54.00 L 436.00,55.00 L 435.00,55.00 L 434.00,55.00 L 433.00,55.00 L 432.00,55.00 L 431.00,56.00 L 430.00,56.00 L 429.00,57.00 L 428.00,58.00 L 427.00,58.00 L 426.00,59.00 L 425.00,59.00 L 424.00,59.00 L 423.00,58.00 L 423.00,57.00 L 423.00,56.00 L 423.00,55.00 L 423.00,56.00 L 423.00,57.00 L 423.00,58.00 L 423.00,59.00 L 424.00,60.00 L 424.00,61.00 L 423.00,62.00 L 423.00,63.00 L 423.00,64.00 L 423.00,65.00 L 423.00,66.00 L 423.00,67.00 L 423.00,68.00 L 423.00,69.00 L 423.00,70.00 L 423.00,71.00 L 423.00,72.00 L 423.00,73.00 L 423.00,74.00 L 423.00,75.00 L 423.00,76.00 L 423.00,77.00 L 423.00,78.00 L 423.00,79.00 L 423.00,80.00 L 423.00,81.00 L 423.00,82.00 L 423.00,83.00 L 423.00,84.00 L 423.00,85.00 L 423.00,86.00 L 423.00,85.00 L 423.00,84.00 L 423.00,83.00 L 423.00,82.00 L 423.00,81.00 L 423.00,80.00 L 423.00,79.00 L 423.00,78.00 L 423.00,77.00 L 423.00,76.00 L 423.00,75.00 L 423.00,74.00 L 423.00,73.00 L 423.00,72.00 L 423.00,71.00 L 423.00,70.00 L 423.00,69.00 L 423.00,68.00 L 423.00,67.00 L 423.00,66.00 L 423.00,65.00 L 423.00,64.00 L 423.00,63.00 L 423.00,62.00 L 424.00,61.00 L 424.00,60.00 L 425.00,59.00 L 426.00,59.00 L 427.00,58.00 L 428.00,58.00 L 429.00,58.00 L 430.00,57.00 L 431.00,56.00 L 432.00,55.00 L 433.00,55.00 L 434.00,55.00 L 435.00,55.00 L 436.00,55.00 L 437.00,54.00 L 438.00,54.00 L 439.00,55.00 L 440.00,55.00 L 441.00,55.00 L 442.00,55.00 L 443.00,56.00 L 444.00,56.00 L 445.00,57.00 L 445.00,58.00 L 446.00,59.00 L 447.00,60.00 L 447.00,61.00 L 447.00,62.00 L 447.00,63.00 L 447.00,64.00 L 447.00,65.00 L 447.00,66.00 L 447.00,67.00 L 447.00,68.00 L 447.00,69.00 L 447.00,70.00 L 447.00,71.00 L 447.00,72.00 L 447.00,73.00 L 447.00,74.00 L 447.00,75.00 L 447.00,76.00 L 447.00,77.00 L 447.00,78.00 L 447.00,79.00 L 447.00,80.00 L 447.00,81.00 L 447.00,82.00 L 447.00,83.00 L 447.00,84.00 L 447.00,85.00 L 447.00,86.00 L 447.00,85.00 L 447.00,84.00 L 447.00,83.00 L 447.00,82.00 L 447.00,81.00 L 447.00,80.00 L 447.00,79.00 L 447.00,78.00 L 447.00,77.00 L 447.00,76.00 L 447.00,75.00 L 447.00,74.00 L 447.00,73.00 L 447.00,72.00 L 447.00,71.00 L 447.00,70.00 L 447.00,69.00 L 447.00,68.00 L 447.00,67.00 L 447.00,66.00 L 447.00,65.00 L 447.00,64.00 L 447.00,63.00 L 447.00,62.00 L 447.00,61.00 L 447.00,60.00 L 446.00,59.00 L 446.00,58.00 L 445.00,57.00 L 444.00,56.00 L 443.00,56.00 L 442.00,55.00 L 441.00,55.00 L 440.00,55.00 L 439.00,55.00 L 438.00,54.00" fill="none" stroke="black" stroke-width="1" />
  <path d="M 390.00,54.00 L 389.00,55.00 L 388.00,55.00 L 387.00,56.00 L 386.00,56.00 L 385.00,57.00 L 385.00,58.00 L 384.00,59.00 L 384.00,60.00 L 383.00,61.00 L 382.00,61.00 L 383.00,61.00 L 384.00,60.00 L 384.00,59.00 L 385.00,58.00 L 386.00,57.00 L 387.00,56.00 L 388.00,56.00 L 389.00,55.00 L 390.00,55.00 L 391.00,54.00 L 392.00,54.00 L 393.00,54.00 L 394.00,54.00 L 395.00,54.00 L 396.00,54.00 L 397.00,54.00 L 398.00,54.00 L 399.00,54.00 L 400.00,54.00 L 401.00,55.00 L 402.00,55.00 L 403.00,55.00 L 404.00,56.00 L 405.00,57.00 L 406.00,58.00 L 406.00,59.00 L 407.00,60.00 L 407.00,61.00 L 407.00,62.00 L 407.00,63.00 L 407.00,64.00 L 407.00,65.00 L 407.00,66.00 L 407.00,67.00 L 407.00,68.00 L 406.00,69.00 L 405.00,69.00 L 404.00,69.00 L 403.00,69.00 L 402.00,69.00 L 401.00,69.00 L 400.00,69.00 L 399.00,69.00 L 398.00,70.00 L 397.00,70.00 L 396.00,70.00 L 395.00,70.00 L 394.00,70.00 L 393.00,71.00 L 392.00,71.00 L 391.00,71.00 L 390.00,71.00 L 389.00,71.00 L 388.00,72.00 L 387.00,72.00 L 386.00,72.00 L 385.00,73.00 L 384.00,74.00 L 383.00,75.00 L 382.00,76.00 L 382.00,77.00 L 382.00,78.00 L 381.00,79.00 L 381.00,80.00 L 381.00,81.00 L 382.00,82.00 L 382.00,83.00 L 383.00,84.00 L 383.00,85.00 L 384.00,85.00 L 385.00,86.00 L 386.00,87.00 L 387.00,87.00 L 388.00,87.00 L 389.00,88.00 L 390.00,88.00 L 391.00,88.00 L 392.00,88.00 L 393.00,88.00 L 394.00,87.00 L 395.00,87.00 L 396.00,87.00 L 397.00,87.00 L 398.00,87.00 L 399.00,86.00 L 400.00,86.00 L 401.00,85.00 L 402.00,85.00 L 403.00,84.00 L 404.00,84.00 L 405.00,84.00 L 406.00,83.00 L 407.00,83.00 L 408.00,84.00 L 408.00,85.00 L 408.00,86.00 L 408.00,87.00 L 409.00,87.00 L 410.00,88.00 L 411.00,89.00 L 410.00,88.00 L 409.00,87.00 L 408.00,86.00 L 408.00,85.00 L 408.00,84.00 L 407.00,83.00 L 407.00,82.00 L 407.00,81.00 L 407.00,80.00 L 407.00,79.00 L 407.00,78.00 L 407.00,77.00 L 407.00,76.00 L 407.00,75.00 L 407.00,74.00 L 407.00,73.00 L 407.00,72.00 L 407.00,71.00 L 407.00,70.00 L 407.00,69.00 L 407.00,68.00 L 407.00,67.00 L 407.00,66.00 L 407.00,65.00 L 407.00,64.00 L 407.00,63.00 L 407.00,62.00 L 407.00,61.00 L 407.00,60.00 L 406.00,59.00 L 406.00,58.00 L 405.00,57.00 L 404.00,56.00 L 403.00,55.00 L 402.00,55.00 L 401.00,55.00 L 400.00,54.00 L 399.00,54.00 L 398.00,54.00 L 397.00,54.00 L 396.00,54.00 L 395.00,54.00 L 394.00,54.00 L 393.00,54.00 L 392.00,54.00 L 391.00,54.00" fill="none" stroke="black" stroke-width="1" />
  <path d="M 249.00,54.00 L 248.00,55.00 L 247.00,55.00 L 246.00,55.00 L 245.00,55.00 L 244.00,55.00 L 243.00,56.00 L 242.00,56.00 L 241.00,57.00 L 240.00,58.00 L 239.00,58.00 L 238.00,59.00 L 237.00,59.00 L 236.00,59.00 L 235.00,58.00 L 235.00,57.00 L 235.00,56.00 L 235.00,55.00 L 235.00,56.00 L 235.00,57.00 L 235.00,58.00 L 235.00,59.00 L 236.00,60.00 L 236.00,61.00 L 235.00,62.00 L 235.00,63.00 L 235.00,64.00 L 235.00,65.00 L 235.00,66.00 L 235.00,67.00 L 235.00,68.00 L 235.00,69.00 L 235.00,70.00 L 235.00,71.00 L 235.00,72.00 L 235.00,73.00 L 235.00,74.00 L 235.00,75.00 L 235.00,76.00 L 235.00,77.00 L 235.00,78.00 L 235.00,79.00 L 235.00,80.00 L 235.00,81.00 L 235.00,82.00 L 235.00,83.00 L 235.00,84.00 L 235.00,85.00 L 235.00,86.00 L 235.00,85.00 L 235.00,84.00 L 235.00,83.00 L 235.00,82.00 L 235.00,81.00 L 235.00,80.00 L 235.00,79.00 L 235.00,78.00 L 235.00,77.00 L 235.00,76.00 L 235.00,75.00 L 235.00,74.00 L 235.00,73.00 L 235.00,72.00 L 235.00,71.00 L 235.00,70.00 L 235.00,69.00 L 235.00,68.00 L 235.00,67.00 L 235.00,66.00 L 235.00,65.00 L 235.00,64.00 L 235.00,63.00 L 235.00,62.00 L 236.00,61.00 L 236.00,60.00 L 237.00,59.00 L 238.00,59.00 L 239.00,58.00 L 240.00,58.00 L 241.00,58.00 L 242.00,57.00 L 243.00,56.00 L 244.00,55.00 L 245.00,55.00 L 246.00,55.00 L 247.00,55.00 L 248.00,55.00 L 249.00,54.00 L 250.00,54.00 L 251.00,55.00 L 252.00,55.00 L 253.00,55.00 L 254.00,55.00 L 255.00,56.00 L 256.00,56.00 L 257.00,57.00 L 257.00,58.00 L 258.00,59.00 L 259.00,60.00 L 259.00,61.00 L 259.00,62.00 L 259.00,63.00 L 259.00,64.00 L 259.00,65.00 L 259.00,66.00 L 259.00,67.00 L 259.00,68.00 L 259.00,69.00 L 259.00,70.00 L 259.00,71.00 L 259.00,72.00 L 259.00,73.00 L 259.00,74.00 L 259.00,75.00 L 259.00,76.00 L 259.00,77.00 L 259.00,78.00 L 259.00,79.00 L 259.00,80.00 L 259.00,81.00 L 259.00,82.00 L 259.00,83.00 L 259.00,84.00 L 259.00,85.00 L 259.00,86.00 L 259.00,85.00 L 259.00,84.00 L 259.00,83.00 L 259.00,82.00 L 259.00,81.00 L 259.00,80.00 L 259.00,79.00 L 259.00,78.00 L 259.00,77.00 L 259.00,76.00 L 259.00,75.00 L 259.00,74.00 L 259.00,73.00 L 259.00,72.00 L 259.00,71.00 L 259.00,70.00 L 259.00,69.00 L 259.00,68.00 L 259.00,67.00 L 259.00,66.00 L 259.00,65.00 L 259.00,64.00 L 259.00,63.00 L 259.00,62.00 L 259.00,61.00 L 259.00,60.00 L 258.00,59.00 L 258.00,58.00 L 257.00,57.00 L 256.00,56.00 L 255.00,56.00 L 254.00,55.00 L 253.00,55.00 L 252.00,55.00 L 251.00,55.00 L 250.00,54.00" fill="none" stroke="black" stroke-width="1" />
  <path d="M 204.00,54.00 L 203.00,55.00 L 202.00,55.00 L 201.00,55.00 L 200.00,56.00 L 199.00,57.00 L 198.00,58.00 L 197.00,59.00 L 196.00,60.00 L 196.00,61.00 L 195.00,62.00 L 195.00,63.00 L 195.00,64.00 L 194.00,65.00 L 194.00,66.00 L 194.00,67.00 L 194.00,68.00 L 194.00,69.00 L 193.00,70.00 L 193.00,71.00 L 193.00,72.00 L 193.00,73.00 L 193.00,74.00 L 193.00,75.00 L 194.00,76.00 L 194.00,77.00 L 194.00,78.00 L 195.00,79.00 L 195.00,80.00 L 196.00,81.00 L 196.00,82.00 L 197.00,83.00 L 198.00,84.00 L 199.00,85.00 L 200.00,86.00 L 201.00,86.00 L 202.00,86.00 L 203.00,87.00 L 204.00,87.00 L 205.00,87.00 L 206.00,88.00 L 207.00,88.00 L 208.00,88.00 L 209.00,88.00 L 210.00,88.00 L 211.00,87.00 L 212.00,87.00 L 213.00,87.00 L 214.00,86.00 L 215.00,86.00 L 216.00,86.00 L 217.00,85.00 L 218.00,84.00 L 219.00,83.00 L 219.00,82.00 L 220.00,81.00 L 221.00,80.00 L 220.00,81.00 L 219.00,82.00 L 219.00,83.00 L 218.00,84.00 L 217.00,85.00 L 216.00,85.00 L 215.00,86.00 L 214.00,86.00 L 213.00,87.00 L 212.00,87.00 L 211.00,87.00 L 210.00,88.00 L 209.00,88.00 L 208.00,88.00 L 207.00,88.00 L 206.00,88.00 L 205.00,87.00 L 204.00,87.00 L 203.00,87.00 L 202.00,86.00 L 201.00,86.00 L 200.00,85.00 L 199.00,85.00 L 198.00,84.00 L 197.00,83.00 L 196.00,82.00 L 196.00,81.00 L 195.00,80.00 L 195.00,79.00 L 195.00,78.00 L 194.00,77.00 L 194.00,76.00 L 193.00,75.00 L 193.00,74.00 L 193.00,73.00 L 193.00,72.00 L 193.00,71.00 L 194.00,70.00 L 195.00,70.00 L 196.00,70.00 L 197.00,70.00 L 198.00,70.00 L 199.00,70.00 L 200.00,70.00 L 201.00,70.00 L 202.00,70.00 L 203.00,70.00 L 204.00,70.00 L 205.00,70.00 L 206.00,70.00 L 207.00,70.00 L 208.00,70.00 L 209.00,70.00 L 210.00,70.00 L 211.00,70.00 L 212.00,70.00 L 213.00,70.00 L 214.00,70.00 L 215.00,70.00 L 216.00,70.00 L 217.00,70.00 L 218.00,70.00 L 219.00,70.00 L 220.00,69.00 L 221.00,68.00 L 220.00,67.00 L 220.00,66.00 L 220.00,65.00 L 220.00,64.00 L 220.00,63.00 L 220.00,62.00 L 219.00,61.00 L 219.00,60.00 L 218.00,59.00 L 217.00,58.00 L 217.00,57.00 L 216.00,56.00 L 215.00,56.00 L 214.00,55.00 L 213.00,55.00 L 212.00,54.00 L 211.00,54.00 L 210.00,54.00 L 209.00,54.00 L 208.00,54.00 L 207.00,54.00 L 206.00,54.00 L 205.00,54.00" fill="none" stroke="black" stroke-width="1" />
  <path d="M 87.00,54.00 L 86.00,55.00 L 85.00,55.00 L 84.00,55.00 L 83.00,56.00 L 82.00,57.00 L 81.00,58.00 L 80.00,59.00 L 80.00,60.00 L 79.00,61.00 L 79.00,62.00 L 78.00,63.00 L 78.00,64.00 L 78.00,65.00 L 78.00,66.00 L 77.00,67.00 L 77.00,68.00 L 77.00,69.00 L 77.00,70.00 L 77.00,71.00 L 77.00,72.00 L 77.00,73.00 L 77.00,74.00 L 77.00,75.00 L 78.00,76.00 L 78.00,77.00 L 78.00,78.00 L 79.00,79.00 L 79.00,80.00 L 80.00,81.00 L 80.00,82.00 L 81.00,83.00 L 82.00,84.00 L 83.00,85.00 L 84.00,85.00 L 85.00,86.00 L 86.00,86.00 L 87.00,86.00 L 88.00,87.00 L 89.00,87.00 L 90.00,87.00 L 91.00,87.00 L 92.00,86.00 L 93.00,86.00 L 94.00,86.00 L 95.00,86.00 L 96.00,85.00 L 97.00,85.00 L 98.00,84.00 L 99.00,84.00 L 100.00,84.00 L 101.00,83.00 L 102.00,83.00 L 103.00,84.00 L 103.00,85.00 L 103.00,86.00 L 103.00,87.00 L 103.00,88.00 L 103.00,89.00 L 103.00,90.00 L 103.00,91.00 L 103.00,92.00 L 103.00,93.00 L 103.00,94.00 L 102.00,95.00 L 102.00,96.00 L 101.00,97.00 L 100.00,98.00 L 99.00,99.00 L 98.00,100.00 L 97.00,100.00 L 96.00,101.00 L 95.00,101.00 L 94.00,101.00 L 93.00,101.00 L 92.00,102.00 L 91.00,102.00 L 90.00,102.00 L 89.00,102.00 L 88.00,102.00 L 87.00,102.00 L 86.00,101.00 L 85.00,101.00 L 84.00,101.00 L 83.00,100.00 L 82.00,100.00 L 81.00,99.00 L 80.00,98.00 L 79.00,97.00 L 79.00,96.00 L 78.00,95.00 L 79.00,96.00 L 79.00,97.00 L 80.00,98.00 L 80.00,99.00 L 81.00,99.00 L 82.00,100.00 L 83.00,100.00 L 84.00,101.00 L 85.00,101.00 L 86.00,101.00 L 87.00,102.00 L 88.00,102.00 L 89.00,102.00 L 90.00,102.00 L 91.00,102.00 L 92.00,102.00 L 93.00,101.00 L 94.00,101.00 L 95.00,101.00 L 96.00,101.00 L 97.00,100.00 L 98.00,100.00 L 99.00,99.00 L 100.00,99.00 L 100.00,98.00 L 101.00,97.00 L 102.00,96.00 L 102.00,95.00 L 103.00,94.00 L 103.00,93.00 L 103.00,92.00 L 103.00,91.00 L 103.00,90.00 L 103.00,89.00 L 103.00,88.00 L 103.00,87.00 L 103.00,86.00 L 103.00,85.00 L 103.00,84.00 L 103.00,83.00 L 103.00,82.00 L 103.00,81.00 L 103.00,80.00 L 103.00,79.00 L 103.00,78.00 L 103.00,77.00 L 103.00,76.00 L 103.00,75.00 L 103.00,74.00 L 103.00,73.00 L 103.00,72.00 L 103.00,71.00 L 103.00,70.00 L 103.00,69.00 L 103.00,68.00 L 103.00,67.00 L 103.00,66.00 L 103.00,65.00 L 103.00,64.00 L 103.00,63.00 L 103.00,62.00 L 103.00,61.00 L 103.00,60.00 L 103.00,59.00 L 103.00,58.00 L 103.00,57.00 L 103.00,56.00 L 103.00,57.00 L 102.00,58.00 L 101.00,58.00 L 100.00,58.00 L 99.00,57.00 L 98.00,57.00 L 97.00,56.00 L 96.00,56.00 L 95.00,55.00 L 94.00,54.00 L 93.00,54.00 L 92.00,54.00 L 91.00,54.00 L 90.00,54.00 L 89.00,54.00 L 88.00,54.00" fill="none" stroke="black" stroke-width="1" />
  <path d="M 485.00,42.00 L 486.00,41.00 L 487.00,41.00 L 488.00,41.00 L 489.00,41.00 L 490.00,41.00 L 491.00,41.00 L 492.00,41.00 L 493.00,41.00 L 494.00,41.00 L 495.00,41.00 L 496.00,41.00 L 497.00,41.00 L 498.00,41.00 L 499.00,41.00 L 500.00,41.00 L 501.00,41.00 L 502.00,41.00 L 503.00,41.00 L 504.00,41.00 L 505.00,42.00 L 506.00,42.00 L 507.00,42.00 L 508.00,43.00 L 509.00,43.00 L 510.00,43.00 L 511.00,44.00 L 512.00,44.00 L 513.00,45.00 L 514.00,46.00 L 515.00,47.00 L 516.00,48.00 L 516.00,49.00 L 517.00,50.00 L 517.00,51.00 L 518.00,52.00 L 518.00,53.00 L 519.00,54.00 L 519.00,55.00 L 519.00,56.00 L 519.00,57.00 L 519.00,58.00 L 519.00,59.00 L 520.00,60.00 L 520.00,61.00 L 520.00,62.00 L 520.00,63.00 L 520.00,64.00 L 520.00,65.00 L 520.00,66.00 L 520.00,67.00 L 520.00,68.00 L 519.00,69.00 L 519.00,70.00 L 519.00,71.00 L 519.00,72.00 L 519.00,73.00 L 518.00,74.00 L 518.00,75.00 L 518.00,76.00 L 517.00,77.00 L 517.00,78.00 L 516.00,79.00 L 516.00,80.00 L 515.00,81.00 L 514.00,82.00 L 513.00,83.00 L 512.00,84.00 L 511.00,84.00 L 510.00,85.00 L 509.00,85.00 L 508.00,85.00 L 507.00,86.00 L 506.00,86.00 L 505.00,86.00 L 504.00,86.00 L 503.00,86.00 L 502.00,86.00 L 501.00,86.00 L 500.00,86.00 L 499.00,86.00 L 498.00,86.00 L 497.00,86.00 L 496.00,86.00 L 495.00,86.00 L 494.00,86.00 L 493.00,86.00 L 492.00,86.00 L 491.00,86.00 L 490.00,86.00 L 489.00,86.00 L 488.00,86.00 L 487.00,86.00 L 486.00,86.00 L 485.00,86.00 L 484.00,85.00 L 484.00,84.00 L 484.00,83.00 L 484.00,82.00 L 484.00,81.00 L 484.00,80.00 L 484.00,79.00 L 484.00,78.00 L 484.00,77.00 L 484.00,76.00 L 484.00,75.00 L 484.00,74.00 L 484.00,73.00 L 484.00,72.00 L 484.00,71.00 L 484.00,70.00 L 484.00,69.00 L 484.00,68.00 L 484.00,67.00 L 484.00,66.00 L 484.00,65.00 L 484.00,64.00 L 484.00,63.00 L 484.00,62.00 L 484.00,61.00 L 484.00,60.00 L 484.00,59.00 L 484.00,58.00 L 484.00,57.00 L 484.00,56.00 L 484.00,55.00 L 484.00,54.00 L 484.00,53.00 L 484.00,52.00 L 484.00,51.00 L 484.00,50.00 L 484.00,49.00 L 484.00,48.00 L 484.00,47.00 L 484.00,46.00 L 484.00,45.00 L 484.00,44.00 L 484.00,43.00" fill="none" stroke="black" stroke-width="1" />
  <path d="M 343.00,42.00 L 343.00,43.00 L 343.00,44.00 L 343.00,45.00 L 343.00,46.00 L 343.00,47.00 L 343.00,48.00 L 343.00,49.00 L 343.00,50.00 L 343.00,51.00 L 343.00,52.00 L 343.00,53.00 L 343.00,54.00 L 343.00,55.00 L 343.00,56.00 L 343.00,57.00 L 343.00,58.00 L 343.00,59.00 L 344.00,60.00 L 344.00,61.00 L 343.00,62.00 L 343.00,63.00 L 343.00,64.00 L 343.00,65.00 L 343.00,66.00 L 343.00,67.00 L 343.00,68.00 L 343.00,69.00 L 343.00,70.00 L 343.00,71.00 L 343.00,72.00 L 343.00,73.00 L 343.00,74.00 L 343.00,75.00 L 343.00,76.00 L 343.00,77.00 L 343.00,78.00 L 343.00,79.00 L 343.00,80.00 L 343.00,81.00 L 343.00,82.00 L 343.00,83.00 L 343.00,84.00 L 343.00,85.00 L 343.00,86.00 L 343.00,85.00 L 343.00,84.00 L 343.00,83.00 L 343.00,82.00 L 343.00,81.00 L 343.00,80.00 L 343.00,79.00 L 343.00,78.00 L 343.00,77.00 L 343.00,76.00 L 343.00,75.00 L 343.00,74.00 L 343.00,73.00 L 343.00,72.00 L 343.00,71.00 L 343.00,70.00 L 343.00,69.00 L 343.00,68.00 L 343.00,67.00 L 343.00,66.00 L 343.00,65.00 L 343.00,64.00 L 343.00,63.00 L 343.00,62.00 L 344.00,61.00 L 344.00,60.00 L 345.00,59.00 L 346.00,59.00 L 347.00,58.00 L 348.00,58.00 L 349.00,58.00 L 350.00,57.00 L 351.00,56.00 L 352.00,55.00 L 353.00,55.00 L 354.00,55.00 L 355.00,54.00 L 356.00,54.00 L 357.00,54.00 L 358.00,54.00 L 359.00,54.00 L 360.00,55.00 L 361.00,55.00 L 362.00,55.00 L 363.00,56.00 L 364.00,56.00 L 365.00,57.00 L 366.00,58.00 L 366.00,59.00 L 367.00,60.00 L 367.00,61.00 L 367.00,62.00 L 367.00,63.00 L 367.00,64.00 L 367.00,65.00 L 367.00,66.00 L 367.00,67.00 L 367.00,68.00 L 367.00,69.00 L 367.00,70.00 L 367.00,71.00 L 367.00,72.00 L 367.00,73.00 L 367.00,74.00 L 367.00,75.00 L 367.00,76.00 L 367.00,77.00 L 367.00,78.00 L 367.00,79.00 L 367.00,80.00 L 367.00,81.00 L 367.00,82.00 L 367.00,83.00 L 367.00,84.00 L 367.00,85.00 L 367.00,86.00 L 367.00,85.00 L 367.00,84.00 L 367.00,83.00 L 367.00,82.00 L 367.00,81.00 L 367.00,80.00 L 367.00,79.00 L 367.00,78.00 L 367.00,77.00 L 367.00,76.00 L 367.00,75.00 L 367.00,74.00 L 367.00,73.00 L 367.00,72.00 L 367.00,71.00 L 367.00,70.00 L 367.00,69.00 L 367.00,68.00 L 367.00,67.00 L 367.00,66.00 L 367.00,65.00 L 367.00,64.00 L 367.00,63.00 L 367.00,62.00 L 367.00,61.00 L 367.00,60.00 L 366.00,59.00 L 366.00,58.00 L 365.00,57.00 L 364.00,56.00 L 363.00,56.00 L 362.00,55.00 L 361.00,55.00 L 360.00,55.00 L 359.00,54.00 L 358.00,54.00 L 357.00,54.00 L 356.00,54.00 L 355.00,54.00 L 354.00,54.00 L 353.00,55.00 L 352.00,55.00 L 351.00,56.00 L 350.00,57.00 L 349.00,57.00 L 348.00,58.00 L 347.00,58.00 L 346.00,59.00 L 345.00,59.00 L 344.00,59.00 L 343.00,58.00 L 343.00,57.00 L 343.00,56.00 L 343.00,55.00 L 343.00,54.00 L 343.00,53.00 L 343.00,52.00 L 343.00,51.00 L 343.00,50.00 L 343.00,49.00 L 343.00,48.00 L 343.00,47.00 L 343.00,46.00 L 343.00,45.00 L 343.00,44.00 L 343.00,43.00" fill="none" stroke="black" stroke-width="1" />
  <path d="M 297.00,42.00 L 298.00,41.00 L 299.00,41.00 L 300.00,41.00 L 301.00,41.00 L 302.00,41.00 L 303.00,41.00 L 304.00,41.00 L 305.00,41.00 L 306.00,41.00 L 307.00,41.00 L 308.00,41.00 L 309.00,41.00 L 310.00,41.00 L 311.00,41.00 L 312.00,41.00 L 313.00,41.00 L 314.00,41.00 L 315.00,41.00 L 316.00,41.00 L 317.00,41.00 L 318.00,42.00 L 319.00,42.00 L 320.00,42.00 L 321.00,42.00 L 322.00,43.00 L 323.00,43.00 L 324.00,44.00 L 325.00,45.00 L 326.00,46.00 L 327.00,47.00 L 328.00,48.00 L 328.00,49.00 L 328.00,50.00 L 328.00,51.00 L 328.00,52.00 L 329.00,53.00 L 329.00,54.00 L 328.00,55.00 L 328.00,56.00 L 328.00,57.00 L 328.00,58.00 L 327.00,59.00 L 327.00,60.00 L 326.00,61.00 L 325.00,62.00 L 324.00,63.00 L 323.00,64.00 L 322.00,64.00 L 321.00,64.00 L 320.00,65.00 L 319.00,65.00 L 318.00,65.00 L 317.00,65.00 L 316.00,65.00 L 315.00,65.00 L 314.00,65.00 L 313.00,65.00 L 312.00,65.00 L 311.00,65.00 L 310.00,65.00 L 309.00,65.00 L 308.00,65.00 L 307.00,65.00 L 306.00,65.00 L 305.00,65.00 L 304.00,65.00 L 303.00,65.00 L 302.00,65.00 L 301.00,65.00 L 300.00,65.00 L 299.00,65.00 L 298.00,65.00 L 297.00,65.00 L 296.00,64.00 L 296.00,63.00 L 296.00,62.00 L 296.00,61.00 L 296.00,60.00 L 296.00,59.00 L 296.00,58.00 L 296.00,57.00 L 296.00,56.00 L 296.00,55.00 L 296.00,54.00 L 296.00,53.00 L 296.00,52.00 L 296.00,51.00 L 296.00,50.00 L 296.00,49.00 L 296.00,48.00 L 296.00,47.00 L 296.00,46.00 L 296.00,45.00 L 296.00,44.00 L 296.00,43.00" fill="none" stroke="black" stroke-width="1" />
  <path d="M 62.00,42.00 L 62.00,43.00 L 62.00,44.00 L 62.00,45.00 L 62.00,46.00 L 62.00,47.00 L 62.00,48.00 L 62.00,49.00 L 62.00,50.00 L 62.00,51.00 L 62.00,52.00 L 62.00,53.00 L 62.00,54.00 L 62.00,55.00 L 62.00,56.00 L 62.00,57.00 L 62.00,58.00 L 62.00,59.00 L 62.00,60.00 L 62.00,61.00 L 62.00,62.00 L 62.00,63.00 L 62.00,64.00 L 62.00,65.00 L 62.00,66.00 L 62.00,67.00 L 62.00,68.00 L 62.00,69.00 L 62.00,70.00 L 62.00,71.00 L 62.00,72.00 L 62.00,73.00 L 62.00,74.00 L 62.00,75.00 L 62.00,76.00 L 62.00,77.00 L 62.00,78.00 L 62.00,79.00 L 62.00,80.00 L 61.00,81.00 L 60.00,81.00 L 59.00,81.00 L 58.00,81.00 L 57.00,80.00 L 56.00,79.00 L 55.00,78.00 L 54.00,77.00 L 54.00,76.00 L 53.00,75.00 L 52.00,74.00 L 52.00,73.00 L 51.00,72.00 L 50.00,71.00 L 50.00,70.00 L 49.00,69.00 L 48.00,68.00 L 48.00,67.00 L 47.00,66.00 L 46.00,65.00 L 46.00,64.00 L 45.00,63.00 L 44.00,62.00 L 44.00,61.00 L 43.00,60.00 L 42.00,59.00 L 41.00,58.00 L 41.00,57.00 L 40.00,56.00 L 39.00,55.00 L 39.00,54.00 L 38.00,53.00 L 37.00,52.00 L 37.00,51.00 L 36.00,50.00 L 35.00,49.00 L 34.00,48.00 L 33.00,48.00 L 32.00,48.00 L 31.00,47.00 L 30.00,46.00 L 29.00,45.00 L 29.00,44.00 L 29.00,43.00 L 29.00,44.00 L 29.00,45.00 L 30.00,46.00 L 29.00,47.00 L 29.00,48.00 L 28.00,49.00 L 28.00,50.00 L 28.00,51.00 L 28.00,52.00 L 28.00,53.00 L 28.00,54.00 L 28.00,55.00 L 28.00,56.00 L 28.00,57.00 L 28.00,58.00 L 28.00,59.00 L 28.00,60.00 L 28.00,61.00 L 28.00,62.00 L 28.00,63.00 L 28.00,64.00 L 28.00,65.00 L 28.00,66.00 L 28.00,67.00 L 28.00,68.00 L 28.00,69.00 L 28.00,70.00 L 28.00,71.00 L 28.00,72.00 L 28.00,73.00 L 28.00,74.00 L 28.00,75.00 L 28.00,76.00 L 28.00,77.00 L 28.00,78.00 L 28.00,79.00 L 28.00,80.00 L 28.00,81.00 L 28.00,82.00 L 28.00,83.00 L 28.00,84.00 L 28.00,85.00 L 28.00,86.00 L 28.00,85.00 L 28.00,84.00 L 28.00,83.00 L 28.00,82.00 L 28.00,81.00 L 28.00,80.00 L 28.00,79.00 L 28.00,78.00 L 28.00,77.00 L 28.00,76.00 L 28.00,75.00 L 28.00,74.00 L 28.00,73.00 L 28.00,72.00 L 28.00,71.00 L 28.00,70.00 L 28.00,69.00 L 28.00,68.00 L 28.00,67.00 L 28.00,66.00 L 28.00,65.00 L 28.00,64.00 L 28.00,63.00 L 28.00,62.00 L 28.00,61.00 L 28.00,60.00 L 28.00,59.00 L 28.00,58.00 L 28.00,57.00 L 28.00,56.00 L 28.00,55.00 L 28.00,54.00 L 28.00,53.00 L 28.00,52.00 L 28.00,51.00 L 28.00,50.00 L 28.00,49.00 L 29.00,48.00 L 30.00,47.00 L 31.00,47.00 L 32.00,48.00 L 33.00,48.00 L 34.00,48.00 L 35.00,49.00 L 36.00,50.00 L 37.00,51.00 L 37.00,52.00 L 38.00,53.00 L 39.00,54.00 L 39.00,55.00 L 40.00,56.00 L 41.00,57.00 L 41.00,58.00 L 42.00,59.00 L 43.00,60.00 L 43.00,61.00 L 44.00,62.00 L 45.00,63.00 L 45.00,64.00 L 46.00,65.00 L 47.00,66.00 L 47.00,67.00 L 48.00,68.00 L 49.00,69.00 L 49.00,70.00 L 50.00,71.00 L 51.00,72.00 L 51.00,73.00 L 52.00,74.00 L 53.00,75.00 L 53.00,76.00 L 54.00,77.00 L 55.00,78.00 L 55.00,79.00 L 56.00,80.00 L 57.00,80.00 L 58.00,81.00 L 59.00,81.00 L 60.00,81.00 L 61.00,82.00 L 61.00,83.00 L 61.00,82.00 L 62.00,81.00 L 62.00,80.00 L 62.00,79.00 L 62.00,78.00 L 62.00,77.00 L 62.00,76.00 L 62.00,75.00 L 62.00,74.00 L 62.00,73.00 L 62.00,72.00 L 62.00,71.00 L 62.00,70.00 L 62.00,69.00 L 62.00,68.00 L 62.00,67.00 L 62.00,66.00 L 62.00,65.00 L 62.00,64.00 L 62.00,63.00 L 62.00,62.00 L 62.00,61.00 L 62.00,60.00 L 62.00,59.00 L 62.00,58.00 L 62.00,57.00 L 62.00,56.00 L 62.00,55.00 L 62.00,54.00 L 62.00,53.00 L 62.00,52.00 L 62.00,51.00 L 62.00,50.00 L 62.00,49.00 L 62.00,48.00 L 62.00,47.00 L 62.00,46.00 L 62.00,45.00 L 62.00,44.00 L 62.00,43.00" fill="none" stroke="black" stroke-width="1" />
  <path d="M 485.00,41.00 L 484.00,42.00 L 484.00,43.00 L 484.00,44.00 L 484.00,45.00 L 484.00,46.00 L 484.00,47.00 L 484.00,48.00 L 484.00,49.00 L 484.00,50.00 L 484.00,51.00 L 484.00,52.00 L 484.00,53.00 L 484.00,54.00 L 484.00,55.00 L 484.00,56.00 L 484.00,57.00 L 484.00,58.00 L 484.00,59.00 L 484.00,60.00 L 484.00,61.00 L 484.00,62.00 L 484.00,63.00 L 484.00,64.00 L 484.00,65.00 L 484.00,66.00 L 484.00,67.00 L 484.00,68.00 L 484.00,69.00 L 484.00,70.00 L 484.00,71.00 L 484.00,72.00 L 484.00,73.00 L 484.00,74.00 L 484.00,75.00 L 484.00,76.00 L 484.00,77.00 L 484.00,78.00 L 484.00,79.00 L 484.00,80.00 L 484.00,81.00 L 484.00,82.00 L 484.00,83.00 L 484.00,84.00 L 484.00,85.00 L 484.00,86.00 L 485.00,86.00 L 486.00,86.00 L 487.00,86.00 L 488.00,86.00 L 489.00,86.00 L 490.00,86.00 L 491.00,86.00 L 492.00,86.00 L 493.00,86.00 L 494.00,86.00 L 495.00,86.00 L 496.00,86.00 L 497.00,86.00 L 498.00,86.00 L 499.00,86.00 L 500.00,86.00 L 501.00,86.00 L 502.00,86.00 L 503.00,86.00 L 504.00,86.00 L 505.00,86.00 L 506.00,86.00 L 507.00,86.00 L 508.00,85.00 L 509.00,85.00 L 510.00,85.00 L 511.00,84.00 L 512.00,84.00 L 513.00,83.00 L 514.00,82.00 L 515.00,81.00 L 516.00,80.00 L 517.00,79.00 L 517.00,78.00 L 518.00,77.00 L 518.00,76.00 L 518.00,75.00 L 518.00,74.00 L 519.00,73.00 L 519.00,72.00 L 519.00,71.00 L 519.00,70.00 L 519.00,69.00 L 520.00,68.00 L 520.00,67.00 L 520.00,66.00 L 520.00,65.00 L 520.00,64.00 L 520.00,63.00 L 520.00,62.00 L 520.00,61.00 L 520.00,60.00 L 519.00,59.00 L 519.00,58.00 L 519.00,57.00 L 519.00,56.00 L 519.00,55.00 L 519.00,54.00 L 518.00,53.00 L 518.00,52.00 L 518.00,51.00 L 517.00,50.00 L 517.00,49.00 L 516.00,48.00 L 515.00,47.00 L 514.00,46.00 L 513.00,45.00 L 512.00,44.00 L 511.00,44.00 L 510.00,43.00 L 509.00,43.00 L 508.00,42.00 L 507.00,42.00 L 506.00,42.00 L 505.00,42.00 L 504.00,41.00 L 503.00,41.00 L 502.00,41.00 L 501.00,41.00 L 500.00,41.00 L 499.00,41.00 L 498.00,41.00 L 497.00,41.00 L 496.00,41.00 L 495.00,41.00 L 494.00,41.00 L 493.00,41.00 L 492.00,41.00 L 491.00,41.00 L 490.00,41.00 L 489.00,41.00 L 488.00,41.00 L 487.00,41.00 L 486.00,41.00" fill="none" stroke="black" stroke-width="1" />
  <path d="M 297.00,41.00 L 296.00,42.00 L 296.00,43.00 L 296.00,44.00 L 296.00,45.00 L 296.00,46.00 L 296.00,47.00 L 296.00,48.00 L 296.00,49.00 L 296.00,50.00 L 296.00,51.00 L 296.00,52.00 L 296.00,53.00 L 296.00,54.00 L 296.00,55.00 L 296.00,56.00 L 296.00,57.00 L 296.00,58.00 L 296.00,59.00 L 296.00,60.00 L 296.00,61.00 L 296.00,62.00 L 296.00,63.00 L 296.00,64.00 L 296.00,65.00 L 296.00,66.00 L 296.00,67.00 L 296.00,68.00 L 296.00,69.00 L 296.00,70.00 L 296.00,71.00 L 296.00,72.00 L 296.00,73.00 L 296.00,74.00 L 296.00,75.00 L 296.00,76.00 L 296.00,77.00 L 296.00,78.00 L 296.00,79.00 L 296.00,80.00 L 296.00,81.00 L 296.00,82.00 L 296.00,83.00 L 296.00,84.00 L 296.00,85.00 L 296.00,86.00 L 296.00,85.00 L 296.00,84.00 L 296.00,83.00 L 296.00,82.00 L 296.00,81.00 L 296.00,80.00 L 296.00,79.00 L 296.00,78.00 L 296.00,77.00 L 296.00,76.00 L 296.00,75.00 L 296.00,74.00 L 296.00,73.00 L 296.00,72.00 L 296.00,71.00 L 296.00,70.00 L 296.00,69.00 L 296.00,68.00 L 296.00,67.00 L 296.00,66.00 L 297.00,65.00 L 298.00,65.00 L 299.00,65.00 L 300.00,65.00 L 301.00,65.00 L 302.00,65.00 L 303.00,65.00 L 304.00,65.00 L 305.00,65.00 L 306.00,65.00 L 307.00,65.00 L 308.00,65.00 L 309.00,65.00 L 310.00,65.00 L 311.00,65.00 L 312.00,65.00 L 313.00,65.00 L 314.00,65.00 L 315.00,65.00 L 316.00,65.00 L 317.00,65.00 L 318.00,65.00 L 319.00,65.00 L 320.00,65.00 L 321.00,65.00 L 322.00,64.00 L 323.00,64.00 L 324.00,63.00 L 325.00,63.00 L 326.00,62.00 L 327.00,61.00 L 327.00,60.00 L 328.00,59.00 L 328.00,58.00 L 328.00,57.00 L 328.00,56.00 L 328.00,55.00 L 329.00,54.00 L 329.00,53.00 L 328.00,52.00 L 328.00,51.00 L 328.00,50.00 L 328.00,49.00 L 328.00,48.00 L 327.00,47.00 L 327.00,46.00 L 326.00,45.00 L 325.00,44.00 L 324.00,43.00 L 323.00,43.00 L 322.00,42.00 L 321.00,42.00 L 320.00,42.00 L 319.00,42.00 L 318.00,42.00 L 317.00,41.00 L 316.00,41.00 L 315.00,41.00 L 314.00,41.00 L 313.00,41.00 L 312.00,41.00 L 311.00,41.00 L 310.00,41.00 L 309.00,41.00 L 308.00,41.00 L 307.00,41.00 L 306.00,41.00 L 305.00,41.00 L 304.00,41.00 L 303.00,41.00 L 302.00,41.00 L 301.00,41.00 L 300.00,41.00 L 299.00,41.00 L 298.00,41.00" fill="none" stroke="black" stroke-width="1" />
  <path d="M 206.00,40.00 L 205.00,41.00 L 204.00,42.00 L 203.00,43.00 L 202.00,44.00 L 202.00,45.00 L 201.00,46.00 L 200.00,46.00 L 199.00,46.00 L 198.00,47.00 L 199.00,46.00 L 200.00,46.00 L 201.00,46.00 L 202.00,45.00 L 203.00,44.00 L 204.00,43.00 L 204.00,42.00 L 205.00,41.00 L 206.00,40.00 L 207.00,40.00 L 208.00,40.00 L 209.00,40.00 L 210.00,41.00 L 210.00,42.00 L 211.00,43.00 L 212.00,44.00 L 212.00,45.00 L 213.00,45.00 L 214.00,46.00 L 213.00,45.00 L 212.00,44.00 L 211.00,43.00 L 211.00,42.00 L 210.00,41.00 L 209.00,40.00 L 208.00,40.00 L 207.00,40.00" fill="none" stroke="black" stroke-width="1" />
  <path d="M 201.00,30.00 L 200.00,31.00 L 199.00,32.00 L 198.00,33.00 L 198.00,34.00 L 198.00,33.00 L 199.00,32.00 L 200.00,31.00 L 201.00,30.00 L 202.00,30.00 L 203.00,30.00 L 204.00,30.00 L 205.00,30.00 L 206.00,31.00 L 207.00,31.00 L 208.00,31.00 L 209.00,32.00 L 210.00,32.00 L 211.00,32.00 L 212.00,33.00 L 213.00,33.00 L 214.00,32.00 L 215.00,32.00 L 216.00,31.00 L 216.00,30.00 L 216.00,31.00 L 215.00,32.00 L 214.00,32.00 L 213.00,33.00 L 212.00,33.00 L 211.00,32.00 L 210.00,32.00 L 209.00,32.00 L 208.00,31.00 L 207.00,31.00 L 206.00,31.00 L 205.00,30.00 L 204.00,30.00 L 203.00,30.00 L 202.00,30.00" fill="none" stroke="black" stroke-width="1" />
</svg>
