<svg xmlns="http://www.w3.org/2000/svg" viewBox="0 0 821 449" width="821" height="449">
  <path d="M 332.00,406.59 C 332.00,406.19 333.83,394.97 336.06,381.68 C 340.06,357.81 340.56,348.00 337.76,348.00 C 337.18,348.00 332.94,350.05 328.35,352.55 C 323.76,355.06 320.00,356.93 320.00,356.72 C 320.00,355.81 330.86,349.00 334.80,347.44 C 338.45,346.00 339.58,344.81 342.25,339.62 C 344.76,334.75 345.62,331.39 346.51,323.15 C 347.12,317.46 347.43,311.51 347.20,309.91 C 346.83,307.36 346.46,307.09 344.14,307.62 C 342.69,307.95 336.10,311.74 329.50,316.04 C 318.48,323.22 316.96,323.91 310.90,324.53 C 304.30,325.20 304.30,325.20 300.68,320.79 C 297.54,316.95 296.87,315.16 295.54,306.94 C 294.70,301.75 294.01,297.23 294.00,296.91 C 294.00,296.59 292.90,295.82 291.56,295.21 C 289.30,294.18 288.72,294.55 283.91,300.10 C 281.05,303.41 277.01,306.98 274.93,308.04 C 272.85,309.10 269.70,311.99 267.92,314.46 C 266.14,316.94 263.89,319.22 262.91,319.53 C 261.94,319.84 259.59,321.68 257.70,323.63 C 255.23,326.18 253.31,327.22 250.88,327.34 C 247.52,327.50 247.50,327.47 247.19,322.62 C 247.02,319.94 247.35,313.88 247.93,309.16 C 248.60,303.72 248.63,300.23 248.03,299.63 C 246.13,297.73 240.39,306.10 229.70,326.38 C 221.37,342.18 218.17,347.33 215.73,348.88 C 213.42,350.33 212.21,350.59 211.28,349.82 C 209.39,348.25 209.69,336.39 211.96,323.21 C 213.03,316.99 213.65,311.24 213.33,310.43 C 212.71,308.81 209.65,309.31 207.00,311.45 C 206.18,312.12 201.64,315.87 196.91,319.80 C 186.00,328.87 179.52,331.98 171.46,331.99 C 165.43,332.00 165.43,332.00 162.27,338.42 C 160.38,342.24 158.27,345.10 157.05,345.48 C 155.83,345.87 154.98,347.02 154.95,348.32 C 154.92,349.66 154.30,348.76 153.33,346.00 C 152.14,342.60 151.92,339.58 152.41,333.66 C 153.12,325.07 166.36,241.19 167.99,234.90 C 168.54,232.76 169.48,229.15 170.07,226.90 C 170.65,224.64 171.31,222.97 171.52,223.19 C 171.73,223.40 171.02,227.02 169.94,231.24 C 167.20,241.92 153.88,328.06 153.73,336.03 C 153.66,339.62 153.94,343.10 154.36,343.77 C 155.65,345.87 159.74,342.25 161.61,337.35 C 162.56,334.87 164.08,331.87 165.00,330.68 C 165.93,329.48 166.91,327.59 167.19,326.47 C 167.71,324.41 191.38,286.33 193.28,284.50 C 194.62,283.21 191.87,287.79 179.26,307.90 C 169.47,323.49 167.03,328.36 168.34,329.68 C 168.67,330.00 171.19,330.21 173.96,330.15 C 180.65,330.00 186.53,326.90 197.57,317.72 C 202.48,313.63 207.98,309.52 209.79,308.59 C 211.60,307.66 213.50,305.91 214.01,304.70 C 215.03,302.26 221.53,269.51 225.50,246.84 C 227.59,234.86 231.63,219.38 231.93,222.19 C 231.97,222.57 229.77,233.82 227.05,247.19 C 224.33,260.56 220.93,278.13 219.51,286.23 C 218.08,294.33 216.24,302.58 215.41,304.55 C 214.59,306.53 214.15,308.90 214.44,309.82 C 214.74,310.75 214.08,316.68 212.99,323.00 C 211.06,334.21 210.35,348.02 211.64,349.31 C 211.99,349.66 213.49,349.24 214.96,348.37 C 216.85,347.25 220.05,342.02 225.80,330.64 C 234.08,314.28 240.56,302.93 243.42,299.75 C 244.29,298.79 246.16,298.00 247.59,298.00 C 250.17,298.00 250.17,298.00 249.53,305.25 C 247.80,324.88 248.58,329.04 253.29,325.38 C 267.57,314.29 271.00,310.25 271.00,304.50 C 271.00,299.82 272.82,296.49 278.31,291.15 C 283.28,286.31 285.84,286.16 287.85,290.57 C 288.49,291.97 290.35,293.58 292.00,294.15 C 293.65,294.73 295.00,295.38 295.00,295.60 C 295.00,295.83 295.68,300.57 296.52,306.14 C 297.81,314.73 298.52,316.87 301.18,320.23 C 304.33,324.20 304.33,324.20 310.91,323.54 C 317.00,322.94 318.34,322.32 328.56,315.41 C 334.64,311.30 340.94,307.58 342.56,307.15 C 344.94,306.53 345.75,305.53 346.82,301.94 C 347.55,299.50 348.56,296.60 349.07,295.50 C 350.03,293.44 349.84,295.67 348.42,303.00 C 347.94,305.51 348.16,306.00 349.81,306.00 C 352.46,306.00 353.95,303.44 359.01,290.24 C 362.69,280.60 364.00,278.33 368.11,274.49 C 373.38,269.57 376.63,268.83 379.43,271.93 C 382.36,275.16 380.55,290.19 376.21,298.63 C 375.04,300.89 373.21,305.06 372.14,307.88 C 370.19,313.00 370.19,313.00 374.11,313.00 C 376.91,313.00 381.49,311.27 390.12,306.94 C 396.77,303.61 402.44,301.10 402.71,301.38 C 403.66,302.32 379.50,313.75 375.00,314.49 C 371.25,315.10 369.32,316.36 363.46,322.01 C 358.71,326.59 355.08,329.20 352.26,330.04 C 348.41,331.19 347.79,331.89 344.38,338.90 C 341.29,345.23 340.71,347.42 340.90,352.00 C 341.11,356.89 333.58,405.75 332.45,406.88 C 332.20,407.13 332.00,407.00 332.00,406.59" fill="none" stroke="black" stroke-width="1.2" stroke-linecap="round" stroke-linejoin="round" />
  <path d="M 363.10,321.37 C 367.08,317.45 369.00,314.66 369.76,311.68 C 370.35,309.38 372.50,303.45 374.54,298.50 C 378.73,288.33 380.95,274.85 378.84,272.31 C 377.22,270.35 373.65,271.38 368.94,275.17 C 365.75,277.74 364.26,280.37 359.88,291.30 C 354.71,304.18 351.97,308.59 349.67,307.70 C 348.85,307.39 348.59,308.65 348.81,311.88 C 348.99,314.42 348.73,319.72 348.25,323.66 L 347.38,330.82 L 352.44,328.85 C 355.55,327.64 359.66,324.75 363.10,321.37" fill="none" stroke="black" stroke-width="1.2" stroke-linecap="round" stroke-linejoin="round" />
  <path d="M 283.15,298.78 C 287.04,294.25 287.62,293.06 286.73,291.44 C 285.64,289.44 284.03,288.04 282.80,288.02 C 282.41,288.01 280.56,290.01 278.68,292.47 C 276.80,294.93 274.95,296.61 274.55,296.22 C 274.16,295.82 273.97,295.95 274.13,296.50 C 274.29,297.05 273.84,298.55 273.13,299.84 C 272.41,301.13 272.10,303.28 272.44,304.61 C 273.01,306.90 273.19,306.95 275.77,305.61 C 277.27,304.82 280.59,301.75 283.15,298.78" fill="none" stroke="black" stroke-width="1.2" stroke-linecap="round" stroke-linejoin="round" />
  <path d="M 536.67,350.33 C 535.57,349.24 535.92,339.25 537.51,326.54 C 539.45,310.95 539.44,308.00 537.41,308.00 C 536.54,308.00 531.70,311.72 526.66,316.26 C 521.62,320.81 513.40,327.11 508.39,330.26 C 500.72,335.10 498.56,336.00 494.68,336.00 C 489.28,336.00 488.00,334.45 488.00,327.96 C 488.00,317.73 496.65,297.15 503.46,291.17 C 509.58,285.80 514.15,287.56 512.07,294.50 C 511.17,297.50 511.17,297.50 511.09,293.75 C 511.01,290.53 510.68,290.00 508.70,290.00 C 501.66,290.00 489.00,314.07 489.00,327.46 C 489.00,333.33 490.41,335.00 495.37,335.00 C 499.07,335.00 501.13,334.00 510.09,327.83 C 515.81,323.89 523.88,317.69 528.00,314.05 C 532.12,310.40 536.70,306.91 538.16,306.28 C 539.83,305.55 541.03,304.09 541.39,302.31 C 541.70,300.77 544.92,283.42 548.53,263.76 C 554.38,231.91 557.21,219.88 558.54,221.21 C 558.77,221.44 558.50,222.95 557.93,224.57 C 557.37,226.18 553.78,244.27 549.98,264.77 C 546.17,285.27 542.55,302.97 541.94,304.11 C 541.33,305.25 540.85,308.28 540.86,310.84 C 540.88,313.40 539.97,321.04 538.84,327.81 C 536.13,344.08 537.10,351.20 541.62,348.23 C 542.24,347.83 548.50,337.01 555.54,324.19 C 568.91,299.83 571.57,296.50 575.41,299.31 C 576.96,300.45 576.97,301.43 575.50,313.30 C 574.64,320.33 574.20,326.51 574.52,327.04 C 575.80,329.10 578.38,327.78 583.46,322.50 C 586.36,319.48 589.16,317.00 589.67,317.00 C 590.18,317.00 591.18,315.40 591.89,313.43 C 592.60,311.47 594.49,308.38 596.09,306.55 C 597.72,304.70 599.00,302.08 599.00,300.62 C 599.00,297.55 602.18,294.00 604.93,294.00 C 607.30,294.00 610.00,296.56 610.01,298.82 C 610.01,299.74 610.49,302.22 611.07,304.31 C 612.13,308.13 612.13,308.13 620.31,307.46 C 624.82,307.10 631.95,305.95 636.17,304.90 C 640.38,303.86 644.32,303.00 644.92,303.00 C 646.57,303.00 646.22,307.75 644.00,315.50 C 641.40,324.60 641.35,331.11 643.87,332.69 C 645.48,333.70 646.61,333.13 651.87,328.68 C 655.24,325.83 661.83,318.32 666.50,312.00 C 671.18,305.67 677.79,298.14 681.21,295.25 C 687.98,289.53 687.83,289.60 690.00,290.99 C 691.24,291.78 691.46,294.37 691.25,305.72 C 690.96,321.36 691.57,323.51 696.61,324.45 C 701.28,325.33 703.04,324.20 714.93,312.64 L 725.36,302.50 L 716.48,312.33 C 704.61,325.48 697.06,329.06 691.97,323.97 C 690.10,322.10 689.97,320.88 690.22,307.45 C 690.45,295.76 690.22,292.77 689.08,292.06 C 686.65,290.54 676.56,300.37 665.51,315.01 C 655.85,327.81 649.16,335.00 646.93,335.00 C 646.38,335.00 644.82,334.27 643.46,333.38 C 641.37,332.01 641.00,331.00 641.02,326.63 C 641.02,323.81 641.68,318.80 642.48,315.50 C 643.28,312.20 643.94,308.32 643.96,306.88 C 644.00,304.27 644.00,304.27 637.75,305.76 C 634.31,306.58 626.80,307.75 621.06,308.37 C 610.62,309.50 610.62,309.50 609.81,312.65 C 609.36,314.38 607.69,317.19 606.10,318.90 C 603.59,321.58 602.51,322.00 598.11,322.00 C 594.11,322.00 592.75,321.57 591.78,320.01 C 590.60,318.12 590.29,318.26 585.52,322.95 C 579.99,328.37 576.07,330.00 574.13,327.66 C 573.17,326.50 573.25,323.49 574.49,313.43 C 576.25,299.16 575.78,297.62 570.78,301.32 C 568.82,302.77 564.34,310.34 556.78,324.98 C 550.66,336.81 544.72,347.50 543.58,348.73 C 541.57,350.89 538.04,351.71 536.67,350.33" fill="none" stroke="black" stroke-width="1.2" stroke-linecap="round" stroke-linejoin="round" />
  <path d="M 652.00,330.50 C 653.29,329.12 654.12,328.00 653.85,328.00 C 653.57,328.00 652.29,329.12 651.00,330.50 C 649.71,331.88 648.88,333.00 649.15,333.00 C 649.43,333.00 650.71,331.88 652.00,330.50" fill="none" stroke="black" stroke-width="1.2" stroke-linecap="round" stroke-linejoin="round" />
  <path d="M 586.50,321.00 C 587.50,319.90 588.08,319.00 587.81,319.00 C 587.53,319.00 586.50,319.90 585.50,321.00 C 584.50,322.10 583.92,323.00 584.19,323.00 C 584.47,323.00 585.50,322.10 586.50,321.00" fill="none" stroke="black" stroke-width="1.2" stroke-linecap="round" stroke-linejoin="round" />
  <path d="M 605.72,317.68 C 606.98,316.44 608.06,314.00 608.22,312.00 C 608.37,310.07 609.17,308.16 610.00,307.73 C 610.89,307.28 610.42,307.18 608.85,307.48 C 607.40,307.76 604.57,307.30 602.56,306.46 C 600.55,305.62 598.47,305.21 597.93,305.54 C 597.40,305.87 595.59,308.86 593.91,312.17 C 592.24,315.49 591.43,317.85 592.11,317.43 C 592.97,316.90 593.14,317.18 592.68,318.39 C 592.29,319.41 592.42,319.86 593.01,319.49 C 593.56,319.16 594.00,319.41 594.00,320.05 C 594.00,322.02 603.19,320.16 605.72,317.68" fill="none" stroke="black" stroke-width="1.2" stroke-linecap="round" stroke-linejoin="round" />
  <path d="M 609.99,304.63 C 609.98,301.58 607.78,296.13 606.34,295.58 C 603.69,294.56 601.25,295.89 600.73,298.63 C 599.94,302.79 600.96,305.00 603.68,305.00 C 605.02,305.00 605.88,305.38 605.59,305.86 C 605.30,306.33 606.17,306.50 607.53,306.24 C 608.89,305.98 610.00,305.26 609.99,304.63" fill="none" stroke="black" stroke-width="1.2" stroke-linecap="round" stroke-linejoin="round" />
  <path d="M 596.55,286.08 C 599.82,285.55 603.91,283.47 607.94,280.31 C 608.17,280.12 608.72,278.06 609.14,275.73 C 609.91,271.50 609.91,271.50 609.58,276.21 C 609.20,281.77 610.86,283.82 617.34,285.73 L 621.50,286.96 L 617.50,286.41 C 615.25,286.10 612.46,284.85 611.12,283.53 C 608.75,281.20 608.75,281.20 604.18,284.10 C 601.14,286.03 598.42,286.96 596.05,286.87 C 592.50,286.75 592.50,286.75 596.55,286.08" fill="none" stroke="black" stroke-width="1.2" stroke-linecap="round" stroke-linejoin="round" />
  <path d="M 282.22,277.55 C 279.77,274.44 277.40,266.20 278.60,265.00 C 279.13,264.48 279.54,265.33 279.61,267.08 C 279.80,272.27 282.89,277.76 285.86,278.16 C 291.72,278.95 292.91,278.14 296.59,270.82 C 300.28,263.49 302.18,261.93 299.44,268.48 C 297.79,272.44 294.22,277.97 292.50,279.23 C 291.95,279.64 289.85,279.98 287.82,279.98 C 285.10,280.00 283.64,279.36 282.22,277.55" fill="none" stroke="black" stroke-width="1.2" stroke-linecap="round" stroke-linejoin="round" />
  <path d="M 624.89,269.50 C 628.29,264.55 632.81,259.48 633.35,260.01 C 633.62,260.29 631.37,263.21 628.34,266.51 C 625.31,269.80 623.76,271.15 624.89,269.50" fill="none" stroke="black" stroke-width="1.2" stroke-linecap="round" stroke-linejoin="round" />
  <path d="M 292.87,255.50 C 296.16,250.69 301.77,244.46 302.32,245.00 C 302.60,245.28 300.12,248.43 296.82,252.00 C 293.52,255.57 291.74,257.15 292.87,255.50" fill="none" stroke="black" stroke-width="1.2" stroke-linecap="round" stroke-linejoin="round" />
  <path d="M 61.23,235.31 C 60.99,213.26 61.06,213.70 56.48,206.25 C 56.40,206.11 53.71,206.90 50.50,208.00 C 42.59,210.72 42.35,209.81 50.19,206.80 C 56.09,204.53 56.48,204.18 56.25,201.44 C 56.11,199.82 55.71,187.10 55.37,173.16 C 54.69,145.67 55.35,137.06 59.55,119.24 C 64.05,100.14 78.37,75.20 85.81,73.53 C 89.10,72.78 93.95,66.27 94.14,62.34 C 94.25,59.98 94.35,59.88 94.71,61.75 C 95.25,64.59 96.48,64.55 107.00,61.45 C 114.86,59.12 117.09,58.93 136.64,58.87 C 161.42,58.80 165.44,59.49 177.62,65.90 C 185.32,69.96 186.77,71.17 189.62,75.90 C 194.09,83.35 194.64,88.67 192.00,99.02 C 189.54,108.64 189.40,108.95 182.76,119.00 C 176.43,128.58 163.39,141.89 150.00,152.43 C 130.22,168.01 84.90,194.53 72.23,197.94 C 67.85,199.12 67.92,199.00 65.44,209.26 C 65.08,210.78 64.16,212.37 63.41,212.79 C 62.33,213.39 61.98,218.14 61.75,235.03 L 61.46,256.50 L 61.23,235.31" fill="none" stroke="black" stroke-width="1.2" stroke-linecap="round" stroke-linejoin="round" />
  <path d="M 63.32,211.25 C 63.57,210.84 64.08,209.04 64.46,207.25 C 65.14,204.07 65.09,204.00 61.64,204.00 C 57.14,204.00 56.65,204.90 59.04,208.82 C 60.92,211.92 62.43,212.77 63.32,211.25" fill="none" stroke="black" stroke-width="1.2" stroke-linecap="round" stroke-linejoin="round" />
  <path d="M 65.54,202.07 C 65.23,201.56 65.42,200.86 65.98,200.51 C 66.54,200.16 67.00,197.68 67.00,194.98 C 67.00,192.29 71.95,164.91 78.00,134.14 C 84.05,103.36 89.00,77.24 89.00,76.09 C 89.00,73.94 86.61,73.21 85.49,75.02 C 85.14,75.58 84.47,75.79 84.00,75.50 C 83.53,75.21 82.81,75.49 82.41,76.14 C 81.93,76.93 82.15,77.05 83.10,76.52 C 83.87,76.09 83.10,77.03 81.38,78.62 C 76.57,83.07 71.60,90.64 67.11,100.39 C 63.81,107.53 62.30,112.92 59.40,127.89 C 55.80,146.50 55.80,146.50 56.47,172.50 C 56.84,186.80 57.36,199.26 57.62,200.19 C 57.93,201.29 59.41,202.02 61.80,202.27 C 63.83,202.49 65.64,202.74 65.81,202.83 C 65.98,202.92 65.86,202.58 65.54,202.07" fill="none" stroke="black" stroke-width="1.2" stroke-linecap="round" stroke-linejoin="round" />
  <path d="M 88.52,189.02 C 106.23,180.54 140.49,159.24 150.62,150.40 C 153.98,147.47 157.02,145.28 157.37,145.53 C 157.71,145.79 157.80,145.73 157.56,145.39 C 157.31,145.05 160.15,142.14 163.87,138.91 C 171.27,132.48 178.34,124.04 184.75,114.00 C 187.72,109.35 189.49,105.00 190.96,98.70 C 193.35,88.41 192.91,83.07 189.27,78.19 C 187.92,76.37 186.71,74.24 186.60,73.47 C 186.48,72.69 186.01,71.71 185.54,71.28 C 185.06,70.85 185.01,71.17 185.41,72.00 C 185.93,73.06 185.75,73.01 184.78,71.85 C 182.32,68.86 170.63,63.16 163.69,61.56 C 158.79,60.44 151.48,60.00 137.69,59.99 C 119.22,59.97 118.05,60.09 106.43,63.19 C 92.43,66.93 91.08,68.07 90.33,76.81 C 90.06,79.94 85.20,105.45 79.54,133.50 C 69.19,184.74 67.37,195.99 69.42,196.02 C 70.01,196.02 69.83,196.50 69.00,197.08 C 65.49,199.54 73.18,196.37 88.52,189.02" fill="none" stroke="black" stroke-width="1.2" stroke-linecap="round" stroke-linejoin="round" />
  <path d="M 498.49,209.56 C 495.75,203.12 495.75,203.12 496.46,186.31 C 497.60,159.30 510.96,76.19 516.11,64.09 C 518.39,58.73 518.63,57.37 511.64,90.00 C 504.47,123.45 498.30,165.57 497.49,186.50 C 496.90,201.80 496.98,202.76 499.28,208.50 C 501.67,214.48 501.69,214.50 505.55,214.26 C 511.86,213.86 518.00,206.79 531.65,184.23 C 538.93,172.20 544.31,164.36 545.72,163.72 C 546.97,163.15 548.00,162.14 548.00,161.47 C 548.00,159.89 552.18,149.85 552.65,150.31 C 552.84,150.51 552.14,153.18 551.09,156.25 C 549.11,162.00 549.15,167.83 551.20,173.25 C 551.99,175.33 552.91,176.00 554.98,176.00 C 559.43,176.00 566.54,167.34 576.97,149.18 C 582.14,140.21 587.28,132.22 588.40,131.43 C 591.05,129.57 593.91,129.60 594.64,131.50 C 595.29,133.20 599.23,133.48 601.95,132.03 C 602.95,131.49 604.07,129.86 604.43,128.41 C 604.80,126.95 605.30,125.97 605.55,126.22 C 605.80,126.47 605.51,128.10 604.91,129.84 C 604.00,132.44 603.13,133.12 600.04,133.61 C 597.97,133.94 595.78,134.52 595.17,134.89 C 594.52,135.30 593.63,142.10 593.00,151.54 C 592.04,165.83 592.10,167.89 593.61,171.25 C 596.20,177.00 600.88,175.96 606.96,168.30 C 609.23,165.45 611.86,162.86 612.80,162.56 C 613.75,162.26 615.34,159.72 616.34,156.92 C 617.33,154.11 618.34,152.01 618.58,152.25 C 618.82,152.49 618.32,154.67 617.46,157.09 C 616.37,160.17 616.10,163.01 616.57,166.50 C 617.65,174.45 618.53,176.00 621.95,176.00 C 624.45,176.00 625.96,174.80 631.00,168.75 C 634.33,164.76 640.66,155.13 645.07,147.34 C 652.65,133.94 655.92,130.00 659.46,130.00 C 661.29,130.00 661.27,129.22 659.95,151.40 C 658.99,167.58 659.04,169.27 660.67,172.01 C 663.33,176.52 666.60,176.01 672.15,170.25 C 674.66,167.64 678.42,162.69 680.50,159.25 C 682.58,155.81 684.47,153.00 684.70,153.00 C 685.21,153.00 685.26,152.90 680.51,161.00 C 678.42,164.57 674.88,169.41 672.64,171.75 C 669.27,175.28 667.94,176.00 664.82,176.00 C 661.63,176.00 660.81,175.53 659.47,172.94 C 658.07,170.24 658.01,167.63 658.96,150.79 C 659.55,140.29 659.86,131.53 659.65,131.31 C 659.43,131.10 658.19,131.42 656.88,132.03 C 655.40,132.72 652.42,136.94 649.00,143.18 C 641.78,156.37 638.72,161.03 631.50,169.80 C 625.93,176.56 625.25,177.07 622.03,176.80 C 618.11,176.46 616.70,174.42 615.22,167.00 L 614.33,162.50 L 607.91,169.25 C 602.33,175.12 601.03,176.00 597.93,176.00 C 594.84,176.00 594.15,175.53 592.69,172.47 C 590.10,167.04 590.41,152.18 593.48,134.68 C 593.93,132.11 593.74,131.90 591.24,132.18 C 588.88,132.46 587.33,134.51 579.75,147.50 C 574.93,155.75 568.21,165.76 564.83,169.75 C 559.49,176.05 558.25,177.00 555.38,177.00 C 551.67,177.00 550.03,174.92 549.05,169.00 C 548.64,166.50 547.91,165.43 546.49,165.25 C 544.89,165.05 543.22,167.33 538.08,176.75 C 530.16,191.22 519.78,206.11 513.65,211.75 C 509.87,215.24 508.34,216.00 505.13,216.00 C 501.28,216.00 501.19,215.92 498.49,209.56" fill="none" stroke="black" stroke-width="1.2" stroke-linecap="round" stroke-linejoin="round" />
  <path d="M 189.20,198.80 C 187.67,197.27 187.64,186.31 189.14,176.77 C 191.22,163.53 209.04,72.62 209.67,72.06 C 210.01,71.75 209.98,73.08 209.61,75.00 C 193.37,158.51 187.30,195.96 189.61,198.27 C 189.98,198.64 191.60,198.17 193.20,197.22 C 195.43,195.91 198.73,190.48 207.10,174.31 C 215.91,157.28 218.85,152.50 222.02,149.99 C 224.19,148.27 226.46,147.17 227.07,147.54 C 227.81,148.00 227.98,150.56 227.59,155.11 C 227.27,158.90 226.73,165.15 226.40,169.00 C 225.80,176.00 225.80,176.00 228.67,176.00 C 231.05,176.00 232.49,174.78 237.02,168.92 C 240.03,165.03 243.66,161.23 245.09,160.48 C 246.52,159.72 248.15,157.64 248.74,155.81 C 249.59,153.15 249.82,155.55 249.91,168.00 C 250.02,182.12 250.23,183.86 252.29,187.50 C 254.18,190.84 255.13,191.55 258.11,191.80 C 261.43,192.08 262.17,191.54 269.46,183.51 C 273.76,178.78 278.56,174.25 280.13,173.43 C 281.71,172.62 283.02,171.17 283.04,170.22 C 283.10,167.54 292.57,149.91 293.50,150.75 C 293.95,151.16 294.01,150.95 293.62,150.28 C 292.56,148.43 295.44,143.66 299.47,140.59 C 302.31,138.43 303.69,137.99 306.09,138.52 C 308.87,139.13 309.07,139.44 308.49,142.34 C 307.64,146.63 302.78,150.64 297.21,151.66 C 292.64,152.50 292.64,152.50 288.45,162.10 C 284.77,170.55 284.33,172.35 284.77,177.10 C 285.05,180.07 285.78,182.83 286.39,183.23 C 287.00,183.64 289.27,183.98 291.44,183.98 C 296.81,184.01 305.85,178.49 318.50,167.49 C 324.00,162.70 329.74,158.34 331.25,157.80 C 332.76,157.25 334.02,156.51 334.04,156.15 C 334.06,155.79 335.22,154.15 336.62,152.50 C 338.61,150.17 338.92,150.02 338.01,151.84 C 337.36,153.12 336.67,157.84 336.46,162.33 C 336.01,172.20 337.31,175.03 342.27,174.95 C 345.07,174.91 346.34,173.87 351.84,167.08 C 355.33,162.77 361.72,153.03 366.04,145.43 C 373.65,132.03 377.36,127.87 380.15,129.59 C 381.29,130.30 381.17,133.03 378.99,155.14 C 377.89,166.28 377.94,166.95 380.00,171.00 C 381.98,174.89 382.39,175.17 385.23,174.60 C 389.39,173.77 390.04,173.13 397.68,162.36 C 401.33,157.21 404.49,153.00 404.71,153.00 C 405.25,153.00 404.48,154.27 398.91,162.50 C 391.70,173.16 388.72,176.00 384.73,176.00 C 381.65,176.00 381.13,175.55 379.04,171.09 C 376.52,165.70 376.51,160.22 378.98,140.15 C 379.61,135.01 379.92,130.58 379.65,130.32 C 378.11,128.78 373.32,134.64 367.39,145.31 C 359.09,160.25 347.65,175.80 344.37,176.62 C 337.72,178.29 335.00,174.60 335.00,163.93 C 335.00,156.95 335.00,156.95 331.75,158.63 C 329.96,159.55 323.69,164.43 317.82,169.48 C 305.38,180.17 293.84,186.68 289.34,185.55 C 285.24,184.52 284.00,183.15 283.98,179.63 C 283.95,172.51 282.65,172.91 272.26,183.25 C 263.02,192.44 262.23,193.00 258.31,193.00 C 254.61,193.00 253.92,192.60 251.90,189.33 C 250.10,186.42 249.41,183.16 248.57,173.48 C 247.30,158.99 247.04,158.89 238.63,169.46 C 232.97,176.57 230.14,178.50 226.86,177.45 C 224.68,176.76 224.72,177.69 226.04,161.52 C 226.61,154.49 226.87,148.53 226.62,148.28 C 226.36,148.03 224.74,148.87 223.02,150.15 C 220.73,151.84 216.74,158.53 208.36,174.75 C 199.25,192.37 196.25,197.34 193.97,198.51 C 190.52,200.30 190.69,200.29 189.20,198.80" fill="none" stroke="black" stroke-width="1.2" stroke-linecap="round" stroke-linejoin="round" />
  <path d="M 279.00,175.29 C 279.00,174.54 278.10,175.33 273.96,179.75 L 269.50,184.50 L 274.25,180.04 C 276.86,177.59 279.00,175.45 279.00,175.29" fill="none" stroke="black" stroke-width="1.2" stroke-linecap="round" stroke-linejoin="round" />
  <path d="M 303.64,147.33 C 305.49,145.92 307.00,144.40 307.00,143.96 C 307.00,143.52 307.27,142.47 307.59,141.62 C 308.00,140.55 307.38,139.88 305.51,139.41 C 303.31,138.86 302.17,139.41 298.92,142.58 C 294.12,147.27 293.41,151.61 297.64,150.56 C 299.09,150.19 301.79,148.74 303.64,147.33" fill="none" stroke="black" stroke-width="1.2" stroke-linecap="round" stroke-linejoin="round" />
  <path d="M 251.75,139.34 C 252.44,139.06 253.56,139.06 254.25,139.34 C 254.94,139.62 254.38,139.84 253.00,139.84 C 251.62,139.84 251.06,139.62 251.75,139.34" fill="none" stroke="black" stroke-width="1.2" stroke-linecap="round" stroke-linejoin="round" />
  <path d="M 300.72,129.56 C 307.59,127.26 311.83,123.44 312.28,119.17 C 312.67,115.52 312.67,115.52 312.59,119.50 C 312.49,124.11 315.26,127.17 321.05,128.83 C 324.50,129.82 324.50,129.82 321.33,129.91 C 319.30,129.97 317.08,129.09 315.18,127.50 C 311.53,124.43 311.44,124.42 307.03,127.48 C 305.06,128.84 301.89,130.19 299.98,130.47 C 296.72,130.94 296.77,130.89 300.72,129.56" fill="none" stroke="black" stroke-width="1.2" stroke-linecap="round" stroke-linejoin="round" />
</svg>
