<svg xmlns="http://www.w3.org/2000/svg" viewBox="0 0 821 449" width="821" height="449">
  <path d="M 331.00,403.69 C 331.00,397.04 332.87,381.11 335.58,364.72 C 336.46,359.34 336.93,354.26 336.62,353.44 C 336.15,352.22 334.61,352.70 328.44,355.97 C 324.25,358.19 319.74,360.00 318.41,360.00 C 312.79,360.00 317.07,354.49 332.00,342.52 C 335.57,339.66 339.00,336.68 339.62,335.91 C 341.08,334.08 345.41,309.47 344.52,308.03 C 344.09,307.34 342.13,308.36 339.17,310.80 C 317.03,329.08 301.64,331.04 296.55,316.24 C 295.66,313.63 294.65,308.01 294.31,303.75 C 293.94,298.97 293.17,295.55 292.30,294.83 C 291.18,293.91 290.79,294.10 290.35,295.77 C 290.04,296.97 289.24,297.65 288.48,297.36 C 287.68,297.05 283.17,301.76 276.94,309.43 C 267.16,321.46 264.95,323.34 263.44,320.90 C 263.03,320.24 260.86,321.80 257.90,324.90 C 254.21,328.78 252.34,330.00 250.10,330.00 C 246.01,330.00 245.45,326.57 247.52,314.18 C 251.59,289.83 246.86,294.38 225.37,335.50 C 216.68,352.12 215.11,354.54 212.84,354.80 C 210.58,355.07 210.16,354.66 209.59,351.62 C 208.90,347.95 210.33,330.95 212.43,317.71 C 213.13,313.29 213.29,309.68 212.79,309.37 C 212.30,309.07 210.01,310.46 207.70,312.45 C 191.69,326.29 179.47,333.18 170.72,333.31 C 165.72,333.39 165.72,333.39 160.91,343.69 C 157.10,351.85 155.67,354.00 154.05,354.00 C 152.07,354.00 151.85,353.44 151.64,348.00 C 151.26,338.41 155.11,309.56 162.55,266.12 C 166.75,241.61 166.95,239.60 165.44,237.93 C 163.92,236.25 163.98,235.90 166.34,232.79 C 167.74,230.96 169.32,227.52 169.85,225.15 C 171.01,220.03 171.63,219.23 173.24,220.84 C 174.19,221.79 174.09,223.08 172.78,226.78 C 169.24,236.75 156.02,316.90 154.37,338.37 C 153.53,349.26 155.01,350.43 158.71,341.81 C 164.02,329.41 178.15,301.66 182.97,294.14 C 188.82,285.02 193.24,280.49 195.46,281.35 C 196.90,281.90 196.90,282.29 195.48,285.73 C 193.25,291.09 187.56,300.49 177.16,315.98 C 172.20,323.37 168.36,329.77 168.63,330.21 C 169.67,331.89 174.84,330.86 181.53,327.65 C 188.55,324.29 198.60,316.74 209.26,306.85 C 215.01,301.50 215.01,301.50 218.52,282.50 C 220.45,272.05 223.45,256.58 225.19,248.11 C 228.14,233.74 228.24,232.65 226.64,231.48 C 225.07,230.33 225.19,229.83 228.12,225.12 C 231.07,220.36 233.00,218.71 233.00,220.94 C 233.00,221.45 230.09,236.41 226.54,254.19 C 220.08,286.45 215.06,314.94 212.98,331.00 C 211.74,340.61 212.00,350.50 213.50,350.50 C 214.05,350.50 218.23,343.30 222.79,334.50 C 238.61,303.94 244.65,294.67 248.38,295.20 C 250.33,295.48 250.49,296.08 250.41,303.00 C 250.37,307.12 249.97,313.73 249.53,317.67 C 249.08,321.61 249.03,325.63 249.40,326.59 C 249.97,328.10 250.63,327.79 254.10,324.42 C 258.58,320.06 266.86,308.03 272.38,297.84 C 276.02,291.14 280.90,286.00 283.62,286.00 C 284.43,286.00 286.14,287.12 287.41,288.50 C 288.69,289.88 290.64,291.00 291.74,291.00 C 294.83,291.00 295.68,292.85 296.40,301.19 C 297.73,316.50 301.99,324.01 309.33,323.99 C 315.40,323.97 326.14,317.86 339.76,306.67 C 345.94,301.60 347.12,300.13 347.64,296.83 C 348.25,293.02 349.42,291.23 350.32,292.73 C 350.57,293.16 349.24,301.59 347.37,311.47 C 345.49,321.36 344.19,330.05 344.47,330.79 C 345.56,333.63 346.90,330.57 349.51,319.25 C 356.19,290.25 363.15,274.60 371.20,270.40 C 378.72,266.49 382.56,270.28 381.73,280.78 C 381.09,288.93 378.87,295.85 373.41,306.73 C 371.14,311.25 369.48,315.15 369.72,315.39 C 369.96,315.63 376.31,312.70 383.83,308.89 C 396.98,302.23 404.00,299.72 404.00,301.68 C 404.00,302.19 400.51,304.03 396.25,305.78 C 382.66,311.34 365.21,321.89 361.20,326.97 C 359.23,329.46 355.25,333.98 352.34,337.00 C 347.07,342.50 347.07,342.50 341.64,373.50 C 335.92,406.20 334.98,410.00 332.52,410.00 C 331.32,410.00 331.00,408.68 331.00,403.69 Z M 337.60,381.40 C 337.12,380.14 336.63,379.97 335.83,380.77 C 335.23,381.37 335.03,382.65 335.40,383.60 C 335.88,384.86 336.37,385.03 337.17,384.23 C 337.77,383.63 337.97,382.35 337.60,381.40 Z M 338.73,375.36 C 338.48,374.04 338.69,372.69 339.20,372.38 C 339.71,372.06 340.00,370.61 339.85,369.15 C 339.70,367.69 339.93,365.92 340.38,365.20 C 341.43,363.49 340.32,360.69 338.92,361.55 C 338.32,361.92 338.05,363.07 338.32,364.11 C 338.59,365.15 338.38,366.27 337.84,366.60 C 337.31,366.93 336.96,368.39 337.08,369.85 C 337.19,371.31 336.95,373.29 336.54,374.25 C 335.58,376.48 336.64,379.34 338.09,378.45 C 338.69,378.07 338.98,376.68 338.73,375.36 Z M 342.24,353.76 C 342.38,351.19 342.06,348.96 341.53,348.80 C 340.40,348.45 338.75,356.82 339.53,358.92 C 340.48,361.45 341.96,358.63 342.24,353.76 Z M 335.75,348.23 C 338.98,345.78 339.85,343.64 338.07,342.54 C 336.82,341.77 324.79,351.86 325.53,353.05 C 326.20,354.13 330.92,351.91 335.75,348.23 Z M 344.50,339.00 C 344.02,338.22 343.44,338.16 342.77,338.83 C 342.22,339.38 342.10,340.35 342.50,341.00 C 342.98,341.78 343.56,341.84 344.23,341.17 C 344.78,340.62 344.90,339.65 344.50,339.00 Z M 363.26,318.38 C 365.33,315.69 369.01,309.45 371.44,304.50 C 379.52,288.06 381.82,277.47 378.26,273.07 C 376.29,270.64 376.29,270.64 372.91,272.62 C 367.84,275.58 363.62,281.81 360.02,291.66 C 356.30,301.83 349.94,326.09 350.68,327.29 C 351.63,328.82 359.51,323.24 363.26,318.38 Z M 281.79,299.17 C 286.33,293.91 286.93,292.74 286.01,291.02 C 285.42,289.91 284.32,289.00 283.57,289.00 C 281.37,289.00 276.02,295.81 272.85,302.67 C 269.44,310.03 269.98,312.89 273.91,308.31 C 275.33,306.65 278.88,302.54 281.79,299.17 Z M 536.33,353.42 C 535.42,351.04 536.61,332.99 538.53,320.16 C 539.47,313.85 539.84,308.46 539.36,308.00 C 538.89,307.54 534.23,310.99 529.00,315.65 C 507.78,334.57 491.57,342.14 488.64,334.49 C 485.37,325.98 493.81,299.16 502.30,291.12 C 506.38,287.25 512.42,286.25 514.29,289.13 C 515.63,291.21 513.42,297.00 511.27,297.00 C 510.25,297.00 510.01,296.45 510.50,295.25 C 512.94,289.30 509.28,288.35 503.96,293.54 C 499.20,298.19 494.77,307.10 492.07,317.44 C 488.85,329.77 489.60,335.00 494.58,335.00 C 500.05,335.00 513.58,325.62 531.11,309.68 C 541.72,300.03 541.72,300.03 543.98,287.76 C 545.22,281.02 548.14,265.94 550.48,254.25 C 554.01,236.56 554.49,232.82 553.36,231.88 C 552.61,231.26 552.00,230.39 552.00,229.94 C 552.00,228.22 557.56,220.06 558.75,220.03 C 560.33,219.99 560.55,218.36 556.58,236.69 C 547.45,278.85 538.00,334.72 538.00,346.49 C 538.00,350.56 539.20,351.58 541.21,349.23 C 542.02,348.28 546.75,339.62 551.72,330.00 C 565.74,302.83 570.94,295.00 574.96,295.00 C 577.93,295.00 578.48,300.54 576.61,311.58 C 573.76,328.47 574.81,331.22 581.31,323.92 C 586.49,318.11 594.72,305.89 597.14,300.42 C 601.86,289.74 609.86,290.66 611.80,302.12 C 612.55,306.50 612.55,306.50 618.52,306.78 C 622.58,306.98 627.55,306.24 634.00,304.49 C 649.38,300.32 649.42,300.32 648.63,303.11 C 642.85,323.64 641.82,330.78 644.36,332.88 C 646.52,334.68 649.99,331.25 664.46,313.07 C 681.94,291.08 687.10,286.66 690.86,290.44 C 692.26,291.84 692.45,294.16 692.17,306.09 C 691.90,317.66 692.12,320.53 693.44,322.55 C 694.32,323.90 695.85,325.00 696.83,325.00 C 700.03,325.00 707.33,319.44 716.38,310.14 C 721.26,305.11 725.65,301.00 726.13,301.00 C 728.01,301.00 726.76,303.16 721.05,309.78 C 707.91,325.02 695.65,330.99 691.27,324.29 C 689.74,321.95 689.54,319.62 689.81,307.28 C 690.08,294.47 689.94,292.91 688.39,292.32 C 686.17,291.47 679.06,298.96 665.69,316.22 C 651.41,334.64 645.75,339.02 642.01,334.52 C 640.22,332.36 640.65,322.64 642.93,314.00 C 644.01,309.88 644.52,306.12 644.06,305.66 C 643.60,305.20 639.46,305.74 634.86,306.87 C 630.26,307.99 623.22,309.22 619.21,309.59 C 611.91,310.27 611.91,310.27 609.71,314.82 C 606.90,320.62 603.34,323.22 598.02,323.36 C 594.69,323.45 593.49,322.98 591.99,320.99 C 590.12,318.51 590.12,318.51 584.70,324.33 C 580.15,329.22 578.81,330.11 576.39,329.83 C 573.53,329.50 573.50,329.44 573.56,323.00 C 573.59,319.43 573.99,313.27 574.45,309.33 C 574.90,305.38 574.98,301.38 574.62,300.44 C 574.00,298.83 573.84,298.83 572.03,300.48 C 569.33,302.92 563.68,312.66 553.44,332.50 C 548.62,341.85 543.81,350.74 542.77,352.25 C 540.67,355.28 537.28,355.89 536.33,353.42 Z M 604.63,317.43 C 608.56,313.27 608.90,310.61 605.75,308.63 C 600.40,305.25 599.27,305.54 596.54,310.91 C 592.67,318.56 593.10,321.00 598.30,321.00 C 600.40,321.00 602.24,319.96 604.63,317.43 Z M 609.59,304.62 C 610.51,302.24 607.31,296.00 605.17,296.00 C 602.39,296.00 600.81,298.38 601.57,301.42 C 602.58,305.46 608.38,307.77 609.59,304.62 Z M 591.68,288.35 C 590.23,286.89 591.13,286.00 594.05,286.00 C 600.38,286.00 606.11,281.03 608.04,273.87 C 609.51,268.41 610.91,269.07 610.77,275.15 C 610.66,279.75 610.99,280.61 613.84,283.15 C 615.84,284.93 618.15,286.00 620.02,286.00 C 622.00,286.00 623.00,286.50 623.00,287.50 C 623.00,289.23 622.03,289.31 616.50,288.03 C 614.09,287.47 611.62,286.00 610.29,284.34 C 608.08,281.57 608.08,281.57 605.79,283.66 C 604.53,284.81 602.60,286.20 601.50,286.74 C 598.68,288.14 592.49,289.15 591.68,288.35 Z M 285.26,280.96 C 282.12,279.71 279.27,274.60 278.47,268.79 C 277.85,264.27 278.27,261.94 279.49,263.16 C 279.76,263.43 280.44,266.07 281.00,269.02 C 282.10,274.80 285.16,279.00 288.27,279.00 C 291.08,279.00 295.72,273.54 297.73,267.90 C 298.69,265.21 300.07,263.00 300.80,263.00 C 302.43,263.00 301.82,265.44 298.33,272.79 C 294.99,279.81 290.08,282.88 285.26,280.96 Z M 621.00,273.90 C 621.00,271.09 629.89,260.67 634.25,258.39 C 638.66,256.08 637.58,258.68 632.05,263.64 C 629.33,266.09 626.15,269.64 624.97,271.54 C 622.87,274.94 621.00,276.06 621.00,273.90 Z M 290.00,258.59 C 290.00,256.82 296.92,248.00 300.54,245.14 C 302.04,243.96 304.20,243.00 305.33,243.00 C 306.95,243.00 306.21,244.06 301.89,247.91 C 298.86,250.61 295.28,254.43 293.94,256.40 C 291.37,260.18 290.00,260.94 290.00,258.59 Z M 59.59,257.39 C 59.25,256.50 59.27,251.54 59.64,246.36 C 60.40,235.45 58.33,210.84 56.43,208.23 C 55.11,206.43 54.50,206.55 44.75,210.50 C 43.51,211.01 43.00,210.74 43.00,209.61 C 43.00,208.72 43.56,208.00 44.25,207.99 C 44.94,207.98 47.93,206.85 50.89,205.47 C 56.28,202.96 56.28,202.96 55.59,191.96 C 54.59,176.15 54.83,147.80 56.06,137.95 C 59.99,106.29 69.93,84.21 85.88,71.68 C 91.21,67.49 91.96,66.45 92.56,62.48 C 93.00,59.52 93.72,58.00 94.69,58.00 C 95.79,58.00 96.00,58.73 95.52,60.90 C 94.66,64.83 95.97,65.34 101.14,63.07 C 109.12,59.57 120.00,58.00 136.33,58.00 C 160.26,58.00 174.41,61.18 184.52,68.82 C 191.72,74.26 194.41,80.15 194.37,90.38 C 194.35,97.14 193.84,99.69 191.33,105.61 C 179.23,134.13 142.60,164.37 85.92,192.65 C 76.63,197.29 68.62,201.85 68.13,202.79 C 67.00,204.97 64.23,221.38 63.46,230.50 C 63.13,234.35 63.30,241.48 63.82,246.33 C 64.34,251.19 64.54,256.03 64.27,257.08 C 63.66,259.41 60.45,259.62 59.59,257.39 Z M 64.01,209.46 C 64.77,204.42 63.35,202.64 60.47,205.03 C 59.05,206.20 59.11,210.25 60.61,214.92 C 61.41,217.41 63.25,214.45 64.01,209.46 Z M 64.70,198.80 C 65.27,198.09 67.83,186.47 70.38,173.00 C 72.93,159.53 78.32,131.85 82.36,111.50 C 86.39,91.15 89.51,74.16 89.29,73.75 C 87.68,70.79 74.62,86.24 68.92,97.84 C 64.07,107.70 59.64,124.46 58.11,138.79 C 56.26,155.95 57.16,197.22 59.46,200.94 C 60.19,202.12 62.96,201.00 64.70,198.80 Z M 93.44,185.68 C 124.17,169.87 147.66,153.51 166.08,135.08 C 172.45,128.71 179.85,120.17 182.51,116.09 C 199.65,89.92 193.42,70.52 165.41,62.83 C 154.48,59.82 122.32,59.51 111.50,62.31 C 100.70,65.10 93.73,68.89 92.76,72.50 C 91.64,76.66 72.57,172.28 70.47,184.23 C 69.54,189.58 69.04,194.65 69.36,195.50 C 70.12,197.49 71.91,196.76 93.44,185.68 Z M 501.81,217.32 C 500.88,217.08 499.30,214.77 498.31,212.19 C 495.87,205.87 495.89,179.03 498.35,160.00 C 501.27,137.41 511.17,81.42 513.61,73.68 C 514.01,72.40 513.56,71.70 512.09,71.31 C 509.39,70.61 509.46,69.86 512.47,67.03 C 513.83,65.75 515.44,63.20 516.05,61.35 C 517.49,56.99 519.46,56.92 518.68,61.25 C 518.35,63.04 516.07,74.19 513.60,86.02 C 499.01,155.99 494.38,205.13 501.62,213.13 C 504.50,216.32 507.08,215.34 513.72,208.54 C 521.31,200.76 530.44,186.95 542.37,165.18 C 547.66,155.53 551.85,149.00 552.73,149.00 C 553.64,149.00 553.99,149.58 553.63,150.51 C 553.31,151.34 552.50,155.84 551.83,160.50 C 550.52,169.55 551.15,173.44 554.22,175.37 C 557.75,177.59 567.25,165.47 581.02,141.15 C 584.56,134.91 588.49,128.69 589.74,127.33 C 592.64,124.21 595.40,124.63 595.82,128.26 C 595.99,129.77 597.05,131.49 598.16,132.09 C 601.09,133.65 605.22,129.73 604.34,126.21 C 603.88,124.37 604.07,123.86 605.11,124.20 C 607.33,124.93 607.29,129.37 605.02,132.25 C 603.57,134.09 601.82,134.98 599.22,135.19 C 595.50,135.50 595.50,135.50 594.33,144.50 C 591.94,162.80 593.21,174.17 597.71,174.81 C 600.81,175.26 608.62,166.83 614.05,157.17 C 616.43,152.95 618.48,149.34 618.62,149.15 C 618.76,148.96 619.27,149.05 619.77,149.36 C 620.30,149.68 620.13,152.56 619.36,156.21 C 617.42,165.46 617.60,172.33 619.83,174.35 C 620.83,175.26 622.14,176.00 622.73,176.00 C 623.32,176.00 625.98,173.58 628.65,170.63 C 633.47,165.29 638.51,157.56 649.53,138.61 C 657.53,124.85 659.98,122.66 662.10,127.33 C 662.88,129.03 662.74,132.72 661.58,141.04 C 658.70,161.74 659.98,175.00 664.86,175.00 C 667.41,175.00 675.16,166.35 680.47,157.56 C 684.38,151.07 687.00,148.41 687.00,150.90 C 687.00,151.49 685.09,155.18 682.75,159.11 C 675.18,171.81 667.50,178.93 662.94,177.48 C 658.42,176.05 656.34,165.56 657.99,152.50 C 660.05,136.14 660.30,131.30 659.13,130.58 C 657.93,129.84 656.32,132.26 643.61,153.79 C 635.55,167.44 630.31,174.23 625.62,177.09 C 621.88,179.37 620.97,179.43 618.46,177.59 C 617.09,176.59 616.39,174.54 616.02,170.42 C 615.73,167.25 615.00,164.49 614.40,164.29 C 613.79,164.09 611.46,166.35 609.23,169.31 C 604.86,175.10 599.24,178.53 595.88,177.46 C 590.95,175.90 589.61,161.70 592.49,141.51 C 593.96,131.20 593.40,128.11 590.58,131.04 C 589.81,131.84 584.85,139.91 579.55,148.96 C 566.60,171.08 561.86,176.99 555.91,178.48 C 551.74,179.53 549.80,177.08 549.11,169.91 C 548.78,166.39 548.05,163.54 547.50,163.59 C 546.95,163.65 543.80,168.39 540.50,174.14 C 526.52,198.50 517.85,210.49 510.78,215.25 C 506.82,217.92 505.35,218.26 501.81,217.32 Z M 188.70,204.25 C 185.37,198.31 188.66,172.18 200.17,113.09 C 205.59,85.25 206.11,81.56 204.75,80.56 C 203.39,79.57 203.59,78.78 206.34,74.21 C 208.07,71.35 209.88,69.00 210.37,69.00 C 211.55,69.00 211.05,72.03 205.07,101.37 C 193.13,159.89 187.71,197.47 190.92,199.45 C 192.29,200.30 194.97,196.02 202.47,181.00 C 215.15,155.60 223.15,143.49 226.77,144.20 C 228.23,144.48 228.49,145.68 228.43,152.02 C 228.39,156.13 227.99,163.15 227.54,167.61 C 226.90,173.93 227.02,175.89 228.05,176.53 C 229.79,177.60 235.14,171.54 243.18,159.39 C 246.59,154.23 249.86,150.00 250.44,150.00 C 251.15,150.00 251.50,156.00 251.50,167.92 C 251.50,184.56 251.65,186.05 253.60,188.67 C 257.29,193.65 260.23,193.02 267.37,185.75 C 274.80,178.17 284.99,163.29 289.48,153.46 C 294.71,142.01 302.17,135.19 307.84,136.67 C 309.54,137.11 310.00,137.99 310.00,140.77 C 310.00,143.64 309.21,145.04 305.80,148.18 C 303.45,150.36 299.62,152.63 297.06,153.38 C 293.21,154.50 292.17,155.38 290.30,159.10 C 289.09,161.52 287.43,166.81 286.62,170.87 C 282.65,190.62 293.21,188.40 322.00,163.42 C 327.23,158.89 332.82,153.79 334.44,152.09 C 338.06,148.28 340.48,147.97 339.61,151.42 C 338.10,157.45 337.07,168.77 337.80,171.42 C 340.60,181.64 348.51,174.05 365.16,145.18 C 373.84,130.14 378.08,124.52 380.23,125.25 C 381.87,125.80 381.84,135.84 380.15,150.50 C 378.73,162.78 379.31,169.92 381.98,173.22 C 383.53,175.14 384.10,175.27 386.32,174.26 C 389.39,172.86 395.75,165.01 400.80,156.36 C 402.84,152.88 404.84,150.03 405.25,150.02 C 409.53,149.91 394.36,173.21 388.00,176.50 C 384.16,178.49 380.59,177.57 378.99,174.17 C 376.86,169.65 376.66,158.03 378.47,144.60 C 380.31,130.93 380.00,126.98 377.36,130.50 C 376.54,131.60 371.44,139.94 366.04,149.03 C 354.60,168.27 349.20,175.46 344.50,177.70 C 341.39,179.19 340.93,179.18 338.61,177.66 C 335.55,175.66 334.51,170.99 335.34,163.03 C 335.67,159.86 335.66,156.99 335.32,156.65 C 334.98,156.31 331.05,159.33 326.60,163.37 C 315.36,173.56 305.57,180.80 298.50,184.15 C 288.16,189.06 284.24,187.72 283.17,178.95 C 282.80,175.95 282.15,173.60 281.72,173.72 C 281.29,173.85 278.25,177.33 274.97,181.46 C 265.89,192.89 258.66,196.88 253.89,193.12 C 250.27,190.28 248.68,184.09 248.33,171.50 C 248.17,165.46 247.64,160.38 247.17,160.22 C 246.70,160.07 245.04,161.86 243.49,164.22 C 236.96,174.17 230.87,180.00 227.02,180.00 C 224.33,180.00 223.87,174.58 225.60,162.90 C 227.25,151.70 227.13,148.00 225.12,148.00 C 223.61,148.00 216.92,159.25 205.40,181.13 C 199.50,192.33 194.00,202.29 193.18,203.25 C 191.64,205.06 189.43,205.56 188.70,204.25 Z M 302.26,147.43 C 306.91,143.80 308.46,141.55 307.44,139.91 C 306.41,138.23 304.10,138.97 300.50,142.14 C 296.45,145.69 294.62,148.58 295.51,150.02 C 296.47,151.58 297.38,151.23 302.26,147.43 Z M 249.46,140.93 C 248.61,139.56 248.86,139.37 252.75,138.54 C 256.39,137.76 256.72,138.14 254.43,140.43 C 252.61,142.25 250.41,142.47 249.46,140.93 Z M 295.25,130.75 C 295.48,130.07 297.28,129.25 299.25,128.93 C 301.22,128.60 304.03,127.56 305.50,126.59 C 308.22,124.81 311.94,117.97 311.98,114.67 C 311.99,113.66 312.55,113.02 313.21,113.24 C 313.99,113.50 314.32,115.32 314.14,118.32 C 313.89,122.39 314.24,123.40 316.85,126.00 C 318.85,128.01 320.84,129.00 322.86,129.00 C 325.96,129.00 327.79,130.40 326.08,131.45 C 323.93,132.78 316.85,130.66 314.27,127.93 C 311.63,125.13 311.63,125.13 308.78,127.53 C 304.50,131.13 294.31,133.56 295.25,130.75 Z" fill="none" stroke="black" stroke-width="0.5" />
</svg>
