<svg xmlns="http://www.w3.org/2000/svg" viewBox="0 0 821 449" width="821" height="449">
  <path d="M 333.16,402.00 C 333.16,400.62 333.38,400.06 333.66,400.75 C 333.94,401.44 333.94,402.56 333.66,403.25 C 333.38,403.94 333.16,403.38 333.16,402.00" fill="none" stroke="black" stroke-width="1.2" stroke-linecap="round" stroke-linejoin="round" />
  <path d="M 337.08,375.42 C 337.13,374.25 337.36,374.01 337.68,374.81 C 337.97,375.53 337.94,376.40 337.60,376.73 C 337.27,377.06 337.04,376.47 337.08,375.42" fill="none" stroke="black" stroke-width="1.2" stroke-linecap="round" stroke-linejoin="round" />
  <path d="M 338.16,370.00 C 338.16,368.62 338.38,368.06 338.66,368.75 C 338.94,369.44 338.94,370.56 338.66,371.25 C 338.38,371.94 338.16,371.38 338.16,370.00" fill="none" stroke="black" stroke-width="1.2" stroke-linecap="round" stroke-linejoin="round" />
  <path d="M 339.16,364.00 C 339.16,362.62 339.38,362.06 339.66,362.75 C 339.94,363.44 339.94,364.56 339.66,365.25 C 339.38,365.94 339.16,365.38 339.16,364.00" fill="none" stroke="black" stroke-width="1.2" stroke-linecap="round" stroke-linejoin="round" />
  <path d="M 340.19,357.50 C 340.22,355.85 340.44,355.30 340.69,356.27 C 340.95,357.24 340.93,358.59 340.66,359.27 C 340.38,359.95 340.17,359.15 340.19,357.50" fill="none" stroke="black" stroke-width="1.2" stroke-linecap="round" stroke-linejoin="round" />
  <path d="M 325.00,353.62 C 325.00,353.41 325.79,352.63 326.75,351.87 C 328.34,350.63 328.37,350.66 327.13,352.25 C 325.82,353.92 325.00,354.45 325.00,353.62" fill="none" stroke="black" stroke-width="1.2" stroke-linecap="round" stroke-linejoin="round" />
  <path d="M 543.00,349.65 C 543.00,348.56 553.96,327.00 554.52,327.00 C 554.96,327.00 544.33,348.90 543.39,349.92 C 543.17,350.15 543.00,350.03 543.00,349.65" fill="none" stroke="black" stroke-width="1.2" stroke-linecap="round" stroke-linejoin="round" />
  <path d="M 210.08,346.42 C 210.13,345.25 210.36,345.01 210.68,345.81 C 210.97,346.53 210.94,347.40 210.60,347.73 C 210.27,348.06 210.04,347.47 210.08,346.42" fill="none" stroke="black" stroke-width="1.2" stroke-linecap="round" stroke-linejoin="round" />
  <path d="M 218.00,346.65 C 218.00,345.56 226.96,328.00 227.52,328.00 C 227.97,328.00 219.32,345.90 218.38,346.92 C 218.17,347.15 218.00,347.02 218.00,346.65" fill="none" stroke="black" stroke-width="1.2" stroke-linecap="round" stroke-linejoin="round" />
  <path d="M 536.16,344.00 C 536.16,342.62 536.38,342.06 536.66,342.75 C 536.94,343.44 536.94,344.56 536.66,345.25 C 536.38,345.94 536.16,345.38 536.16,344.00" fill="none" stroke="black" stroke-width="1.2" stroke-linecap="round" stroke-linejoin="round" />
  <path d="M 160.03,340.44 C 160.01,339.86 160.66,338.51 161.47,337.44 C 162.28,336.37 162.95,335.98 162.97,336.56 C 162.99,337.14 162.34,338.49 161.53,339.56 C 160.72,340.63 160.05,341.02 160.03,340.44" fill="none" stroke="black" stroke-width="1.2" stroke-linecap="round" stroke-linejoin="round" />
  <path d="M 210.16,339.00 C 210.16,337.62 210.38,337.06 210.66,337.75 C 210.94,338.44 210.94,339.56 210.66,340.25 C 210.38,340.94 210.16,340.38 210.16,339.00" fill="none" stroke="black" stroke-width="1.2" stroke-linecap="round" stroke-linejoin="round" />
  <path d="M 489.46,333.93 C 489.10,333.35 489.01,332.65 489.28,332.39 C 489.54,332.13 490.02,332.61 490.35,333.46 C 491.02,335.22 490.44,335.53 489.46,333.93" fill="none" stroke="black" stroke-width="1.2" stroke-linecap="round" stroke-linejoin="round" />
  <path d="M 501.00,334.70 C 501.00,334.02 510.47,328.00 511.54,328.00 C 512.01,328.00 511.97,328.39 511.45,328.87 C 509.93,330.26 501.00,335.24 501.00,334.70" fill="none" stroke="black" stroke-width="1.2" stroke-linecap="round" stroke-linejoin="round" />
  <path d="M 179.29,330.37 C 180.50,329.17 196.33,319.99 196.65,320.31 C 196.99,320.66 185.97,328.03 182.32,329.89 C 179.93,331.10 178.30,331.37 179.29,330.37" fill="none" stroke="black" stroke-width="1.2" stroke-linecap="round" stroke-linejoin="round" />
  <path d="M 488.16,328.00 C 488.16,326.62 488.38,326.06 488.66,326.75 C 488.94,327.44 488.94,328.56 488.66,329.25 C 488.38,329.94 488.16,329.38 488.16,328.00" fill="none" stroke="black" stroke-width="1.2" stroke-linecap="round" stroke-linejoin="round" />
  <path d="M 254.00,326.62 C 254.00,326.41 254.79,325.63 255.75,324.87 C 257.34,323.63 257.37,323.66 256.13,325.25 C 254.82,326.92 254.00,327.45 254.00,326.62" fill="none" stroke="black" stroke-width="1.2" stroke-linecap="round" stroke-linejoin="round" />
  <path d="M 247.08,323.42 C 247.13,322.25 247.36,322.01 247.68,322.81 C 247.97,323.53 247.94,324.40 247.60,324.73 C 247.27,325.06 247.04,324.47 247.08,323.42" fill="none" stroke="black" stroke-width="1.2" stroke-linecap="round" stroke-linejoin="round" />
  <path d="M 300.92,322.08 C 299.32,320.47 298.00,318.62 298.00,317.97 C 298.00,317.31 298.78,317.61 299.75,318.65 C 300.71,319.68 302.61,321.53 303.97,322.76 C 305.34,323.99 305.86,325.00 305.15,325.00 C 304.43,325.00 302.53,323.68 300.92,322.08" fill="none" stroke="black" stroke-width="1.2" stroke-linecap="round" stroke-linejoin="round" />
  <path d="M 308.81,324.32 C 309.53,324.03 310.40,324.06 310.73,324.40 C 311.06,324.73 310.47,324.96 309.42,324.92 C 308.25,324.87 308.01,324.64 308.81,324.32" fill="none" stroke="black" stroke-width="1.2" stroke-linecap="round" stroke-linejoin="round" />
  <path d="M 704.00,323.08 C 706.41,321.12 708.00,320.48 708.00,321.47 C 708.00,321.74 706.54,322.66 704.75,323.53 C 701.50,325.12 701.50,325.12 704.00,323.08" fill="none" stroke="black" stroke-width="1.2" stroke-linecap="round" stroke-linejoin="round" />
  <path d="M 230.00,323.63 C 230.00,322.55 233.97,315.00 234.54,315.00 C 234.82,315.00 234.08,316.91 232.90,319.25 C 230.58,323.85 230.00,324.72 230.00,323.63" fill="none" stroke="black" stroke-width="1.2" stroke-linecap="round" stroke-linejoin="round" />
  <path d="M 317.00,323.61 C 317.00,323.40 320.26,321.31 324.25,318.96 C 328.24,316.61 333.21,313.35 335.30,311.72 C 337.38,310.09 339.29,308.96 339.54,309.21 C 340.08,309.75 325.79,320.05 321.30,322.36 C 318.08,324.01 317.00,324.33 317.00,323.61" fill="none" stroke="black" stroke-width="1.2" stroke-linecap="round" stroke-linejoin="round" />
  <path d="M 561.56,313.25 C 567.20,302.63 569.00,299.78 569.00,301.46 C 569.00,302.59 556.97,324.00 556.33,324.00 C 556.06,324.00 558.41,319.16 561.56,313.25" fill="none" stroke="black" stroke-width="1.2" stroke-linecap="round" stroke-linejoin="round" />
  <path d="M 573.16,322.00 C 573.16,320.62 573.38,320.06 573.66,320.75 C 573.94,321.44 573.94,322.56 573.66,323.25 C 573.38,323.94 573.16,323.38 573.16,322.00" fill="none" stroke="black" stroke-width="1.2" stroke-linecap="round" stroke-linejoin="round" />
  <path d="M 691.46,322.93 C 691.10,322.35 691.01,321.65 691.28,321.39 C 691.54,321.13 692.02,321.61 692.35,322.46 C 693.02,324.22 692.44,324.53 691.46,322.93" fill="none" stroke="black" stroke-width="1.2" stroke-linecap="round" stroke-linejoin="round" />
  <path d="M 602.50,321.00 C 602.84,320.45 603.57,320.00 604.12,320.00 C 604.67,320.00 604.84,320.45 604.50,321.00 C 604.16,321.55 603.43,322.00 602.88,322.00 C 602.33,322.00 602.16,321.55 602.50,321.00" fill="none" stroke="black" stroke-width="1.2" stroke-linecap="round" stroke-linejoin="round" />
  <path d="M 247.07,316.92 C 247.11,316.14 247.54,314.60 248.03,313.50 C 248.81,311.78 248.89,311.87 248.67,314.21 C 248.40,317.00 246.94,319.46 247.07,316.92" fill="none" stroke="black" stroke-width="1.2" stroke-linecap="round" stroke-linejoin="round" />
  <path d="M 591.08,316.42 C 591.13,315.25 591.36,315.01 591.68,315.81 C 591.97,316.53 591.94,317.40 591.60,317.73 C 591.27,318.06 591.04,317.47 591.08,316.42" fill="none" stroke="black" stroke-width="1.2" stroke-linecap="round" stroke-linejoin="round" />
  <path d="M 714.50,314.00 C 716.65,311.80 718.63,310.00 718.91,310.00 C 719.18,310.00 717.65,311.80 715.50,314.00 C 713.35,316.20 711.37,318.00 711.09,318.00 C 710.82,318.00 712.35,316.20 714.50,314.00" fill="none" stroke="black" stroke-width="1.2" stroke-linecap="round" stroke-linejoin="round" />
  <path d="M 690.16,315.00 C 690.16,313.62 690.38,313.06 690.66,313.75 C 690.94,314.44 690.94,315.56 690.66,316.25 C 690.38,316.94 690.16,316.38 690.16,315.00" fill="none" stroke="black" stroke-width="1.2" stroke-linecap="round" stroke-linejoin="round" />
  <path d="M 266.00,315.12 C 266.00,314.57 266.45,313.84 267.00,313.50 C 267.55,313.16 268.00,313.33 268.00,313.88 C 268.00,314.43 267.55,315.16 267.00,315.50 C 266.45,315.84 266.00,315.67 266.00,315.12" fill="none" stroke="black" stroke-width="1.2" stroke-linecap="round" stroke-linejoin="round" />
  <path d="M 378.44,313.09 C 379.19,311.88 392.98,304.65 393.52,305.19 C 393.70,305.36 390.22,307.47 385.79,309.87 C 381.36,312.27 378.06,313.72 378.44,313.09" fill="none" stroke="black" stroke-width="1.2" stroke-linecap="round" stroke-linejoin="round" />
  <path d="M 532.50,310.00 C 533.50,308.90 534.53,308.00 534.81,308.00 C 535.08,308.00 534.50,308.90 533.50,310.00 C 532.50,311.10 531.47,312.00 531.19,312.00 C 530.92,312.00 531.50,311.10 532.50,310.00" fill="none" stroke="black" stroke-width="1.2" stroke-linecap="round" stroke-linejoin="round" />
  <path d="M 239.37,306.32 C 240.80,303.47 242.51,300.80 243.18,300.39 C 243.86,299.97 243.13,301.85 241.57,304.57 C 237.61,311.46 236.27,312.53 239.37,306.32" fill="none" stroke="black" stroke-width="1.2" stroke-linecap="round" stroke-linejoin="round" />
  <path d="M 614.27,308.31 C 615.24,308.05 616.59,308.07 617.27,308.34 C 617.95,308.62 617.15,308.83 615.50,308.81 C 613.85,308.78 613.30,308.56 614.27,308.31" fill="none" stroke="black" stroke-width="1.2" stroke-linecap="round" stroke-linejoin="round" />
  <path d="M 690.19,306.50 C 690.22,304.85 690.44,304.30 690.69,305.27 C 690.95,306.24 690.93,307.59 690.66,308.27 C 690.38,308.95 690.17,308.15 690.19,306.50" fill="none" stroke="black" stroke-width="1.2" stroke-linecap="round" stroke-linejoin="round" />
  <path d="M 371.00,307.45 C 371.00,306.21 374.19,300.85 374.65,301.31 C 375.18,301.85 372.27,308.00 371.47,308.00 C 371.21,308.00 371.00,307.75 371.00,307.45" fill="none" stroke="black" stroke-width="1.2" stroke-linecap="round" stroke-linejoin="round" />
  <path d="M 670.00,307.12 C 670.00,306.57 670.45,305.84 671.00,305.50 C 671.55,305.16 672.00,305.33 672.00,305.88 C 672.00,306.43 671.55,307.16 671.00,307.50 C 670.45,307.84 670.00,307.67 670.00,307.12" fill="none" stroke="black" stroke-width="1.2" stroke-linecap="round" stroke-linejoin="round" />
  <path d="M 249.08,304.42 C 249.13,303.25 249.36,303.01 249.68,303.81 C 249.97,304.53 249.94,305.40 249.60,305.73 C 249.27,306.06 249.04,305.47 249.08,304.42" fill="none" stroke="black" stroke-width="1.2" stroke-linecap="round" stroke-linejoin="round" />
  <path d="M 396.50,304.00 C 396.84,303.45 397.57,303.00 398.12,303.00 C 398.67,303.00 398.84,303.45 398.50,304.00 C 398.16,304.55 397.43,305.00 396.88,305.00 C 396.33,305.00 396.16,304.55 396.50,304.00" fill="none" stroke="black" stroke-width="1.2" stroke-linecap="round" stroke-linejoin="round" />
  <path d="M 576.08,302.42 C 576.13,301.25 576.36,301.01 576.68,301.81 C 576.97,302.53 576.94,303.40 576.60,303.73 C 576.27,304.06 576.04,303.47 576.08,302.42" fill="none" stroke="black" stroke-width="1.2" stroke-linecap="round" stroke-linejoin="round" />
  <path d="M 496.00,301.45 C 496.00,300.21 499.19,294.85 499.65,295.31 C 500.18,295.85 497.27,302.00 496.47,302.00 C 496.21,302.00 496.00,301.75 496.00,301.45" fill="none" stroke="black" stroke-width="1.2" stroke-linecap="round" stroke-linejoin="round" />
  <path d="M 274.05,295.90 C 275.20,293.65 276.38,292.05 276.68,292.35 C 277.22,292.89 273.24,300.00 272.40,300.00 C 272.16,300.00 272.90,298.16 274.05,295.90" fill="none" stroke="black" stroke-width="1.2" stroke-linecap="round" stroke-linejoin="round" />
  <path d="M 691.16,298.00 C 691.16,296.62 691.38,296.06 691.66,296.75 C 691.94,297.44 691.94,298.56 691.66,299.25 C 691.38,299.94 691.16,299.38 691.16,298.00" fill="none" stroke="black" stroke-width="1.2" stroke-linecap="round" stroke-linejoin="round" />
  <path d="M 375.00,298.12 C 375.00,297.57 375.45,296.84 376.00,296.50 C 376.55,296.16 377.00,296.33 377.00,296.88 C 377.00,297.43 376.55,298.16 376.00,298.50 C 375.45,298.84 375.00,298.67 375.00,298.12" fill="none" stroke="black" stroke-width="1.2" stroke-linecap="round" stroke-linejoin="round" />
  <path d="M 608.46,296.93 C 608.10,296.35 608.01,295.65 608.28,295.39 C 608.54,295.13 609.02,295.61 609.35,296.46 C 610.02,298.22 609.44,298.53 608.46,296.93" fill="none" stroke="black" stroke-width="1.2" stroke-linecap="round" stroke-linejoin="round" />
  <path d="M 377.00,293.12 C 377.00,292.57 377.45,291.84 378.00,291.50 C 378.55,291.16 379.00,291.33 379.00,291.88 C 379.00,292.43 378.55,293.16 378.00,293.50 C 377.45,293.84 377.00,293.67 377.00,293.12" fill="none" stroke="black" stroke-width="1.2" stroke-linecap="round" stroke-linejoin="round" />
  <path d="M 359.00,288.12 C 359.00,287.57 359.45,286.84 360.00,286.50 C 360.55,286.16 361.00,286.33 361.00,286.88 C 361.00,287.43 360.55,288.16 360.00,288.50 C 359.45,288.84 359.00,288.67 359.00,288.12" fill="none" stroke="black" stroke-width="1.2" stroke-linecap="round" stroke-linejoin="round" />
  <path d="M 600.44,285.47 C 601.51,284.66 602.86,284.01 603.44,284.03 C 604.02,284.05 603.63,284.72 602.56,285.53 C 601.49,286.34 600.14,286.99 599.56,286.97 C 598.98,286.95 599.37,286.28 600.44,285.47" fill="none" stroke="black" stroke-width="1.2" stroke-linecap="round" stroke-linejoin="round" />
  <path d="M 611.87,284.25 C 610.63,282.66 610.66,282.63 612.25,283.87 C 613.92,285.18 614.45,286.00 613.62,286.00 C 613.41,286.00 612.63,285.21 611.87,284.25" fill="none" stroke="black" stroke-width="1.2" stroke-linecap="round" stroke-linejoin="round" />
  <path d="M 363.00,280.65 C 363.00,278.87 365.12,276.14 368.52,273.55 C 373.90,269.45 373.63,270.96 367.98,276.52 C 365.24,279.22 363.00,281.07 363.00,280.65" fill="none" stroke="black" stroke-width="1.2" stroke-linecap="round" stroke-linejoin="round" />
  <path d="M 367.13,276.25 C 368.37,274.66 368.34,274.63 366.75,275.87 C 365.08,277.18 364.55,278.00 365.38,278.00 C 365.59,278.00 366.37,277.21 367.13,276.25" fill="none" stroke="black" stroke-width="1.2" stroke-linecap="round" stroke-linejoin="round" />
  <path d="M 380.16,279.00 C 380.16,277.62 380.38,277.06 380.66,277.75 C 380.94,278.44 380.94,279.56 380.66,280.25 C 380.38,280.94 380.16,280.38 380.16,279.00" fill="none" stroke="black" stroke-width="1.2" stroke-linecap="round" stroke-linejoin="round" />
  <path d="M 292.13,277.71 C 293.58,276.50 295.52,274.00 296.45,272.16 C 297.39,270.32 298.37,269.04 298.64,269.31 C 299.52,270.19 295.06,277.90 293.06,278.97 C 289.83,280.70 289.35,280.06 292.13,277.71" fill="none" stroke="black" stroke-width="1.2" stroke-linecap="round" stroke-linejoin="round" />
  <path d="M 609.08,275.42 C 609.13,274.25 609.36,274.01 609.68,274.81 C 609.97,275.53 609.94,276.40 609.60,276.73 C 609.27,277.06 609.04,276.47 609.08,275.42" fill="none" stroke="black" stroke-width="1.2" stroke-linecap="round" stroke-linejoin="round" />
  <path d="M 379.46,272.93 C 379.10,272.35 379.01,271.65 379.28,271.39 C 379.54,271.13 380.02,271.61 380.35,272.46 C 381.02,274.22 380.44,274.53 379.46,272.93" fill="none" stroke="black" stroke-width="1.2" stroke-linecap="round" stroke-linejoin="round" />
  <path d="M 622.06,273.62 C 621.93,271.71 626.25,266.04 630.43,262.61 C 637.18,257.08 637.22,258.34 630.50,264.76 C 627.20,267.92 623.96,271.40 623.31,272.50 C 622.65,273.60 622.09,274.10 622.06,273.62" fill="none" stroke="black" stroke-width="1.2" stroke-linecap="round" stroke-linejoin="round" />
  <path d="M 292.62,255.15 C 294.48,251.83 303.68,243.35 304.51,244.18 C 304.75,244.42 301.75,247.74 297.84,251.55 C 292.26,257.00 291.14,257.78 292.62,255.15" fill="none" stroke="black" stroke-width="1.2" stroke-linecap="round" stroke-linejoin="round" />
  <path d="M 297.50,251.00 C 298.50,249.90 299.08,249.00 298.81,249.00 C 298.53,249.00 297.50,249.90 296.50,251.00 C 295.50,252.10 294.92,253.00 295.19,253.00 C 295.47,253.00 296.50,252.10 297.50,251.00" fill="none" stroke="black" stroke-width="1.2" stroke-linecap="round" stroke-linejoin="round" />
  <path d="M 61.16,253.00 C 61.16,251.62 61.38,251.06 61.66,251.75 C 61.94,252.44 61.94,253.56 61.66,254.25 C 61.38,254.94 61.16,254.38 61.16,253.00" fill="none" stroke="black" stroke-width="1.2" stroke-linecap="round" stroke-linejoin="round" />
  <path d="M 61.36,238.00 C 61.36,232.78 61.53,230.64 61.74,233.25 C 61.94,235.86 61.94,240.14 61.74,242.75 C 61.53,245.36 61.36,243.22 61.36,238.00" fill="none" stroke="black" stroke-width="1.2" stroke-linecap="round" stroke-linejoin="round" />
  <path d="M 228.00,229.12 C 228.00,228.57 228.45,227.84 229.00,227.50 C 229.55,227.16 230.00,227.33 230.00,227.88 C 230.00,228.43 229.55,229.16 229.00,229.50 C 228.45,229.84 228.00,229.67 228.00,229.12" fill="none" stroke="black" stroke-width="1.2" stroke-linecap="round" stroke-linejoin="round" />
  <path d="M 61.23,223.00 C 61.23,221.07 61.44,220.29 61.69,221.25 C 61.94,222.21 61.94,223.79 61.69,224.75 C 61.44,225.71 61.23,224.93 61.23,223.00" fill="none" stroke="black" stroke-width="1.2" stroke-linecap="round" stroke-linejoin="round" />
  <path d="M 61.08,214.42 C 61.13,213.25 61.36,213.01 61.68,213.81 C 61.97,214.53 61.94,215.40 61.60,215.73 C 61.27,216.06 61.04,215.47 61.08,214.42" fill="none" stroke="black" stroke-width="1.2" stroke-linecap="round" stroke-linejoin="round" />
  <path d="M 508.50,215.00 C 508.84,214.45 509.57,214.00 510.12,214.00 C 510.67,214.00 510.84,214.45 510.50,215.00 C 510.16,215.55 509.43,216.00 508.88,216.00 C 508.33,216.00 508.16,215.55 508.50,215.00" fill="none" stroke="black" stroke-width="1.2" stroke-linecap="round" stroke-linejoin="round" />
  <path d="M 57.00,204.12 C 57.00,203.57 57.45,202.84 58.00,202.50 C 58.55,202.16 59.00,202.33 59.00,202.88 C 59.00,203.43 58.55,204.16 58.00,204.50 C 57.45,204.84 57.00,204.67 57.00,204.12" fill="none" stroke="black" stroke-width="1.2" stroke-linecap="round" stroke-linejoin="round" />
  <path d="M 65.86,200.31 C 67.13,197.87 69.00,196.38 69.00,197.79 C 69.00,198.28 68.03,199.55 66.85,200.60 C 64.72,202.49 64.72,202.48 65.86,200.31" fill="none" stroke="black" stroke-width="1.2" stroke-linecap="round" stroke-linejoin="round" />
  <path d="M 522.87,200.25 C 525.76,194.88 541.15,169.19 542.49,167.50 C 543.36,166.40 542.19,169.10 539.88,173.50 C 535.55,181.77 523.11,202.00 522.36,202.00 C 522.12,202.00 522.35,201.21 522.87,200.25" fill="none" stroke="black" stroke-width="1.2" stroke-linecap="round" stroke-linejoin="round" />
  <path d="M 496.34,192.50 C 496.35,188.10 496.52,186.42 496.73,188.78 C 496.94,191.13 496.94,194.73 496.73,196.78 C 496.51,198.82 496.34,196.90 496.34,192.50" fill="none" stroke="black" stroke-width="1.2" stroke-linecap="round" stroke-linejoin="round" />
  <path d="M 75.00,196.53 C 75.00,195.73 81.15,192.82 81.69,193.35 C 81.96,193.63 80.82,194.56 79.14,195.43 C 75.97,197.07 75.00,197.32 75.00,196.53" fill="none" stroke="black" stroke-width="1.2" stroke-linecap="round" stroke-linejoin="round" />
  <path d="M 56.08,193.42 C 56.13,192.25 56.36,192.01 56.68,192.81 C 56.97,193.53 56.94,194.40 56.60,194.73 C 56.27,195.06 56.04,194.47 56.08,193.42" fill="none" stroke="black" stroke-width="1.2" stroke-linecap="round" stroke-linejoin="round" />
  <path d="M 266.66,187.30 C 270.06,184.11 273.60,180.25 274.55,178.72 C 275.50,177.19 276.49,176.16 276.76,176.43 C 277.69,177.36 266.51,190.20 263.50,191.65 C 261.28,192.73 262.10,191.60 266.66,187.30" fill="none" stroke="black" stroke-width="1.2" stroke-linecap="round" stroke-linejoin="round" />
  <path d="M 188.16,189.00 C 188.16,187.62 188.38,187.06 188.66,187.75 C 188.94,188.44 188.94,189.56 188.66,190.25 C 188.38,190.94 188.16,190.38 188.16,189.00" fill="none" stroke="black" stroke-width="1.2" stroke-linecap="round" stroke-linejoin="round" />
  <path d="M 91.00,188.51 C 91.00,188.24 94.71,186.17 99.25,183.91 C 103.79,181.64 113.25,176.17 120.28,171.75 C 127.30,167.33 133.27,163.94 133.54,164.21 C 134.43,165.10 93.93,189.00 91.53,189.00 C 91.24,189.00 91.00,188.78 91.00,188.51" fill="none" stroke="black" stroke-width="1.2" stroke-linecap="round" stroke-linejoin="round" />
  <path d="M 295.00,184.52 C 295.00,183.72 303.16,179.82 303.69,180.36 C 303.97,180.64 302.37,181.79 300.14,182.93 C 295.97,185.05 295.00,185.36 295.00,184.52" fill="none" stroke="black" stroke-width="1.2" stroke-linecap="round" stroke-linejoin="round" />
  <path d="M 55.29,177.50 C 55.29,174.75 55.49,173.74 55.72,175.26 C 55.95,176.78 55.94,179.03 55.70,180.26 C 55.47,181.49 55.28,180.25 55.29,177.50" fill="none" stroke="black" stroke-width="1.2" stroke-linecap="round" stroke-linejoin="round" />
  <path d="M 204.00,180.64 C 204.00,179.55 209.97,168.00 210.53,168.00 C 210.80,168.00 209.62,170.81 207.90,174.25 C 204.63,180.77 204.00,181.80 204.00,180.64" fill="none" stroke="black" stroke-width="1.2" stroke-linecap="round" stroke-linejoin="round" />
  <path d="M 284.16,178.00 C 284.16,176.62 284.38,176.06 284.66,176.75 C 284.94,177.44 284.94,178.56 284.66,179.25 C 284.38,179.94 284.16,179.38 284.16,178.00" fill="none" stroke="black" stroke-width="1.2" stroke-linecap="round" stroke-linejoin="round" />
  <path d="M 249.34,170.00 C 249.34,165.88 249.51,164.19 249.73,166.25 C 249.94,168.31 249.94,171.69 249.73,173.75 C 249.51,175.81 249.34,174.12 249.34,170.00" fill="none" stroke="black" stroke-width="1.2" stroke-linecap="round" stroke-linejoin="round" />
  <path d="M 348.66,170.75 C 352.96,166.34 357.62,159.57 364.51,147.72 C 369.88,138.49 374.50,131.17 374.78,131.44 C 375.05,131.72 370.50,139.95 364.66,149.72 C 354.34,167.01 346.75,177.00 343.94,177.00 C 343.18,177.00 345.30,174.19 348.66,170.75" fill="none" stroke="black" stroke-width="1.2" stroke-linecap="round" stroke-linejoin="round" />
  <path d="M 348.13,173.25 C 349.37,171.66 349.34,171.63 347.75,172.87 C 346.79,173.63 346.00,174.41 346.00,174.62 C 346.00,175.45 346.82,174.92 348.13,173.25" fill="none" stroke="black" stroke-width="1.2" stroke-linecap="round" stroke-linejoin="round" />
  <path d="M 497.16,175.00 C 497.16,173.62 497.38,173.06 497.66,173.75 C 497.94,174.44 497.94,175.56 497.66,176.25 C 497.38,176.94 497.16,176.38 497.16,175.00" fill="none" stroke="black" stroke-width="1.2" stroke-linecap="round" stroke-linejoin="round" />
  <path d="M 627.91,172.25 C 632.36,166.78 634.00,165.30 634.00,166.73 C 634.00,167.19 631.67,169.81 628.82,172.54 L 623.64,177.50 L 627.91,172.25" fill="none" stroke="black" stroke-width="1.2" stroke-linecap="round" stroke-linejoin="round" />
  <path d="M 390.14,171.73 C 392.69,169.40 396.91,163.99 399.52,159.71 C 402.12,155.43 404.48,152.14 404.75,152.41 C 405.59,153.26 394.01,170.81 390.85,173.47 C 385.80,177.72 385.19,176.24 390.14,171.73" fill="none" stroke="black" stroke-width="1.2" stroke-linecap="round" stroke-linejoin="round" />
  <path d="M 671.62,170.95 C 674.44,167.95 678.43,162.44 680.49,158.70 C 682.55,154.96 684.47,152.13 684.75,152.42 C 685.95,153.61 675.28,169.45 671.00,172.83 C 666.50,176.40 666.50,176.40 671.62,170.95" fill="none" stroke="black" stroke-width="1.2" stroke-linecap="round" stroke-linejoin="round" />
  <path d="M 593.46,173.93 C 593.10,173.35 593.01,172.65 593.28,172.39 C 593.54,172.13 594.02,172.61 594.35,173.46 C 595.02,175.22 594.44,175.53 593.46,173.93" fill="none" stroke="black" stroke-width="1.2" stroke-linecap="round" stroke-linejoin="round" />
  <path d="M 602.50,174.00 C 602.84,173.45 603.57,173.00 604.12,173.00 C 604.67,173.00 604.84,173.45 604.50,174.00 C 604.16,174.55 603.43,175.00 602.88,175.00 C 602.33,175.00 602.16,174.55 602.50,174.00" fill="none" stroke="black" stroke-width="1.2" stroke-linecap="round" stroke-linejoin="round" />
  <path d="M 660.46,173.93 C 660.10,173.35 660.01,172.65 660.28,172.39 C 660.54,172.13 661.02,172.61 661.35,173.46 C 662.02,175.22 661.44,175.53 660.46,173.93" fill="none" stroke="black" stroke-width="1.2" stroke-linecap="round" stroke-linejoin="round" />
  <path d="M 379.46,172.93 C 379.10,172.35 379.01,171.65 379.28,171.39 C 379.54,171.13 380.02,171.61 380.35,172.46 C 381.02,174.22 380.44,174.53 379.46,172.93" fill="none" stroke="black" stroke-width="1.2" stroke-linecap="round" stroke-linejoin="round" />
  <path d="M 235.00,172.12 C 235.00,171.57 235.45,170.84 236.00,170.50 C 236.55,170.16 237.00,170.33 237.00,170.88 C 237.00,171.43 236.55,172.16 236.00,172.50 C 235.45,172.84 235.00,172.67 235.00,172.12" fill="none" stroke="black" stroke-width="1.2" stroke-linecap="round" stroke-linejoin="round" />
  <path d="M 616.08,169.42 C 616.13,168.25 616.36,168.01 616.68,168.81 C 616.97,169.53 616.94,170.40 616.60,170.73 C 616.27,171.06 616.04,170.47 616.08,169.42" fill="none" stroke="black" stroke-width="1.2" stroke-linecap="round" stroke-linejoin="round" />
  <path d="M 55.37,157.50 C 55.38,151.45 55.54,149.10 55.74,152.29 C 55.94,155.47 55.94,160.42 55.74,163.29 C 55.53,166.15 55.37,163.55 55.37,157.50" fill="none" stroke="black" stroke-width="1.2" stroke-linecap="round" stroke-linejoin="round" />
  <path d="M 591.32,160.00 C 591.32,156.43 591.50,154.96 591.72,156.75 C 591.95,158.54 591.95,161.46 591.72,163.25 C 591.50,165.04 591.32,163.57 591.32,160.00" fill="none" stroke="black" stroke-width="1.2" stroke-linecap="round" stroke-linejoin="round" />
  <path d="M 215.55,158.25 C 219.42,151.23 221.00,148.98 221.00,150.49 C 221.00,151.58 212.95,165.00 212.30,165.00 C 212.04,165.00 213.50,161.96 215.55,158.25" fill="none" stroke="black" stroke-width="1.2" stroke-linecap="round" stroke-linejoin="round" />
  <path d="M 377.23,161.00 C 377.23,159.07 377.44,158.29 377.69,159.25 C 377.94,160.21 377.94,161.79 377.69,162.75 C 377.44,163.71 377.23,162.93 377.23,161.00" fill="none" stroke="black" stroke-width="1.2" stroke-linecap="round" stroke-linejoin="round" />
  <path d="M 336.16,161.00 C 336.16,159.62 336.38,159.06 336.66,159.75 C 336.94,160.44 336.94,161.56 336.66,162.25 C 336.38,162.94 336.16,162.38 336.16,161.00" fill="none" stroke="black" stroke-width="1.2" stroke-linecap="round" stroke-linejoin="round" />
  <path d="M 575.03,153.25 C 577.89,147.89 580.92,142.82 581.76,142.00 C 583.61,140.18 583.67,140.05 576.54,152.75 C 573.38,158.39 570.57,163.00 570.31,163.00 C 570.04,163.00 572.17,158.61 575.03,153.25" fill="none" stroke="black" stroke-width="1.2" stroke-linecap="round" stroke-linejoin="round" />
  <path d="M 636.60,162.00 C 637.01,161.18 639.01,158.03 641.04,155.00 C 643.07,151.97 646.62,145.74 648.93,141.15 C 651.24,136.55 653.37,133.04 653.67,133.34 C 654.41,134.08 641.71,156.74 638.46,160.50 C 637.03,162.15 636.19,162.82 636.60,162.00" fill="none" stroke="black" stroke-width="1.2" stroke-linecap="round" stroke-linejoin="round" />
  <path d="M 658.16,161.00 C 658.16,159.62 658.38,159.06 658.66,159.75 C 658.94,160.44 658.94,161.56 658.66,162.25 C 658.38,162.94 658.16,162.38 658.16,161.00" fill="none" stroke="black" stroke-width="1.2" stroke-linecap="round" stroke-linejoin="round" />
  <path d="M 138.50,160.00 C 138.84,159.45 139.57,159.00 140.12,159.00 C 140.67,159.00 140.84,159.45 140.50,160.00 C 140.16,160.55 139.43,161.00 138.88,161.00 C 138.33,161.00 138.16,160.55 138.50,160.00" fill="none" stroke="black" stroke-width="1.2" stroke-linecap="round" stroke-linejoin="round" />
  <path d="M 658.16,153.00 C 658.16,151.62 658.38,151.06 658.66,151.75 C 658.94,152.44 658.94,153.56 658.66,154.25 C 658.38,154.94 658.16,154.38 658.16,153.00" fill="none" stroke="black" stroke-width="1.2" stroke-linecap="round" stroke-linejoin="round" />
  <path d="M 150.50,151.00 C 150.84,150.45 151.57,150.00 152.12,150.00 C 152.67,150.00 152.84,150.45 152.50,151.00 C 152.16,151.55 151.43,152.00 150.88,152.00 C 150.33,152.00 150.16,151.55 150.50,151.00" fill="none" stroke="black" stroke-width="1.2" stroke-linecap="round" stroke-linejoin="round" />
  <path d="M 378.08,148.42 C 378.13,147.25 378.36,147.01 378.68,147.81 C 378.97,148.53 378.94,149.40 378.60,149.73 C 378.27,150.06 378.04,149.47 378.08,148.42" fill="none" stroke="black" stroke-width="1.2" stroke-linecap="round" stroke-linejoin="round" />
  <path d="M 308.08,140.42 C 308.13,139.25 308.36,139.01 308.68,139.81 C 308.97,140.53 308.94,141.40 308.60,141.73 C 308.27,142.06 308.04,141.47 308.08,140.42" fill="none" stroke="black" stroke-width="1.2" stroke-linecap="round" stroke-linejoin="round" />
  <path d="M 56.16,139.00 C 56.16,137.62 56.38,137.06 56.66,137.75 C 56.94,138.44 56.94,139.56 56.66,140.25 C 56.38,140.94 56.16,140.38 56.16,139.00" fill="none" stroke="black" stroke-width="1.2" stroke-linecap="round" stroke-linejoin="round" />
  <path d="M 660.08,137.42 C 660.13,136.25 660.36,136.01 660.68,136.81 C 660.97,137.53 660.94,138.40 660.60,138.73 C 660.27,139.06 660.04,138.47 660.08,137.42" fill="none" stroke="black" stroke-width="1.2" stroke-linecap="round" stroke-linejoin="round" />
  <path d="M 167.50,136.00 C 168.50,134.90 169.53,134.00 169.81,134.00 C 170.08,134.00 169.50,134.90 168.50,136.00 C 167.50,137.10 166.47,138.00 166.19,138.00 C 165.92,138.00 166.50,137.10 167.50,136.00" fill="none" stroke="black" stroke-width="1.2" stroke-linecap="round" stroke-linejoin="round" />
  <path d="M 584.03,137.44 C 584.01,136.86 584.66,135.51 585.47,134.44 C 586.28,133.37 586.95,132.98 586.97,133.56 C 586.99,134.14 586.34,135.49 585.53,136.56 C 584.72,137.63 584.05,138.02 584.03,137.44" fill="none" stroke="black" stroke-width="1.2" stroke-linecap="round" stroke-linejoin="round" />
  <path d="M 597.75,133.34 C 598.44,133.06 599.56,133.06 600.25,133.34 C 600.94,133.62 600.38,133.84 599.00,133.84 C 597.62,133.84 597.06,133.62 597.75,133.34" fill="none" stroke="black" stroke-width="1.2" stroke-linecap="round" stroke-linejoin="round" />
  <path d="M 57.07,129.92 C 57.11,129.14 57.54,127.60 58.03,126.50 C 58.81,124.78 58.89,124.87 58.67,127.21 C 58.40,130.00 56.94,132.46 57.07,129.92" fill="none" stroke="black" stroke-width="1.2" stroke-linecap="round" stroke-linejoin="round" />
  <path d="M 304.44,128.47 C 305.51,127.66 306.86,127.01 307.44,127.03 C 308.02,127.05 307.63,127.72 306.56,128.53 C 305.49,129.34 304.14,129.99 303.56,129.97 C 302.98,129.95 303.37,129.28 304.44,128.47" fill="none" stroke="black" stroke-width="1.2" stroke-linecap="round" stroke-linejoin="round" />
  <path d="M 182.00,119.11 C 182.00,118.62 182.92,117.16 184.05,115.86 C 186.10,113.50 186.10,113.50 184.52,116.75 C 182.97,119.95 182.00,120.86 182.00,119.11" fill="none" stroke="black" stroke-width="1.2" stroke-linecap="round" stroke-linejoin="round" />
  <path d="M 62.16,111.00 C 62.16,109.62 62.38,109.06 62.66,109.75 C 62.94,110.44 62.94,111.56 62.66,112.25 C 62.38,112.94 62.16,112.38 62.16,111.00" fill="none" stroke="black" stroke-width="1.2" stroke-linecap="round" stroke-linejoin="round" />
  <path d="M 187.03,110.44 C 187.01,109.86 187.66,108.51 188.47,107.44 C 189.28,106.37 189.95,105.98 189.97,106.56 C 189.99,107.14 189.34,108.49 188.53,109.56 C 187.72,110.63 187.05,111.02 187.03,110.44" fill="none" stroke="black" stroke-width="1.2" stroke-linecap="round" stroke-linejoin="round" />
  <path d="M 193.08,90.42 C 193.13,89.25 193.36,89.01 193.68,89.81 C 193.97,90.53 193.94,91.40 193.60,91.73 C 193.27,92.06 193.04,91.47 193.08,90.42" fill="none" stroke="black" stroke-width="1.2" stroke-linecap="round" stroke-linejoin="round" />
  <path d="M 73.61,86.75 C 76.63,81.58 80.32,77.04 82.69,75.58 C 85.47,73.88 85.47,73.90 82.43,76.68 C 80.75,78.23 78.10,81.41 76.55,83.75 C 74.00,87.59 71.82,89.81 73.61,86.75" fill="none" stroke="black" stroke-width="1.2" stroke-linecap="round" stroke-linejoin="round" />
  <path d="M 178.75,67.43 C 177.24,66.61 176.00,65.73 176.00,65.47 C 176.00,64.42 177.92,65.11 180.14,66.97 C 182.95,69.31 182.50,69.46 178.75,67.43" fill="none" stroke="black" stroke-width="1.2" stroke-linecap="round" stroke-linejoin="round" />
  <path d="M 101.50,64.00 C 101.84,63.45 102.57,63.00 103.12,63.00 C 103.67,63.00 103.84,63.45 103.50,64.00 C 103.16,64.55 102.43,65.00 101.88,65.00 C 101.33,65.00 101.16,64.55 101.50,64.00" fill="none" stroke="black" stroke-width="1.2" stroke-linecap="round" stroke-linejoin="round" />
  <path d="M 130.25,58.26 C 133.96,58.07 140.04,58.07 143.75,58.26 C 147.46,58.45 144.43,58.61 137.00,58.61 C 129.57,58.61 126.54,58.45 130.25,58.26" fill="none" stroke="black" stroke-width="1.2" stroke-linecap="round" stroke-linejoin="round" />
</svg>
