<svg xmlns="http://www.w3.org/2000/svg" viewBox="0 0 299 163" width="299" height="163">
  <path d="M 120.00,147.12 C 120.00,146.00 120.51,141.67 121.13,137.50 C 121.75,133.33 122.03,129.70 121.76,129.42 C 121.48,129.15 120.07,129.47 118.63,130.12 C 114.05,132.21 114.32,129.95 119.16,125.64 C 123.16,122.09 123.93,120.79 124.54,116.50 L 125.26,111.50 L 122.88,113.63 C 119.04,117.08 114.02,119.22 111.36,118.55 C 108.81,117.91 107.00,114.54 107.00,110.43 C 107.00,106.78 104.90,107.54 101.13,112.53 C 99.28,114.99 97.29,117.00 96.71,117.00 C 96.13,117.00 94.85,117.73 93.87,118.62 C 90.62,121.56 89.02,119.73 89.62,113.80 C 90.28,107.38 89.72,107.96 83.45,120.25 C 80.58,125.86 78.39,129.00 77.35,129.00 C 75.91,129.00 75.80,128.00 76.39,120.89 L 77.07,112.78 L 73.28,115.75 C 68.41,119.57 65.63,121.00 63.09,121.00 C 61.71,121.00 60.38,122.30 59.00,125.00 C 54.51,133.80 53.86,127.79 57.09,107.50 C 58.24,100.35 59.39,92.47 59.66,90.00 C 60.26,84.56 61.88,80.00 63.23,80.00 C 63.77,80.00 63.91,80.79 63.54,81.75 C 61.98,85.81 55.74,124.06 56.51,124.84 C 56.70,125.03 58.68,121.36 60.91,116.69 C 64.89,108.35 69.29,102.00 71.09,102.00 C 72.77,102.00 72.03,103.70 66.95,111.48 C 64.17,115.74 62.10,119.43 62.35,119.69 C 63.08,120.42 69.12,117.02 73.61,113.35 C 77.61,110.08 77.78,109.68 79.96,98.74 C 81.20,92.56 82.32,86.02 82.47,84.22 C 82.73,80.86 83.57,79.24 84.55,80.22 C 84.85,80.52 83.72,87.91 82.04,96.63 C 78.67,114.11 77.02,126.00 77.97,126.00 C 78.31,126.00 79.80,123.52 81.29,120.49 C 85.52,111.85 88.88,107.00 90.63,107.00 C 91.99,107.00 92.13,107.84 91.54,112.50 C 91.17,115.53 91.24,118.00 91.71,118.00 C 92.45,118.00 96.81,111.81 100.61,105.38 C 101.53,103.82 102.18,103.68 104.55,104.51 C 106.90,105.34 107.58,106.36 108.45,110.40 C 110.29,118.96 114.98,119.11 123.22,110.88 L 128.25,105.84 L 127.68,109.67 L 127.11,113.50 L 128.44,109.42 C 131.67,99.55 136.02,94.94 138.67,98.56 C 140.42,100.95 140.36,101.51 137.64,108.12 L 135.33,113.74 L 140.68,111.29 C 149.09,107.44 149.09,109.16 140.69,113.31 C 129.57,118.80 127.27,122.16 124.61,136.74 C 123.39,143.48 121.98,148.52 121.25,148.76 C 120.52,148.99 120.00,148.31 120.00,147.12 Z M 123.00,125.43 C 123.00,125.15 122.10,125.41 121.00,126.00 C 119.90,126.59 119.00,127.30 119.00,127.57 C 119.00,127.85 119.90,127.59 121.00,127.00 C 122.10,126.41 123.00,125.70 123.00,125.43 Z M 131.28,116.25 C 133.58,113.70 137.98,103.88 137.99,101.25 C 138.00,98.32 135.65,98.36 133.71,101.32 C 132.50,103.17 128.00,116.00 128.00,117.61 C 128.00,118.60 129.84,117.84 131.28,116.25 Z M 103.93,105.50 C 103.93,104.95 102.83,105.76 101.47,107.31 C 100.11,108.85 99.00,110.65 99.00,111.31 C 99.01,111.96 100.12,111.15 101.47,109.50 C 102.82,107.85 103.93,106.05 103.93,105.50 Z M 195.38,120.28 L 196.05,111.56 L 192.77,114.68 C 188.23,119.01 182.07,123.00 179.93,123.00 C 177.24,123.00 176.68,119.61 178.40,113.70 C 180.11,107.81 183.97,103.39 186.53,104.37 C 188.37,105.08 188.08,107.14 186.05,107.82 C 185.19,108.10 185.00,107.82 185.50,107.00 C 186.01,106.18 185.80,105.89 184.89,106.17 C 182.95,106.77 179.00,114.85 179.00,118.21 C 179.00,121.99 181.12,121.82 186.87,117.58 C 195.76,111.03 196.73,109.46 198.96,97.99 C 200.08,92.22 201.00,86.38 201.01,85.00 C 201.03,82.25 202.56,79.22 203.46,80.13 C 203.78,80.45 202.71,87.41 201.09,95.60 C 197.83,112.12 195.74,126.07 196.43,126.76 C 196.67,127.01 198.65,123.67 200.82,119.35 C 203.00,115.03 205.65,110.42 206.72,109.09 C 209.68,105.45 211.18,107.15 210.38,113.23 C 209.54,119.49 210.69,119.08 215.65,111.33 C 219.37,105.52 222.22,104.55 222.84,108.89 C 223.15,111.10 223.49,111.22 227.84,110.65 C 230.40,110.32 233.56,109.75 234.86,109.38 C 237.00,108.77 237.15,108.94 236.46,111.10 C 234.87,116.07 234.23,120.03 234.96,120.47 C 235.37,120.73 238.60,117.46 242.13,113.22 C 250.05,103.71 252.46,103.09 252.58,110.50 C 252.70,118.39 252.62,118.25 255.88,116.56 C 257.47,115.74 259.96,113.65 261.42,111.91 C 262.89,110.17 264.40,109.06 264.78,109.45 C 265.17,109.83 263.34,112.17 260.73,114.64 C 257.45,117.74 255.28,119.04 253.74,118.82 C 251.75,118.53 251.45,117.79 251.00,112.00 L 250.50,105.50 L 246.50,110.40 C 238.25,120.51 236.74,122.00 234.76,122.00 C 232.89,122.00 232.78,121.57 233.35,116.64 L 233.98,111.28 L 228.51,112.39 C 224.80,113.14 222.52,114.23 221.46,115.75 C 219.83,118.09 216.58,118.75 215.49,116.98 C 215.12,116.38 214.12,116.86 213.08,118.15 C 211.94,119.56 210.71,120.10 209.62,119.68 C 208.21,119.14 208.03,118.14 208.52,113.77 L 209.12,108.50 L 206.81,112.13 C 205.54,114.12 202.93,118.73 201.00,122.37 C 196.00,131.82 194.53,131.27 195.38,120.28 Z M 220.42,114.36 C 220.76,113.45 220.83,112.50 220.57,112.23 C 219.64,111.30 217.00,112.96 217.00,114.47 C 217.00,116.52 219.62,116.43 220.42,114.36 Z M 221.10,108.70 C 219.82,107.42 218.52,108.41 219.47,109.95 C 219.84,110.55 220.60,110.75 221.16,110.40 C 221.84,109.98 221.82,109.42 221.10,108.70 Z M 217.75,103.01 C 219.54,101.92 221.00,100.35 221.00,99.51 C 221.00,98.68 221.45,98.00 222.00,98.00 C 222.55,98.00 223.00,99.07 223.00,100.38 C 223.00,101.97 223.75,103.01 225.25,103.49 C 227.21,104.12 227.26,104.27 225.70,104.69 C 224.71,104.95 223.35,104.70 222.67,104.14 C 221.89,103.49 220.89,103.46 219.97,104.04 C 219.16,104.55 217.60,104.97 216.50,104.98 C 214.93,104.99 215.19,104.57 217.75,103.01 Z M 102.59,100.83 C 100.91,98.42 100.31,93.88 101.90,95.55 C 102.40,96.07 102.97,97.40 103.17,98.50 C 103.70,101.46 106.27,100.93 107.91,97.51 C 108.79,95.68 109.51,95.04 109.79,95.86 C 110.27,97.30 107.10,102.13 105.28,102.74 C 104.68,102.94 103.47,102.08 102.59,100.83 Z M 226.00,99.38 C 226.00,97.82 230.99,92.65 231.75,93.42 C 232.11,93.77 230.96,95.50 229.20,97.26 C 227.44,99.02 226.00,99.97 226.00,99.38 Z M 105.00,94.15 C 105.00,92.78 109.78,88.00 111.15,88.00 C 111.83,88.00 110.87,89.58 109.00,91.50 C 105.38,95.23 105.00,95.48 105.00,94.15 Z M 21.04,89.75 C 21.17,87.41 21.21,83.31 21.13,80.62 L 21.00,75.75 L 17.75,76.36 C 14.72,76.92 14.63,76.87 16.44,75.48 C 17.51,74.67 18.81,74.00 19.34,74.00 C 19.90,74.00 20.07,71.06 19.74,66.75 C 18.50,50.20 22.08,35.15 29.02,27.86 C 31.13,25.64 33.13,23.09 33.48,22.19 C 33.96,20.95 34.30,20.86 34.89,21.82 C 35.49,22.79 36.34,22.82 38.58,21.97 C 42.58,20.45 56.82,20.46 61.59,21.99 C 74.59,26.15 74.17,38.06 60.59,50.76 C 53.26,57.62 44.77,63.37 33.25,69.27 C 23.87,74.08 23.47,74.84 23.71,87.25 C 23.82,92.66 23.54,94.00 22.33,94.00 C 21.18,94.00 20.87,92.97 21.04,89.75 Z M 22.68,74.81 C 22.36,74.01 22.13,74.25 22.08,75.42 C 22.04,76.47 22.27,77.06 22.60,76.73 C 22.94,76.40 22.97,75.53 22.68,74.81 Z M 27.88,49.63 C 30.20,37.61 31.91,27.57 31.67,27.34 C 30.74,26.40 24.85,35.77 23.39,40.49 C 20.68,49.31 20.28,75.42 22.90,72.38 C 23.31,71.90 25.55,61.66 27.88,49.63 Z M 35.32,66.28 C 58.36,54.38 73.06,38.21 68.87,29.38 C 65.91,23.15 51.10,20.09 39.82,23.36 L 34.29,24.97 L 31.12,40.85 C 26.09,66.05 25.20,71.00 25.71,71.00 C 25.97,71.00 30.30,68.88 35.32,66.28 Z M 180.85,76.25 C 179.46,72.78 181.14,54.52 184.39,37.75 C 185.64,31.29 186.28,26.00 185.81,26.00 C 185.34,26.00 185.73,24.81 186.68,23.36 C 189.28,19.40 189.36,21.84 187.01,33.18 C 182.35,55.69 180.73,73.57 183.05,77.00 C 183.89,78.25 184.66,77.83 187.62,74.50 C 189.57,72.30 193.24,66.79 195.77,62.25 C 198.31,57.71 200.73,54.00 201.17,54.00 C 201.61,54.00 201.68,56.07 201.33,58.60 C 200.76,62.75 200.89,63.17 202.60,62.84 C 203.72,62.63 206.41,59.26 209.15,54.64 C 215.08,44.64 215.62,44.10 217.35,46.47 C 218.68,48.28 218.75,48.28 219.83,46.42 C 220.88,44.60 220.94,44.62 220.97,46.75 C 220.99,48.30 220.41,49.00 219.12,49.00 C 217.59,49.00 217.10,50.01 216.57,54.30 C 215.90,59.61 216.48,63.00 218.06,63.00 C 218.52,63.00 220.13,61.31 221.64,59.25 C 226.03,53.26 226.31,53.15 225.63,57.69 C 224.94,62.24 226.13,63.97 228.55,61.96 C 229.36,61.29 232.13,57.19 234.71,52.85 C 237.29,48.52 239.87,45.13 240.45,45.32 C 241.11,45.55 241.37,48.87 241.14,54.34 C 240.93,59.31 241.18,63.00 241.71,63.00 C 242.94,63.00 246.40,59.17 248.04,56.00 C 248.80,54.53 249.51,54.02 249.75,54.75 C 250.32,56.47 246.28,62.78 243.74,64.14 C 240.17,66.05 238.71,62.81 239.39,54.50 L 239.97,47.50 L 236.73,52.94 C 232.06,60.80 227.66,65.47 225.65,64.70 C 224.74,64.35 224.00,63.06 224.00,61.84 C 224.00,59.66 223.95,59.67 221.20,62.31 C 219.65,63.79 217.86,65.00 217.21,65.00 C 215.45,65.00 214.67,60.54 215.27,53.91 C 215.57,50.66 215.66,48.00 215.48,48.00 C 215.29,48.00 213.47,50.81 211.42,54.25 C 206.79,62.00 204.15,65.00 201.94,65.00 C 201.00,65.00 199.95,63.99 199.60,62.75 C 199.03,60.74 198.62,61.07 195.73,65.93 C 191.34,73.30 186.17,79.00 183.86,79.00 C 182.71,79.00 181.51,77.90 180.85,76.25 Z M 68.36,73.49 C 67.49,71.22 68.47,62.90 71.56,46.50 C 73.01,38.80 74.18,31.29 74.17,29.82 C 74.15,28.34 74.78,26.60 75.57,25.94 C 77.55,24.30 77.47,25.25 74.47,39.76 C 72.02,51.61 68.96,71.22 69.47,71.78 C 69.61,71.93 72.18,67.65 75.20,62.28 C 81.65,50.75 83.62,49.78 83.23,58.32 C 82.93,64.93 83.58,64.95 87.66,58.50 C 89.22,56.03 90.84,54.00 91.25,54.00 C 91.66,54.00 92.00,57.16 92.00,61.03 C 92.00,72.10 95.73,71.52 102.94,59.31 C 107.05,52.34 109.88,49.00 111.67,49.00 C 115.14,49.00 112.07,54.79 107.80,56.30 C 105.90,56.97 103.40,64.80 104.68,66.08 C 105.95,67.34 111.17,64.39 117.28,58.94 C 120.33,56.22 123.11,54.00 123.47,54.00 C 123.83,54.00 123.82,56.02 123.45,58.50 C 122.16,67.08 126.33,63.73 134.39,49.69 C 138.37,42.76 139.57,43.93 139.15,54.33 C 138.95,59.24 139.20,63.00 139.72,63.00 C 140.94,63.00 144.41,59.16 146.04,56.00 C 146.75,54.63 147.51,54.04 147.73,54.68 C 148.23,56.20 143.31,63.67 141.29,64.44 C 137.92,65.73 136.71,62.96 137.30,55.27 C 137.60,51.27 137.71,48.00 137.54,48.00 C 137.37,48.00 135.42,51.04 133.22,54.75 C 131.01,58.47 128.28,62.35 127.14,63.37 C 124.15,66.08 122.00,64.81 122.00,60.34 L 122.00,56.61 L 118.75,59.70 C 114.16,64.08 108.05,68.00 105.83,68.00 C 104.79,68.00 103.60,67.09 103.19,65.98 C 102.48,64.08 102.23,64.17 99.02,67.48 C 97.14,69.41 94.78,71.00 93.78,71.00 C 91.60,71.00 90.00,67.30 90.00,62.27 L 90.00,58.67 L 86.53,62.58 C 83.68,65.80 82.88,66.24 82.08,65.02 C 81.54,64.21 81.33,61.51 81.62,59.02 C 82.12,54.71 82.07,54.59 80.49,56.50 C 79.58,57.60 77.08,61.95 74.94,66.17 C 70.74,74.47 69.33,76.03 68.36,73.49 Z M 111.00,52.50 C 111.69,51.66 111.80,51.00 111.24,51.00 C 110.69,51.00 109.68,51.67 109.00,52.50 C 108.31,53.34 108.20,54.00 108.76,54.00 C 109.31,54.00 110.32,53.33 111.00,52.50 Z M 91.00,51.00 C 91.00,50.45 91.48,50.00 92.06,50.00 C 92.64,50.00 92.84,50.45 92.50,51.00 C 92.16,51.55 91.68,52.00 91.44,52.00 C 91.20,52.00 91.00,51.55 91.00,51.00 Z M 109.75,46.01 C 111.54,44.92 113.00,43.35 113.00,42.51 C 113.00,41.68 113.45,41.00 114.00,41.00 C 114.55,41.00 115.00,41.85 115.00,42.88 C 115.00,43.91 116.01,45.46 117.25,46.33 L 119.50,47.90 L 117.31,47.95 C 116.10,47.98 114.84,47.55 114.50,47.00 C 114.08,46.33 113.26,46.33 112.01,47.00 C 110.97,47.55 109.31,48.00 108.32,48.00 C 107.04,47.99 107.47,47.40 109.75,46.01 Z" fill="black" stroke="none" fill-rule="evenodd" />
</svg>
