<svg xmlns="http://www.w3.org/2000/svg" viewBox="0 0 630 139" width="630" height="139">
  <path d="M 82.38,103.63 C 78.63,101.92 76.00,98.43 76.00,95.16 C 76.00,93.17 76.38,92.87 78.25,93.37 C 79.49,93.70 80.81,93.98 81.18,93.99 C 81.56,93.99 82.13,94.83 82.45,95.85 C 82.77,96.86 84.18,98.21 85.57,98.85 C 93.25,102.35 101.00,97.39 101.00,88.97 L 101.00,86.03 L 96.95,88.14 C 84.15,94.81 71.62,82.20 75.07,66.11 C 77.57,54.47 87.76,48.91 97.26,54.00 C 100.37,55.66 101.00,55.75 101.00,54.50 C 101.00,53.50 102.00,53.00 104.00,53.00 L 107.00,53.00 L 107.00,73.25 C 107.00,95.39 106.40,98.24 100.87,102.28 C 97.40,104.83 86.72,105.60 82.38,103.63 Z M 98.35,80.87 C 101.04,77.92 101.18,77.31 100.84,70.43 C 100.53,64.44 100.04,62.68 98.11,60.62 C 90.86,52.90 81.01,58.89 81.01,71.00 C 81.01,83.49 90.87,89.10 98.35,80.87 Z M 156.67,104.33 C 156.30,103.97 156.00,102.62 156.00,101.33 C 156.00,99.50 156.54,99.00 158.57,99.00 C 162.60,99.00 164.84,97.27 166.06,93.21 C 167.11,89.69 166.75,88.31 160.49,71.97 C 156.81,62.36 153.58,54.13 153.30,53.68 C 153.03,53.23 154.48,53.01 156.52,53.18 L 160.25,53.50 L 165.35,67.71 L 170.46,81.91 L 173.27,74.21 C 181.15,52.57 180.93,53.00 184.09,53.00 C 185.69,53.00 187.00,53.21 187.00,53.47 C 187.00,54.63 171.76,94.55 170.00,98.00 C 168.91,100.13 167.02,102.57 165.79,103.43 C 163.54,105.01 157.90,105.57 156.67,104.33 Z M 123.38,89.62 C 117.53,86.97 117.00,85.19 117.00,68.28 L 117.00,53.00 L 120.00,53.00 L 123.00,53.00 L 123.00,66.89 C 123.00,78.73 123.26,81.10 124.78,82.98 C 127.01,85.73 132.70,86.08 136.33,83.70 C 139.84,81.40 140.99,76.49 140.99,63.75 L 141.00,53.00 L 144.00,53.00 L 147.00,53.00 L 147.00,71.50 L 147.00,90.00 L 144.00,90.00 C 141.65,90.00 141.00,89.56 141.00,87.97 C 141.00,85.96 140.98,85.96 138.10,88.08 C 134.48,90.76 127.51,91.49 123.38,89.62 Z M 199.97,88.75 C 193.75,85.61 191.04,80.52 191.02,71.96 C 190.99,63.02 193.87,57.32 199.96,54.25 C 202.42,53.01 206.03,52.00 208.00,52.00 C 209.97,52.00 213.58,53.01 216.04,54.25 C 221.24,56.88 225.00,63.15 225.00,69.21 L 225.00,73.00 L 210.89,73.00 L 196.78,73.00 L 197.44,75.75 C 199.01,82.35 204.74,86.65 210.54,85.56 C 213.54,85.00 217.25,81.76 218.21,78.86 C 218.43,78.20 219.72,78.13 221.79,78.66 L 225.02,79.50 L 223.18,83.00 C 220.93,87.32 214.16,91.00 208.50,91.00 C 206.26,91.00 202.42,89.99 199.97,88.75 Z M 218.00,66.45 C 218.00,60.97 211.73,56.24 206.09,57.48 C 202.66,58.23 198.00,63.18 198.00,66.08 C 198.00,67.85 198.80,68.00 208.00,68.00 C 216.36,68.00 218.00,67.75 218.00,66.45 Z M 384.59,89.47 C 380.45,87.31 379.07,85.07 379.03,80.47 C 379.00,76.18 380.85,72.68 384.09,70.95 C 385.18,70.37 389.95,69.26 394.68,68.50 C 399.42,67.73 403.73,66.67 404.26,66.14 C 405.77,64.63 403.67,59.67 400.92,58.26 C 395.89,55.70 389.07,57.35 387.13,61.61 C 386.33,63.36 385.24,64.00 383.02,64.00 C 379.59,64.00 379.35,63.16 381.57,58.87 C 385.75,50.77 404.11,49.61 409.37,57.12 C 410.67,58.97 411.00,62.02 411.00,72.16 C 411.00,79.15 411.44,86.02 411.98,87.43 C 412.90,89.87 412.78,90.00 409.59,90.00 C 407.12,90.00 406.10,89.49 405.73,88.08 C 405.25,86.23 405.05,86.25 400.44,88.58 C 394.96,91.36 388.87,91.70 384.59,89.47 Z M 399.69,84.05 C 402.61,82.27 404.98,77.45 404.99,73.25 C 405.00,71.67 404.67,71.68 395.82,73.51 C 390.93,74.52 387.92,75.72 386.75,77.12 C 384.54,79.78 384.56,80.16 387.07,83.37 C 389.64,86.63 394.98,86.92 399.69,84.05 Z M 539.38,89.62 C 533.53,86.97 533.00,85.19 533.00,68.28 L 533.00,53.00 L 536.00,53.00 L 539.00,53.00 L 539.00,66.89 C 539.00,78.73 539.26,81.10 540.78,82.98 C 543.01,85.73 548.70,86.08 552.33,83.70 C 555.84,81.40 556.99,76.49 556.99,63.75 L 557.00,53.00 L 560.00,53.00 L 563.00,53.00 L 563.00,71.50 L 563.00,90.00 L 560.00,90.00 C 557.65,90.00 557.00,89.56 557.00,87.97 C 557.00,85.96 556.98,85.96 554.10,88.08 C 550.48,90.76 543.51,91.49 539.38,89.62 Z M 26.00,64.50 L 26.00,39.00 L 29.30,39.00 C 32.47,39.00 33.14,39.79 46.05,58.75 L 59.50,78.50 L 59.77,58.75 L 60.04,39.00 L 63.02,39.00 L 66.00,39.00 L 66.00,64.50 L 66.00,90.00 L 62.51,90.00 C 59.09,90.00 58.76,89.61 45.76,70.25 L 32.50,50.50 L 32.23,70.25 L 31.96,90.00 L 28.98,90.00 L 26.00,90.00 L 26.00,64.50 Z M 233.00,71.50 L 233.00,53.00 L 235.38,53.00 C 236.94,53.00 237.95,53.71 238.30,55.03 C 238.82,57.01 238.91,57.00 242.55,54.53 C 246.97,51.53 252.01,51.26 256.99,53.75 C 262.34,56.44 262.97,58.69 262.99,75.25 L 263.00,90.00 L 260.00,90.00 L 257.00,90.00 L 257.00,76.93 C 257.00,60.16 256.04,58.04 248.42,58.02 C 245.33,58.00 243.77,58.62 241.92,60.58 C 239.65,63.00 239.48,63.97 239.17,76.58 L 238.85,90.00 L 235.92,90.00 L 233.00,90.00 L 233.00,71.50 Z M 294.00,64.41 L 294.00,38.82 L 308.93,39.16 C 322.14,39.46 324.18,39.74 326.68,41.57 C 332.79,46.06 334.56,54.03 330.99,61.02 C 327.96,66.95 324.42,68.35 311.25,68.82 L 300.00,69.22 L 300.00,79.61 L 300.00,90.00 L 297.00,90.00 L 294.00,90.00 L 294.00,64.41 Z M 323.59,59.69 C 326.92,55.81 326.74,51.59 323.08,47.92 C 320.23,45.08 319.88,45.00 310.08,45.00 L 300.00,45.00 L 300.00,54.09 L 300.00,63.18 L 310.59,62.84 C 320.76,62.51 321.27,62.39 323.59,59.69 Z M 341.00,64.50 L 341.00,39.00 L 344.00,39.00 L 347.00,39.00 L 347.00,47.97 L 347.00,56.94 L 350.64,54.47 C 354.97,51.53 360.05,51.28 364.99,53.75 C 370.34,56.44 370.97,58.69 370.99,75.25 L 371.00,90.00 L 368.00,90.00 L 365.00,90.00 L 365.00,77.07 C 365.00,69.95 364.58,63.03 364.07,61.69 C 362.64,57.91 357.56,56.55 353.10,58.75 C 347.82,61.33 347.03,63.81 347.01,77.75 L 347.00,90.00 L 344.00,90.00 L 341.00,90.00 L 341.00,64.50 Z M 421.00,71.50 L 421.00,53.00 L 423.38,53.00 C 424.94,53.00 425.95,53.71 426.30,55.03 C 426.82,57.01 426.91,57.00 430.55,54.53 C 434.97,51.53 440.01,51.26 444.99,53.75 C 450.34,56.44 450.97,58.69 450.99,75.25 L 451.00,90.00 L 448.00,90.00 L 445.00,90.00 L 445.00,76.93 C 445.00,60.16 444.04,58.04 436.42,58.02 C 433.33,58.00 431.77,58.62 429.92,60.58 C 427.65,63.00 427.48,63.97 427.17,76.58 L 426.85,90.00 L 423.92,90.00 L 421.00,90.00 L 421.00,71.50 Z M 482.00,64.50 L 482.00,39.00 L 494.75,39.02 C 509.51,39.05 513.67,40.35 518.76,46.52 C 522.70,51.31 524.38,58.25 523.78,67.35 C 523.04,78.77 517.77,86.58 509.22,88.96 C 507.17,89.52 500.21,89.99 493.75,89.99 L 482.00,90.00 L 482.00,64.50 Z M 510.32,81.71 C 514.48,78.99 516.31,74.37 516.75,65.50 C 517.09,58.62 516.82,56.87 514.82,53.00 C 511.56,46.68 507.77,45.00 496.75,45.00 L 488.00,45.00 L 488.00,64.62 L 488.00,84.23 L 497.84,83.84 C 504.96,83.55 508.40,82.96 510.32,81.71 Z M 200.55,43.50 C 203.72,39.64 204.77,39.00 207.95,39.00 C 211.07,39.00 212.17,39.63 214.83,42.94 C 216.57,45.11 218.00,47.13 218.00,47.44 C 218.00,47.75 216.50,48.00 214.67,48.00 C 212.14,48.00 211.02,47.40 210.00,45.50 C 209.26,44.12 208.36,43.00 208.00,43.00 C 207.64,43.00 206.74,44.12 206.00,45.50 C 204.92,47.51 203.90,48.00 200.76,48.00 L 196.87,48.00 L 200.55,43.50 Z M 196.00,34.45 C 196.00,32.35 200.50,28.00 202.67,28.00 C 203.64,28.00 206.42,28.76 208.84,29.68 C 212.98,31.26 213.33,31.26 214.49,29.68 C 215.17,28.76 216.71,28.00 217.93,28.00 C 219.75,28.00 220.02,28.39 219.45,30.25 C 217.66,36.13 214.03,37.12 206.17,33.88 C 203.19,32.64 202.70,32.68 201.56,34.25 C 199.96,36.43 196.00,36.58 196.00,34.45 Z" fill="black" stroke="none" fill-rule="evenodd" />
</svg>
