<svg xmlns="http://www.w3.org/2000/svg" viewBox="0 0 821 449" width="821" height="449">
  <path d="M 332.54,404.00 C 332.84,402.07 333.71,395.77 334.48,390.00 C 335.25,384.23 336.81,374.36 337.94,368.08 C 340.04,356.41 340.59,348.00 339.25,348.01 C 336.28,348.03 330.04,350.73 325.30,354.06 C 322.20,356.23 319.19,358.00 318.59,358.00 C 316.56,358.00 330.66,349.19 334.31,348.18 C 339.47,346.76 340.45,345.50 344.96,334.50 C 345.83,332.38 348.03,314.46 348.01,309.62 C 348.00,306.94 347.79,306.79 344.90,307.37 C 343.20,307.71 338.81,310.25 335.15,313.01 C 320.38,324.17 307.93,327.88 301.70,322.98 C 298.33,320.32 295.17,311.70 294.35,302.89 C 293.80,296.98 293.35,295.69 291.60,295.00 C 289.85,294.31 288.55,295.17 283.83,300.11 C 280.71,303.38 276.82,306.52 275.18,307.09 C 273.30,307.74 270.89,310.10 268.64,313.48 C 266.69,316.43 264.14,319.14 262.98,319.51 C 261.81,319.88 259.43,321.75 257.67,323.67 C 255.30,326.24 253.56,327.20 250.99,327.33 C 247.50,327.50 247.50,327.50 247.57,322.00 C 247.61,318.98 248.02,312.56 248.47,307.75 C 249.26,299.33 249.22,299.00 247.24,299.00 C 244.20,299.00 235.62,312.88 222.40,339.19 C 215.43,353.08 210.00,354.71 210.00,342.91 C 210.00,337.65 212.18,318.80 213.61,311.71 C 214.15,309.07 214.02,308.95 211.34,309.58 C 209.78,309.95 206.93,311.71 205.00,313.49 C 192.24,325.28 179.82,332.00 170.79,332.00 C 165.02,332.00 165.02,332.00 162.12,338.40 C 160.32,342.36 158.44,345.04 157.17,345.45 C 156.05,345.80 154.93,347.09 154.70,348.30 C 154.34,350.17 154.25,350.10 154.14,347.81 C 154.06,346.33 153.49,344.81 152.87,344.42 C 151.46,343.55 152.20,334.59 155.56,311.50 C 161.85,268.37 171.51,216.57 171.93,223.68 C 171.97,224.34 171.54,226.07 170.98,227.55 C 169.79,230.69 160.14,286.93 156.58,311.50 C 153.21,334.72 152.48,343.56 153.85,344.41 C 156.00,345.74 159.21,342.76 161.68,337.17 C 163.06,334.05 164.82,331.14 165.59,330.70 C 166.37,330.26 167.00,329.08 167.00,328.07 C 167.00,327.06 169.10,322.69 171.68,318.37 C 181.34,302.12 190.05,288.40 192.54,285.50 C 195.88,281.63 194.99,283.20 186.49,296.21 C 177.85,309.45 168.45,325.75 167.73,328.75 C 167.23,330.84 167.52,331.00 171.84,330.99 C 179.55,330.97 189.53,325.43 202.88,313.75 C 205.87,311.14 209.13,309.00 210.13,309.00 C 213.13,309.00 214.74,305.14 217.00,292.50 C 218.18,285.90 221.09,270.60 223.47,258.50 C 225.85,246.40 228.34,233.48 229.00,229.78 C 229.67,226.09 230.79,222.59 231.50,222.00 C 232.54,221.13 232.54,221.66 231.48,224.74 C 230.76,226.83 229.52,232.14 228.73,236.52 C 225.68,253.51 216.90,298.70 215.92,302.50 C 215.36,304.70 214.73,308.30 214.53,310.50 C 214.33,312.70 213.45,319.58 212.58,325.78 C 210.90,337.80 210.52,348.60 211.75,349.32 C 214.40,350.88 217.27,347.15 225.35,331.65 C 235.14,312.86 242.66,299.84 244.35,298.77 C 244.98,298.36 246.58,298.02 247.89,298.02 C 250.52,298.00 250.52,297.77 248.36,320.40 C 247.70,327.31 247.70,327.31 251.10,326.65 C 253.28,326.23 255.52,324.74 257.35,322.50 C 258.91,320.57 260.81,319.00 261.57,319.00 C 262.33,319.00 264.76,316.71 266.98,313.91 C 270.03,310.04 271.00,307.93 271.00,305.12 C 271.00,300.81 276.06,291.72 280.13,288.73 C 283.30,286.39 287.00,287.15 287.00,290.15 C 287.00,291.56 288.16,292.62 290.87,293.68 C 294.74,295.20 294.74,295.20 295.41,302.59 C 297.69,327.68 309.42,330.73 333.79,312.57 C 337.80,309.59 342.37,306.86 343.93,306.51 C 346.52,305.95 346.85,305.39 347.46,300.46 C 347.83,297.47 348.46,294.83 348.86,294.59 C 349.26,294.34 349.14,296.80 348.60,300.05 C 348.07,303.30 347.92,306.25 348.28,306.62 C 350.04,308.37 353.93,303.71 356.07,297.30 C 361.10,282.17 365.69,274.25 371.00,271.50 C 382.86,265.37 384.50,278.77 374.75,302.07 C 372.81,306.71 370.96,311.29 370.64,312.25 C 369.65,315.25 373.95,314.34 384.07,309.40 C 394.55,304.28 404.04,300.36 402.50,301.78 C 401.95,302.28 399.48,303.47 397.00,304.42 C 394.52,305.37 389.24,307.89 385.26,310.02 C 381.28,312.16 376.33,314.21 374.26,314.58 C 371.47,315.08 368.69,316.98 363.50,321.95 C 358.24,326.98 355.32,328.97 351.75,329.95 C 349.14,330.67 347.00,331.62 347.00,332.06 C 347.00,332.50 345.55,335.93 343.79,339.68 C 341.34,344.88 340.64,347.59 340.87,351.09 C 341.03,353.61 340.25,360.81 339.13,367.09 C 338.02,373.36 336.40,383.68 335.53,390.01 C 334.66,396.34 333.51,402.87 332.98,404.51 C 332.01,407.45 332.01,407.44 332.54,404.00" fill="none" stroke="black" stroke-width="1.2" stroke-linecap="round" stroke-linejoin="round" />
  <path d="M 353.23,328.31 C 358.36,326.28 368.63,316.64 369.49,313.06 C 369.83,311.65 371.72,306.71 373.69,302.07 C 378.22,291.42 379.97,284.85 379.99,278.45 C 380.00,272.92 378.80,271.00 375.33,271.00 C 369.74,271.00 362.07,282.03 357.04,297.30 C 355.07,303.30 351.95,308.00 349.96,308.00 C 349.59,308.00 349.02,310.81 348.68,314.25 C 348.35,317.69 347.77,322.64 347.40,325.25 C 346.63,330.66 346.91,330.81 353.23,328.31" fill="none" stroke="black" stroke-width="1.2" stroke-linecap="round" stroke-linejoin="round" />
  <path d="M 275.32,305.89 C 276.52,305.28 279.82,302.34 282.66,299.37 C 287.77,294.01 287.81,293.93 286.34,290.98 C 284.73,287.75 283.42,287.36 280.82,289.34 C 277.77,291.66 272.00,301.40 272.00,304.23 C 272.00,307.34 272.23,307.46 275.32,305.89" fill="none" stroke="black" stroke-width="1.2" stroke-linecap="round" stroke-linejoin="round" />
  <path d="M 536.67,350.33 C 535.61,349.27 535.94,341.36 537.53,330.00 C 538.34,324.23 539.29,316.71 539.64,313.31 C 540.27,307.15 540.26,307.12 537.89,307.72 C 536.58,308.05 532.60,311.01 529.05,314.31 C 521.52,321.31 508.24,331.32 502.85,334.08 C 500.78,335.13 497.09,336.00 494.66,336.00 C 490.69,336.00 490.12,335.69 488.99,332.99 C 485.73,325.10 494.54,299.26 503.15,291.49 C 509.47,285.77 514.25,287.39 512.03,294.50 C 511.13,297.41 511.10,297.38 511.30,293.54 C 511.46,290.38 511.12,289.49 509.64,289.19 C 504.56,288.15 494.21,304.40 490.61,319.06 C 487.58,331.42 488.67,335.00 495.47,335.00 C 499.18,335.00 501.24,334.08 508.68,329.07 C 513.53,325.81 521.55,319.52 526.50,315.10 C 531.45,310.68 536.23,307.05 537.13,307.03 C 538.02,307.01 539.32,306.32 540.01,305.49 C 541.12,304.15 547.15,274.82 553.06,242.00 C 555.33,229.36 556.92,222.99 558.16,221.57 C 558.60,221.05 558.48,222.18 557.89,224.07 C 557.30,225.96 556.22,230.88 555.50,235.00 C 553.68,245.42 544.14,294.52 542.88,300.00 C 542.30,302.48 541.46,307.65 540.99,311.50 C 540.53,315.35 539.44,323.81 538.58,330.30 C 536.45,346.25 536.49,350.00 538.81,350.00 C 542.02,350.00 543.57,347.78 552.46,330.50 C 557.27,321.15 562.97,310.53 565.13,306.90 C 569.39,299.73 573.30,296.88 575.65,299.22 C 576.74,300.31 576.77,302.18 575.78,309.53 C 575.12,314.46 574.57,320.52 574.54,323.00 C 574.50,327.21 574.66,327.48 577.00,327.26 C 578.51,327.12 581.11,325.23 583.55,322.51 C 585.78,320.03 588.13,318.00 588.77,318.00 C 589.41,318.00 591.19,315.45 592.72,312.33 C 595.34,306.97 601.54,301.00 604.48,301.00 C 606.02,301.00 610.00,305.27 610.00,306.92 C 610.00,308.64 623.40,307.56 634.83,304.92 C 639.41,303.87 643.80,303.00 644.58,303.00 C 646.50,303.00 646.36,305.94 644.00,315.50 C 641.48,325.72 641.39,331.61 643.75,332.85 C 647.60,334.86 651.66,331.16 666.02,312.54 C 675.97,299.64 683.71,291.34 686.50,290.59 C 690.95,289.38 691.41,290.92 691.15,306.04 C 690.86,322.54 691.68,325.00 697.42,325.00 C 701.91,325.00 710.94,318.21 719.51,308.37 C 723.08,304.28 726.00,301.46 726.00,302.09 C 726.00,303.88 710.02,319.94 705.05,323.14 C 702.16,325.00 699.29,326.00 696.83,326.00 C 690.87,326.00 689.82,322.96 690.15,306.68 C 690.41,294.01 689.98,291.00 687.94,291.00 C 685.80,291.00 677.87,299.48 665.50,315.00 C 658.27,324.07 651.63,332.09 650.75,332.81 C 648.58,334.59 643.02,334.65 641.92,332.90 C 640.48,330.63 640.89,324.06 643.00,315.50 C 645.20,306.60 645.44,304.00 644.08,304.00 C 643.57,304.00 639.41,304.86 634.83,305.92 C 630.25,306.97 622.90,308.14 618.50,308.52 C 610.31,309.23 609.04,309.91 609.02,313.64 C 609.01,314.82 607.69,317.19 606.10,318.89 C 603.60,321.57 602.51,322.00 598.17,322.00 C 594.01,322.00 593.02,321.65 592.50,320.00 C 591.54,316.97 590.05,317.54 585.06,322.86 C 580.00,328.26 575.99,329.90 573.93,327.42 C 572.66,325.89 572.93,322.12 575.61,303.85 C 576.77,295.91 571.33,298.45 565.28,308.67 C 563.05,312.42 557.50,322.70 552.96,331.50 C 548.41,340.30 544.01,348.29 543.19,349.25 C 541.70,350.99 537.94,351.61 536.67,350.33" fill="none" stroke="black" stroke-width="1.2" stroke-linecap="round" stroke-linejoin="round" />
  <path d="M 605.23,318.25 C 606.92,316.47 608.08,313.81 608.54,310.69 C 609.16,306.47 608.97,305.62 606.99,303.78 C 605.18,302.09 604.41,301.91 603.12,302.84 C 602.23,303.48 600.50,304.44 599.29,304.96 C 598.07,305.49 595.89,308.26 594.44,311.11 C 592.30,315.35 592.01,316.73 592.89,318.65 C 593.77,320.59 594.71,321.00 598.29,321.00 C 601.72,321.00 603.17,320.43 605.23,318.25" fill="none" stroke="black" stroke-width="1.2" stroke-linecap="round" stroke-linejoin="round" />
  <path d="M 596.50,286.09 C 598.70,285.73 602.08,284.32 604.00,282.97 C 605.92,281.61 607.70,280.38 607.94,280.23 C 608.17,280.09 608.72,278.06 609.14,275.73 C 609.91,271.50 609.91,271.50 609.58,276.20 C 609.31,280.08 609.66,281.28 611.61,283.10 C 612.90,284.31 615.65,285.64 617.73,286.04 C 621.49,286.77 621.49,286.77 618.28,286.89 C 616.05,286.97 614.06,286.11 611.74,284.08 C 608.41,281.15 608.41,281.15 604.05,284.08 C 601.07,286.08 598.57,286.96 596.10,286.87 C 592.50,286.75 592.50,286.75 596.50,286.09" fill="none" stroke="black" stroke-width="1.2" stroke-linecap="round" stroke-linejoin="round" />
  <path d="M 282.82,278.25 C 280.24,275.22 277.34,265.53 278.75,264.66 C 279.16,264.40 279.62,265.79 279.76,267.73 C 279.90,269.67 281.00,273.00 282.19,275.13 C 284.12,278.57 284.80,279.00 288.18,279.00 C 291.48,279.00 292.38,278.46 294.93,274.94 C 296.54,272.71 298.16,269.57 298.51,267.95 C 298.86,266.34 299.56,264.77 300.05,264.47 C 301.31,263.69 298.39,271.64 295.97,275.54 C 294.87,277.33 293.26,279.07 292.40,279.40 C 289.31,280.59 284.30,279.99 282.82,278.25" fill="none" stroke="black" stroke-width="1.2" stroke-linecap="round" stroke-linejoin="round" />
  <path d="M 623.00,271.63 C 623.00,269.69 633.02,259.00 634.84,259.00 C 635.52,259.00 634.40,260.46 632.36,262.25 C 630.32,264.04 627.38,267.26 625.83,269.40 C 624.07,271.82 623.00,272.67 623.00,271.63" fill="none" stroke="black" stroke-width="1.2" stroke-linecap="round" stroke-linejoin="round" />
  <path d="M 291.00,257.66 C 291.00,255.77 302.08,244.00 303.85,244.00 C 304.57,244.00 303.71,245.22 301.94,246.71 C 300.17,248.20 296.98,251.61 294.86,254.30 C 292.74,256.98 291.00,258.50 291.00,257.66" fill="none" stroke="black" stroke-width="1.2" stroke-linecap="round" stroke-linejoin="round" />
  <path d="M 61.23,231.25 C 61.00,206.00 61.00,206.00 57.75,206.00 C 55.96,206.00 52.02,206.93 49.00,208.08 C 45.98,209.22 43.95,209.74 44.50,209.23 C 46.17,207.68 53.87,205.00 56.64,205.00 C 58.81,205.00 59.04,204.76 58.03,203.54 C 54.64,199.45 54.18,147.07 57.39,130.03 C 61.44,108.50 67.49,93.54 76.97,81.61 C 81.31,76.16 83.70,74.00 85.98,73.50 C 89.46,72.74 93.55,67.26 94.27,62.40 C 94.70,59.50 94.70,59.50 94.85,62.27 C 95.02,65.39 95.54,65.38 106.00,61.95 C 116.31,58.57 124.53,57.72 141.39,58.29 C 159.04,58.89 166.80,60.37 176.41,64.96 C 183.44,68.32 188.31,72.73 191.17,78.33 C 194.12,84.12 193.95,95.45 190.78,104.09 C 183.40,124.22 157.98,149.32 122.50,171.54 C 108.48,180.32 76.65,196.63 71.78,197.53 C 69.43,197.96 67.85,198.89 67.47,200.08 C 67.15,201.11 65.79,202.81 64.46,203.85 C 62.03,205.76 62.03,205.76 61.75,231.13 L 61.46,256.50 L 61.23,231.25" fill="none" stroke="black" stroke-width="1.2" stroke-linecap="round" stroke-linejoin="round" />
  <path d="M 64.75,201.68 C 66.29,200.29 67.00,198.52 67.00,196.07 C 67.00,194.11 68.76,183.27 70.92,172.00 C 84.78,99.43 92.28,62.52 90.33,76.50 C 90.02,78.70 86.24,98.50 81.94,120.50 C 70.11,180.90 68.00,192.12 68.00,194.78 C 68.00,197.05 68.26,197.17 71.67,196.53 C 75.86,195.75 98.48,184.63 111.62,176.89 C 153.01,152.52 181.89,125.61 189.79,104.05 C 193.13,94.96 193.15,83.81 189.84,77.81 C 185.10,69.23 173.97,63.21 157.59,60.37 C 144.49,58.10 119.20,58.92 109.50,61.94 C 105.65,63.13 100.53,64.59 98.12,65.16 C 94.68,65.99 93.51,66.83 92.66,69.10 C 91.94,70.99 90.11,72.67 87.35,73.97 C 76.68,78.98 64.26,101.51 59.57,124.36 C 55.99,141.82 54.92,169.57 56.95,192.29 C 58.10,205.21 59.27,206.61 64.75,201.68" fill="none" stroke="black" stroke-width="1.2" stroke-linecap="round" stroke-linejoin="round" />
  <path d="M 500.22,214.75 C 499.65,214.06 498.41,210.80 497.45,207.50 C 493.65,194.38 497.45,158.41 509.06,97.50 C 514.52,68.87 515.87,62.75 517.12,61.00 C 518.07,59.67 518.14,59.67 517.72,61.00 C 514.21,72.28 503.04,133.63 499.42,161.50 C 496.99,180.22 496.95,204.07 499.33,210.25 C 501.08,214.78 501.34,215.00 505.03,215.00 C 508.36,215.00 509.60,214.28 514.07,209.75 C 519.60,204.14 530.39,188.30 538.88,173.30 C 541.75,168.24 544.86,163.86 545.79,163.56 C 546.81,163.24 548.28,160.58 549.44,156.96 C 550.50,153.62 551.72,150.67 552.14,150.41 C 552.57,150.15 552.04,152.47 550.98,155.57 C 549.36,160.27 549.19,162.26 549.94,167.57 C 551.05,175.40 551.41,176.00 554.96,176.00 C 559.48,176.00 565.67,168.72 575.98,151.24 C 581.09,142.58 585.89,134.49 586.65,133.27 C 588.51,130.25 592.92,129.18 594.52,131.35 C 595.82,133.14 599.65,133.51 601.91,132.07 C 602.69,131.58 603.91,129.90 604.62,128.34 C 605.92,125.50 605.92,125.50 605.33,128.50 C 604.52,132.61 603.84,133.15 598.70,133.73 C 594.22,134.23 594.22,134.23 593.63,140.37 C 591.84,158.88 591.75,167.50 593.32,171.25 C 594.68,174.49 595.34,175.00 598.13,175.00 C 600.69,175.00 602.26,174.03 605.68,170.36 C 608.06,167.81 610.00,165.37 610.00,164.93 C 610.00,164.49 610.90,163.85 612.01,163.50 C 614.21,162.80 617.00,158.18 617.00,155.24 C 617.00,154.22 617.65,152.51 618.45,151.44 C 619.64,149.86 619.61,150.42 618.30,154.50 C 616.58,159.85 616.47,171.14 618.11,174.21 C 619.93,177.61 624.32,176.43 629.18,171.24 C 634.15,165.93 637.47,160.92 647.42,143.72 C 654.03,132.29 656.05,130.00 659.54,130.00 C 661.02,130.00 661.15,130.93 660.62,137.75 C 658.78,161.38 658.73,168.59 660.41,171.82 C 663.99,178.75 672.02,173.42 681.37,157.91 C 683.49,154.39 684.93,152.40 684.57,153.50 C 683.31,157.28 677.50,166.26 673.16,171.13 C 669.42,175.32 668.29,176.00 665.06,176.00 C 661.65,176.00 661.14,175.63 659.52,172.05 C 657.70,168.01 657.72,160.87 659.62,138.14 C 660.24,130.79 660.24,130.79 657.87,131.52 C 656.57,131.92 655.43,132.31 655.35,132.37 C 655.27,132.44 651.93,138.12 647.94,145.00 C 633.51,169.84 627.78,177.00 622.35,177.00 C 618.08,177.00 616.00,173.98 616.00,167.78 C 616.00,165.04 615.54,163.00 614.93,163.00 C 614.34,163.00 612.20,164.89 610.18,167.20 C 603.36,174.97 601.93,176.00 597.94,176.00 C 594.39,176.00 594.06,175.74 592.44,171.48 C 590.62,166.71 590.77,156.18 592.90,139.00 C 593.41,134.88 593.69,131.37 593.53,131.20 C 593.37,131.04 592.11,131.18 590.74,131.53 C 588.86,132.00 586.72,134.86 581.93,143.33 C 568.12,167.74 560.82,177.00 555.42,177.00 C 551.30,177.00 549.81,175.07 549.22,168.97 C 548.77,164.22 547.80,163.15 545.42,164.77 C 544.83,165.17 541.80,170.04 538.70,175.59 C 530.11,190.98 521.57,203.48 515.18,210.05 C 509.99,215.40 508.99,216.00 505.32,216.00 C 503.08,216.00 500.78,215.44 500.22,214.75" fill="none" stroke="black" stroke-width="1.2" stroke-linecap="round" stroke-linejoin="round" />
  <path d="M 188.97,198.47 C 186.07,194.97 189.77,167.94 200.97,110.73 C 204.29,93.80 207.02,79.18 207.05,78.23 C 207.07,77.28 207.75,75.15 208.56,73.50 C 209.83,70.89 209.95,70.82 209.49,73.00 C 209.20,74.38 206.52,87.88 203.55,103.00 C 190.78,167.90 186.72,196.47 189.98,198.49 C 192.41,199.99 195.49,195.76 204.89,178.06 C 217.84,153.67 220.72,149.06 223.72,147.92 C 228.59,146.07 228.57,145.93 226.37,169.11 C 225.95,173.55 226.12,175.95 226.87,176.42 C 228.98,177.72 233.34,174.51 238.30,168.00 C 241.03,164.43 244.25,161.15 245.46,160.72 C 246.90,160.21 247.98,158.66 248.58,156.22 C 249.30,153.32 249.56,155.71 249.79,167.00 C 250.18,186.72 252.02,192.00 258.47,192.00 C 262.28,192.00 267.71,187.66 273.87,179.67 C 276.19,176.66 279.20,173.92 280.55,173.58 C 282.00,173.21 283.00,172.24 283.00,171.18 C 283.00,170.20 283.37,168.97 283.82,168.45 C 284.27,167.93 285.87,164.34 287.38,160.49 C 289.75,154.43 291.00,152.75 296.49,148.24 C 303.41,142.54 306.41,140.98 300.31,146.25 C 298.24,148.04 295.34,150.55 293.88,151.82 C 292.41,153.10 290.01,156.93 288.55,160.32 C 287.09,163.72 285.48,167.26 284.98,168.19 C 284.48,169.11 284.34,172.86 284.68,176.52 C 285.21,182.16 285.64,183.29 287.52,184.01 C 293.67,186.34 304.57,180.17 322.82,164.02 C 326.23,161.01 330.46,157.86 332.23,157.02 C 334.00,156.19 335.95,154.48 336.57,153.23 C 338.09,150.19 339.28,149.08 338.40,151.53 C 338.01,152.61 337.41,153.95 337.06,154.50 C 336.72,155.05 336.45,159.37 336.47,164.09 C 336.50,173.71 337.58,176.00 342.04,176.00 C 346.22,176.00 352.17,168.55 364.46,147.94 C 374.84,130.51 377.70,127.30 380.41,130.01 C 381.01,130.61 380.69,136.55 379.56,146.07 C 377.02,167.36 378.34,175.00 384.58,175.00 C 387.26,175.00 388.65,174.08 392.32,169.88 C 394.78,167.07 398.49,161.88 400.55,158.35 C 402.62,154.82 404.78,151.64 405.36,151.28 C 406.79,150.40 401.68,159.13 396.34,166.71 C 391.13,174.09 388.66,176.00 384.30,176.00 C 381.71,176.00 380.74,175.40 379.51,173.02 C 376.87,167.91 376.64,161.43 378.54,145.94 C 379.55,137.75 380.08,130.74 379.72,130.38 C 378.15,128.82 374.08,133.47 368.60,143.12 C 360.21,157.86 350.42,172.52 347.35,174.94 C 345.87,176.11 343.25,177.00 341.31,177.00 C 338.32,177.00 337.71,176.54 336.35,173.30 C 335.20,170.55 334.98,167.98 335.49,163.21 C 336.18,156.84 336.17,156.81 333.84,157.52 C 331.18,158.33 331.04,158.44 321.50,166.66 C 306.92,179.23 297.46,185.01 291.03,185.26 C 285.79,185.47 284.00,183.72 284.00,178.38 C 284.00,172.48 281.85,172.58 276.57,178.73 C 274.33,181.33 270.34,185.63 267.70,188.28 C 263.16,192.84 262.64,193.09 258.20,192.80 C 253.83,192.52 253.36,192.22 251.50,188.50 C 249.92,185.34 249.43,182.03 249.17,172.75 C 248.98,166.29 248.46,161.00 248.00,161.00 C 245.55,161.00 243.38,162.94 238.54,169.49 C 234.69,174.70 232.40,176.88 230.41,177.26 C 225.16,178.27 224.67,177.46 225.41,169.09 C 227.53,145.47 227.64,146.46 223.22,149.56 C 220.44,151.51 212.33,165.26 203.17,183.56 C 197.91,194.09 195.48,197.91 193.52,198.81 C 190.27,200.29 190.50,200.30 188.97,198.47" fill="none" stroke="black" stroke-width="1.2" stroke-linecap="round" stroke-linejoin="round" />
  <path d="M 251.75,139.34 C 252.44,139.06 253.56,139.06 254.25,139.34 C 254.94,139.62 254.38,139.84 253.00,139.84 C 251.62,139.84 251.06,139.62 251.75,139.34" fill="none" stroke="black" stroke-width="1.2" stroke-linecap="round" stroke-linejoin="round" />
  <path d="M 297.00,130.10 C 297.82,129.51 299.68,129.02 301.11,129.02 C 302.55,129.01 305.47,127.61 307.61,125.92 C 310.66,123.51 311.64,121.94 312.13,118.67 C 312.77,114.50 312.77,114.50 312.63,118.98 C 312.47,124.50 315.28,127.98 320.76,129.04 C 324.50,129.77 324.50,129.77 321.20,129.89 C 318.92,129.96 317.14,129.23 315.41,127.50 C 314.03,126.12 312.50,125.00 312.00,125.00 C 311.50,125.00 309.43,126.12 307.40,127.50 C 305.38,128.88 303.00,130.01 302.11,130.01 C 301.22,130.02 299.38,130.29 298.00,130.60 C 296.04,131.05 295.82,130.94 297.00,130.10" fill="none" stroke="black" stroke-width="1.2" stroke-linecap="round" stroke-linejoin="round" />
</svg>
