<svg xmlns="http://www.w3.org/2000/svg" viewBox="0 0 821 449" width="821" height="449">
  <path d="M 332.32,397.75 C 332.67,391.56 334.09,379.32 335.48,370.54 C 338.72,350.08 338.71,350.07 326.61,356.06 C 321.87,358.41 317.73,360.06 317.41,359.74 C 315.77,358.10 319.22,354.04 329.57,345.42 C 335.88,340.17 341.22,334.93 341.51,333.71 C 341.80,332.49 342.65,328.35 343.40,324.50 C 344.15,320.65 344.82,318.46 344.88,319.63 C 345.04,322.52 347.40,324.46 348.70,322.76 C 349.23,322.07 350.92,316.55 352.46,310.50 C 357.44,290.85 362.73,278.38 368.26,273.21 C 372.86,268.91 381.00,269.32 381.00,273.84 C 381.00,275.05 380.61,274.89 379.44,273.22 C 375.56,267.68 368.02,272.94 362.00,285.39 C 359.84,289.85 356.50,299.24 354.58,306.27 C 349.78,323.79 349.54,325.37 351.37,326.90 C 353.61,328.75 361.28,323.17 365.44,316.65 C 369.96,309.58 376.50,296.39 378.05,291.24 C 378.75,288.90 379.52,287.18 379.76,287.43 C 380.50,288.16 378.04,295.04 373.76,304.22 C 367.85,316.91 368.67,317.29 384.73,309.36 C 391.76,305.89 398.85,302.81 400.50,302.51 C 403.31,302.01 403.27,302.06 400.00,303.35 C 393.90,305.75 375.86,315.06 369.41,319.13 C 365.99,321.29 361.94,324.73 360.41,326.78 C 358.88,328.83 355.02,333.48 351.82,337.13 C 346.00,343.76 346.00,343.76 340.98,373.13 C 335.72,403.86 334.54,409.00 332.77,409.00 C 332.03,409.00 331.89,405.50 332.32,397.75 Z M 337.29,347.70 C 340.07,345.13 340.19,344.76 338.72,343.29 C 336.92,341.49 336.03,341.91 329.04,347.85 C 326.06,350.38 325.77,351.01 326.90,352.38 C 328.11,353.84 328.49,353.83 331.24,352.24 C 332.89,351.28 335.62,349.24 337.29,347.70 Z M 211.04,353.08 C 210.47,352.01 210.08,348.51 210.17,345.32 C 210.34,339.96 210.38,339.86 210.74,343.98 C 211.27,349.94 212.65,351.62 215.16,349.35 C 216.19,348.42 221.33,339.30 226.57,329.08 C 237.97,306.88 244.56,296.63 247.75,296.18 C 249.10,295.99 250.01,296.39 250.01,297.18 C 250.02,297.91 250.32,299.62 250.67,301.00 C 251.31,303.50 251.31,303.50 249.16,301.00 C 247.01,298.50 247.01,298.50 244.13,301.62 C 240.88,305.16 233.68,317.81 222.99,338.79 C 215.45,353.59 212.93,356.60 211.04,353.08 Z M 537.67,354.33 C 537.30,353.97 537.00,352.56 537.00,351.21 C 537.00,349.14 537.24,348.95 538.50,350.00 C 539.67,350.97 540.32,350.98 541.45,350.04 C 542.24,349.38 547.19,340.44 552.44,330.17 C 565.18,305.26 571.28,295.76 574.26,296.18 C 576.25,296.46 576.51,297.11 576.62,302.00 C 576.69,305.19 576.55,306.03 576.29,304.00 C 575.62,298.87 574.19,297.52 571.75,299.72 C 569.17,302.05 561.29,315.63 551.00,335.50 C 541.35,354.12 539.74,356.40 537.67,354.33 Z M 152.61,351.42 C 152.27,350.55 152.03,347.96 152.06,345.67 C 152.11,342.30 152.29,341.91 152.99,343.65 C 155.33,349.45 156.98,347.47 165.86,328.20 C 178.02,301.79 190.35,282.00 194.65,282.00 C 197.80,282.00 194.60,288.09 178.78,312.20 C 172.75,321.38 168.13,329.40 168.51,330.02 C 168.89,330.64 170.17,331.53 171.35,332.01 C 173.17,332.74 172.95,332.88 169.90,332.94 C 165.65,333.01 163.93,334.67 161.00,341.50 C 157.00,350.84 155.77,353.00 154.49,353.00 C 153.79,353.00 152.94,352.29 152.61,351.42 Z M 537.27,338.00 C 537.27,335.52 537.47,334.51 537.71,335.75 C 537.94,336.99 537.94,339.01 537.71,340.25 C 537.47,341.49 537.27,340.48 537.27,338.00 Z M 153.25,334.50 C 153.26,332.30 153.47,331.52 153.71,332.76 C 153.95,334.01 153.94,335.81 153.69,336.76 C 153.44,337.72 153.24,336.70 153.25,334.50 Z M 211.25,334.50 C 211.26,332.30 211.47,331.52 211.71,332.76 C 211.95,334.01 211.94,335.81 211.69,336.76 C 211.44,337.72 211.24,336.70 211.25,334.50 Z M 490.75,335.92 C 489.79,335.36 489.00,334.17 489.00,333.28 C 489.00,331.90 489.35,331.97 491.25,333.70 C 492.49,334.82 494.18,335.99 495.00,336.29 C 496.06,336.68 495.92,336.86 494.50,336.89 C 493.40,336.92 491.71,336.48 490.75,335.92 Z M 501.48,333.46 C 513.50,327.07 542.92,301.02 543.08,296.62 C 543.12,295.45 543.35,294.96 543.59,295.53 C 543.83,296.10 543.12,301.50 542.03,307.53 C 540.93,313.56 540.24,316.41 540.49,313.85 C 540.80,310.59 540.51,308.84 539.51,308.01 C 538.36,307.05 536.49,308.25 529.64,314.35 C 519.34,323.51 510.07,330.42 503.78,333.61 C 497.46,336.81 495.42,336.68 501.48,333.46 Z M 641.93,332.31 C 641.36,330.83 641.08,328.47 641.30,327.06 C 641.65,324.79 641.72,324.85 641.85,327.60 C 642.00,330.62 644.58,334.00 646.74,334.00 C 648.05,334.00 655.25,325.77 668.19,309.50 C 679.23,295.63 683.45,291.40 687.17,290.48 C 691.42,289.43 692.10,292.05 691.78,308.07 C 691.51,321.83 691.56,322.20 693.86,324.08 C 695.47,325.39 695.75,326.00 694.73,326.00 C 691.21,326.00 690.50,323.06 690.50,308.38 C 690.50,296.12 690.25,293.84 688.76,292.34 C 687.10,290.67 686.76,290.85 681.74,296.04 C 678.84,299.04 671.91,307.35 666.35,314.50 C 653.47,331.07 649.52,335.00 645.81,335.00 C 643.63,335.00 642.71,334.36 641.93,332.31 Z M 176.00,331.06 C 180.32,329.75 186.27,326.38 193.00,321.45 C 200.76,315.75 214.88,302.31 216.04,299.50 C 216.87,297.50 216.87,297.50 216.88,299.50 C 216.88,302.82 214.23,315.70 214.11,312.95 C 213.88,307.58 212.10,307.82 204.67,314.22 C 193.38,323.93 179.66,332.15 175.13,331.91 C 174.23,331.87 174.62,331.48 176.00,331.06 Z M 538.23,329.00 C 538.23,327.07 538.44,326.29 538.69,327.25 C 538.94,328.21 538.94,329.79 538.69,330.75 C 538.44,331.71 538.23,330.93 538.23,329.00 Z M 488.16,329.00 C 488.16,327.62 488.38,327.06 488.66,327.75 C 488.94,328.44 488.94,329.56 488.66,330.25 C 488.38,330.94 488.16,330.38 488.16,329.00 Z M 248.20,328.80 C 247.54,328.14 247.08,325.55 247.17,323.05 C 247.32,318.81 247.36,318.75 247.72,322.17 C 247.94,324.19 248.78,326.40 249.59,327.08 C 250.80,328.08 251.62,327.78 254.12,325.40 C 258.68,321.05 266.22,310.50 271.20,301.50 C 277.61,289.93 278.16,289.18 281.22,287.91 C 283.53,286.95 284.42,287.07 286.63,288.63 C 290.39,291.28 291.27,291.79 293.25,292.40 C 294.21,292.69 295.00,293.91 295.00,295.09 C 295.00,296.92 294.77,297.05 293.46,295.96 C 292.29,295.00 291.63,294.97 290.76,295.84 C 290.12,296.48 288.82,297.00 287.87,297.00 C 286.87,297.00 282.12,302.04 276.49,309.06 C 267.46,320.34 266.65,321.08 264.01,320.50 C 261.60,319.97 260.79,320.41 258.43,323.50 C 256.91,325.49 254.42,327.77 252.89,328.56 C 249.53,330.30 249.69,330.29 248.20,328.80 Z M 280.53,301.37 C 288.20,292.75 288.20,292.75 285.62,290.17 C 283.04,287.59 283.04,287.59 280.07,290.43 C 278.44,292.00 275.47,296.39 273.47,300.19 C 270.55,305.74 270.07,307.38 271.04,308.55 C 271.70,309.35 272.38,310.00 272.55,310.00 C 272.72,310.00 276.31,306.12 280.53,301.37 Z M 574.68,329.34 C 574.30,328.97 574.00,328.06 574.00,327.32 C 574.00,326.23 574.38,326.21 576.08,327.24 C 577.96,328.38 578.55,328.06 582.10,324.00 C 587.03,318.37 596.69,303.99 598.58,299.47 C 600.07,295.89 602.57,294.00 605.81,294.00 C 608.56,294.00 610.09,296.25 610.72,301.21 C 611.47,307.08 612.45,307.97 618.37,308.17 C 623.50,308.34 623.50,308.34 617.50,308.92 C 611.67,309.48 611.45,309.61 609.65,313.50 C 607.38,318.42 604.17,322.00 602.08,321.99 C 601.05,321.98 601.59,321.12 603.61,319.52 C 605.33,318.17 607.31,315.67 608.02,313.96 C 609.16,311.21 609.09,310.66 607.40,309.11 C 606.36,308.15 604.31,306.86 602.86,306.25 C 600.60,305.30 599.93,305.45 598.22,307.32 C 595.84,309.93 593.00,315.35 593.00,317.30 C 593.00,319.04 595.86,321.64 598.50,322.28 C 600.09,322.67 599.96,322.79 597.88,322.88 C 596.45,322.95 594.13,322.10 592.73,321.00 C 591.33,319.90 589.84,319.00 589.42,319.00 C 589.00,319.00 586.60,321.22 584.08,323.94 C 579.66,328.70 576.09,330.76 574.68,329.34 Z M 608.80,305.80 C 610.61,303.99 610.24,299.52 608.06,296.86 C 606.23,294.63 605.97,294.58 603.32,296.03 C 599.46,298.15 599.32,300.47 602.85,304.00 C 606.16,307.31 607.03,307.57 608.80,305.80 Z M 154.23,326.00 C 154.23,324.07 154.44,323.29 154.69,324.25 C 154.94,325.21 154.94,326.79 154.69,327.75 C 154.44,328.71 154.23,327.93 154.23,326.00 Z M 212.23,326.00 C 212.23,324.07 212.44,323.29 212.69,324.25 C 212.94,325.21 212.94,326.79 212.69,327.75 C 212.44,328.71 212.23,327.93 212.23,326.00 Z M 701.00,324.29 C 702.92,323.37 709.18,317.98 714.91,312.30 C 725.82,301.48 729.17,299.43 722.06,307.92 C 714.09,317.45 703.00,326.05 698.79,325.98 C 698.08,325.96 699.08,325.20 701.00,324.29 Z M 301.00,322.16 C 298.19,319.34 295.44,311.94 296.36,309.68 C 296.63,309.03 296.89,309.40 296.94,310.50 C 297.14,314.49 300.91,320.98 304.19,322.98 C 306.51,324.39 306.96,324.99 305.67,325.00 C 304.67,325.00 302.57,323.72 301.00,322.16 Z M 315.13,323.61 C 325.07,320.06 347.86,302.37 348.08,298.04 C 348.12,297.19 348.34,296.95 348.57,297.50 C 348.80,298.05 348.35,301.65 347.59,305.50 C 346.82,309.35 346.15,311.77 346.09,310.87 C 346.04,309.98 345.33,308.69 344.52,308.01 C 343.30,307.00 342.19,307.49 338.27,310.76 C 329.36,318.18 317.18,325.07 313.13,324.96 C 312.23,324.93 313.13,324.33 315.13,323.61 Z M 489.16,323.00 C 489.16,321.62 489.38,321.06 489.66,321.75 C 489.94,322.44 489.94,323.56 489.66,324.25 C 489.38,324.94 489.16,324.38 489.16,323.00 Z M 539.23,322.00 C 539.23,320.07 539.44,319.29 539.69,320.25 C 539.94,321.21 539.94,322.79 539.69,323.75 C 539.44,324.71 539.23,323.93 539.23,322.00 Z M 573.08,323.42 C 573.13,322.25 573.36,322.01 573.68,322.81 C 573.97,323.53 573.94,324.40 573.60,324.73 C 573.27,325.06 573.04,324.47 573.08,323.42 Z M 642.05,322.64 C 642.02,321.62 642.75,317.67 643.67,313.85 C 645.16,307.69 645.18,306.75 643.85,305.42 C 642.67,304.25 641.75,304.15 639.61,304.96 C 638.10,305.53 636.34,305.97 635.68,305.92 C 634.00,305.81 644.11,302.17 646.37,302.08 C 647.84,302.02 648.09,302.47 647.57,304.25 C 647.20,305.49 645.82,310.55 644.50,315.50 C 643.18,320.45 642.08,323.66 642.05,322.64 Z M 213.23,319.00 C 213.23,317.07 213.44,316.29 213.69,317.25 C 213.94,318.21 213.94,319.79 213.69,320.75 C 213.44,321.71 213.23,320.93 213.23,319.00 Z M 155.23,318.00 C 155.23,316.07 155.44,315.29 155.69,316.25 C 155.94,317.21 155.94,318.79 155.69,319.75 C 155.44,320.71 155.23,319.93 155.23,318.00 Z M 490.08,318.42 C 490.13,317.25 490.36,317.01 490.68,317.81 C 490.97,318.53 490.94,319.40 490.60,319.73 C 490.27,320.06 490.04,319.47 490.08,318.42 Z M 574.16,318.00 C 574.16,316.62 574.38,316.06 574.66,316.75 C 574.94,317.44 574.94,318.56 574.66,319.25 C 574.38,319.94 574.16,319.38 574.16,318.00 Z M 248.08,315.42 C 248.13,314.25 248.36,314.01 248.68,314.81 C 248.97,315.53 248.94,316.40 248.60,316.73 C 248.27,317.06 248.04,316.47 248.08,315.42 Z M 345.16,315.00 C 345.16,313.62 345.38,313.06 345.66,313.75 C 345.94,314.44 345.94,315.56 345.66,316.25 C 345.38,316.94 345.16,316.38 345.16,315.00 Z M 491.05,315.41 C 490.94,313.04 495.23,302.22 498.28,297.18 C 501.94,291.13 506.67,287.71 510.73,288.18 C 512.85,288.42 513.56,289.09 513.76,291.00 C 514.04,293.75 512.51,296.85 511.41,295.75 C 511.03,295.36 511.28,294.36 511.98,293.52 C 512.99,292.31 512.99,291.70 512.00,290.50 C 510.16,288.28 508.47,288.65 504.50,292.14 C 500.24,295.88 496.48,302.05 493.38,310.39 C 492.13,313.75 491.08,316.01 491.05,315.41 Z M 156.23,311.00 C 156.23,309.07 156.44,308.29 156.69,309.25 C 156.94,310.21 156.94,311.79 156.69,312.75 C 156.44,313.71 156.23,312.93 156.23,311.00 Z M 575.08,311.42 C 575.13,310.25 575.36,310.01 575.68,310.81 C 575.97,311.53 575.94,312.40 575.60,312.73 C 575.27,313.06 575.04,312.47 575.08,311.42 Z M 249.16,309.00 C 249.16,307.62 249.38,307.06 249.66,307.75 C 249.94,308.44 249.94,309.56 249.66,310.25 C 249.38,310.94 249.16,310.38 249.16,309.00 Z M 295.27,304.00 C 295.27,301.52 295.47,300.51 295.71,301.75 C 295.94,302.99 295.94,305.01 295.71,306.25 C 295.47,307.49 295.27,306.48 295.27,304.00 Z M 627.50,307.00 C 629.15,306.58 631.40,306.23 632.50,306.22 C 634.07,306.20 633.96,306.37 632.00,307.00 C 630.62,307.44 628.38,307.79 627.00,307.78 C 624.75,307.77 624.81,307.69 627.50,307.00 Z M 157.23,304.00 C 157.23,302.07 157.44,301.29 157.69,302.25 C 157.94,303.21 157.94,304.79 157.69,305.75 C 157.44,306.71 157.23,305.93 157.23,304.00 Z M 158.19,297.50 C 158.22,295.85 158.44,295.30 158.69,296.27 C 158.95,297.24 158.93,298.59 158.66,299.27 C 158.38,299.95 158.17,299.15 158.19,297.50 Z M 217.24,295.00 C 217.24,293.62 217.58,291.15 218.00,289.50 C 218.68,286.82 218.76,286.77 218.76,289.00 C 218.76,290.38 218.42,292.85 218.00,294.50 C 217.32,297.18 217.24,297.23 217.24,295.00 Z M 349.08,294.42 C 349.13,293.25 349.36,293.01 349.68,293.81 C 349.97,294.53 349.94,295.40 349.60,295.73 C 349.27,296.06 349.04,295.47 349.08,294.42 Z M 159.19,291.50 C 159.22,289.85 159.44,289.30 159.69,290.27 C 159.95,291.24 159.93,292.59 159.66,293.27 C 159.38,293.95 159.17,293.15 159.19,291.50 Z M 544.19,291.50 C 544.22,289.85 544.44,289.30 544.69,290.27 C 544.95,291.24 544.93,292.59 544.66,293.27 C 544.38,293.95 544.17,293.15 544.19,291.50 Z M 160.19,285.50 C 160.22,283.85 160.44,283.30 160.69,284.27 C 160.95,285.24 160.93,286.59 160.66,287.27 C 160.38,287.95 160.17,287.15 160.19,285.50 Z M 545.16,286.00 C 545.16,284.62 545.38,284.06 545.66,284.75 C 545.94,285.44 545.94,286.56 545.66,287.25 C 545.38,287.94 545.16,287.38 545.16,286.00 Z M 595.82,286.90 C 601.28,285.58 607.36,279.69 608.77,274.38 C 609.79,270.50 609.79,270.50 609.90,275.35 C 609.98,279.46 610.52,280.72 613.40,283.60 C 615.63,285.83 617.75,287.00 619.57,287.00 C 621.09,287.00 622.05,287.28 621.71,287.62 C 620.47,288.86 613.98,286.85 610.92,284.28 C 608.79,282.49 607.39,281.94 606.53,282.57 C 601.63,286.21 599.99,286.96 596.00,287.43 C 591.50,287.95 591.50,287.95 595.82,286.90 Z M 219.15,284.50 C 219.11,283.40 219.70,279.80 220.44,276.50 C 221.19,273.20 221.82,271.40 221.85,272.50 C 221.89,273.60 221.30,277.20 220.56,280.50 C 219.81,283.80 219.18,285.60 219.15,284.50 Z M 380.16,284.00 C 380.16,282.62 380.38,282.06 380.66,282.75 C 380.94,283.44 380.94,284.56 380.66,285.25 C 380.38,285.94 380.16,285.38 380.16,284.00 Z M 546.24,281.00 C 546.24,279.62 546.58,277.15 547.00,275.50 C 547.68,272.82 547.76,272.77 547.76,275.00 C 547.76,276.38 547.42,278.85 547.00,280.50 C 546.32,283.18 546.24,283.23 546.24,281.00 Z M 161.19,279.50 C 161.22,277.85 161.44,277.30 161.69,278.27 C 161.95,279.24 161.93,280.59 161.66,281.27 C 161.38,281.95 161.17,281.15 161.19,279.50 Z M 284.36,279.54 C 282.08,277.94 279.35,272.32 280.37,271.30 C 280.71,270.95 281.00,271.38 281.00,272.26 C 281.00,274.53 285.86,280.00 287.89,280.00 C 290.33,280.00 296.53,273.27 298.95,268.00 C 300.08,265.52 300.74,264.62 300.41,266.00 C 299.15,271.31 295.59,277.28 292.61,279.09 C 288.87,281.38 287.12,281.47 284.36,279.54 Z M 162.19,273.50 C 162.22,271.85 162.44,271.30 162.69,272.27 C 162.95,273.24 162.93,274.59 162.66,275.27 C 162.38,275.95 162.17,275.15 162.19,273.50 Z M 622.05,273.33 C 621.99,271.83 628.69,262.97 631.39,261.00 C 636.64,257.16 636.56,258.56 631.24,263.76 C 628.01,266.92 624.63,270.62 623.73,272.00 C 622.84,273.38 622.08,273.97 622.05,273.33 Z M 548.16,270.00 C 548.16,268.62 548.38,268.06 548.66,268.75 C 548.94,269.44 548.94,270.56 548.66,271.25 C 548.38,271.94 548.16,271.38 548.16,270.00 Z M 163.19,267.50 C 163.22,265.85 163.44,265.30 163.69,266.27 C 163.95,267.24 163.93,268.59 163.66,269.27 C 163.38,269.95 163.17,269.15 163.19,267.50 Z M 222.16,268.00 C 222.16,266.62 222.38,266.06 222.66,266.75 C 222.94,267.44 222.94,268.56 222.66,269.25 C 222.38,269.94 222.16,269.38 222.16,268.00 Z M 279.23,267.00 C 279.23,265.07 279.44,264.29 279.69,265.25 C 279.94,266.21 279.94,267.79 279.69,268.75 C 279.44,269.71 279.23,268.93 279.23,267.00 Z M 549.16,265.00 C 549.16,263.62 549.38,263.06 549.66,263.75 C 549.94,264.44 549.94,265.56 549.66,266.25 C 549.38,266.94 549.16,266.38 549.16,265.00 Z M 223.16,263.00 C 223.16,261.62 223.38,261.06 223.66,261.75 C 223.94,262.44 223.94,263.56 223.66,264.25 C 223.38,264.94 223.16,264.38 223.16,263.00 Z M 164.19,261.50 C 164.22,259.85 164.44,259.30 164.69,260.27 C 164.95,261.24 164.93,262.59 164.66,263.27 C 164.38,263.95 164.17,263.15 164.19,261.50 Z M 550.16,260.00 C 550.16,258.62 550.38,258.06 550.66,258.75 C 550.94,259.44 550.94,260.56 550.66,261.25 C 550.38,261.94 550.16,261.38 550.16,260.00 Z M 224.16,258.00 C 224.16,256.62 224.38,256.06 224.66,256.75 C 224.94,257.44 224.94,258.56 224.66,259.25 C 224.38,259.94 224.16,259.38 224.16,258.00 Z M 291.00,258.29 C 291.00,255.41 301.62,244.00 304.30,244.00 C 304.94,244.00 303.77,245.39 301.70,247.09 C 299.64,248.80 296.38,252.24 294.47,254.74 C 292.56,257.24 291.00,258.84 291.00,258.29 Z M 60.25,243.75 C 60.39,235.91 60.11,225.69 59.63,221.02 C 58.85,213.46 58.92,212.69 60.29,213.82 C 61.57,214.88 62.08,214.72 63.41,212.83 C 65.36,210.04 65.36,209.99 63.41,223.34 C 62.09,232.30 62.00,236.16 62.89,245.23 C 64.01,256.65 63.86,258.00 61.44,258.00 C 60.24,258.00 60.04,255.62 60.25,243.75 Z M 165.19,255.50 C 165.22,253.85 165.44,253.30 165.69,254.27 C 165.95,255.24 165.93,256.59 165.66,257.27 C 165.38,257.95 165.17,257.15 165.19,255.50 Z M 551.16,255.00 C 551.16,253.62 551.38,253.06 551.66,253.75 C 551.94,254.44 551.94,255.56 551.66,256.25 C 551.38,256.94 551.16,256.38 551.16,255.00 Z M 225.16,253.00 C 225.16,251.62 225.38,251.06 225.66,251.75 C 225.94,252.44 225.94,253.56 225.66,254.25 C 225.38,254.94 225.16,254.38 225.16,253.00 Z M 166.16,250.00 C 166.16,248.62 166.38,248.06 166.66,248.75 C 166.94,249.44 166.94,250.56 166.66,251.25 C 166.38,251.94 166.16,251.38 166.16,250.00 Z M 552.16,250.00 C 552.16,248.62 552.38,248.06 552.66,248.75 C 552.94,249.44 552.94,250.56 552.66,251.25 C 552.38,251.94 552.16,251.38 552.16,250.00 Z M 226.16,248.00 C 226.16,246.62 226.38,246.06 226.66,246.75 C 226.94,247.44 226.94,248.56 226.66,249.25 C 226.38,249.94 226.16,249.38 226.16,248.00 Z M 167.19,244.50 C 167.22,242.85 167.44,242.30 167.69,243.27 C 167.95,244.24 167.93,245.59 167.66,246.27 C 167.38,246.95 167.17,246.15 167.19,244.50 Z M 553.16,245.00 C 553.16,243.62 553.38,243.06 553.66,243.75 C 553.94,244.44 553.94,245.56 553.66,246.25 C 553.38,246.94 553.16,246.38 553.16,245.00 Z M 227.02,243.92 C 227.04,243.14 227.50,240.53 228.06,238.12 C 228.89,234.51 228.79,233.42 227.47,231.97 C 225.99,230.33 226.10,229.83 228.92,225.35 C 232.55,219.57 232.65,220.51 229.89,234.11 C 227.90,243.93 226.97,247.12 227.02,243.92 Z M 554.62,238.13 C 554.98,235.50 554.74,232.88 554.01,231.52 C 552.98,229.59 553.19,228.66 555.47,225.04 C 556.94,222.71 558.33,221.00 558.57,221.23 C 558.98,221.65 555.37,239.54 554.48,241.50 C 554.23,242.05 554.29,240.54 554.62,238.13 Z M 166.67,238.35 C 164.87,235.95 164.88,235.85 167.39,232.56 C 168.79,230.71 170.24,227.36 170.60,225.10 C 170.96,222.85 171.65,221.00 172.13,221.00 C 173.35,221.00 173.22,224.33 171.87,227.68 C 171.24,229.23 170.23,232.82 169.62,235.65 C 168.50,240.80 168.50,240.80 166.67,238.35 Z M 501.31,216.21 C 500.04,215.41 497.97,210.65 498.04,208.68 C 498.06,208.03 498.67,208.85 499.39,210.50 C 501.19,214.64 503.50,216.34 506.37,215.62 C 513.20,213.91 533.21,185.37 547.55,156.89 C 549.46,153.10 551.50,150.00 552.08,150.00 C 552.66,150.00 552.86,150.85 552.53,151.90 C 551.92,153.84 550.02,164.75 550.01,166.40 C 550.00,166.90 549.17,166.56 548.16,165.65 C 546.45,164.09 546.23,164.10 544.85,165.74 C 544.03,166.71 540.96,171.78 538.01,177.00 C 531.54,188.46 522.09,202.81 516.85,209.13 C 511.63,215.43 504.90,218.50 501.31,216.21 Z M 58.00,210.12 C 58.00,207.45 55.51,205.72 52.80,206.49 C 51.12,206.98 51.38,206.59 53.75,205.09 C 56.42,203.40 57.02,202.36 57.12,199.26 C 57.18,197.10 57.44,196.35 57.72,197.50 C 58.32,199.92 59.91,202.00 61.17,202.00 C 63.18,202.00 67.00,196.97 67.01,194.30 C 67.03,191.50 67.03,191.50 68.29,193.99 C 68.98,195.36 70.25,196.62 71.11,196.78 C 73.23,197.19 100.50,183.31 116.85,173.50 C 168.88,142.28 200.12,103.94 191.63,81.71 C 189.65,76.51 182.29,69.15 175.50,65.57 C 172.75,64.13 171.62,63.24 173.00,63.60 C 176.82,64.60 182.38,67.61 185.91,70.58 C 195.32,78.49 196.45,93.98 188.75,109.50 C 175.46,136.27 141.84,163.48 89.00,190.24 C 78.28,195.68 68.71,201.04 67.75,202.17 C 66.79,203.30 65.93,205.63 65.85,207.36 C 65.71,210.28 65.67,210.31 65.29,207.82 C 64.67,203.75 62.41,202.32 60.03,204.47 C 58.62,205.75 58.25,207.01 58.67,209.11 C 58.99,210.70 58.97,212.00 58.62,212.00 C 58.28,212.00 58.00,211.16 58.00,210.12 Z M 47.00,208.00 C 47.83,207.47 48.95,207.03 49.50,207.03 C 50.05,207.03 49.83,207.47 49.00,208.00 C 48.17,208.53 47.05,208.97 46.50,208.97 C 45.95,208.97 46.17,208.53 47.00,208.00 Z M 497.25,203.50 C 497.26,201.30 497.47,200.52 497.71,201.76 C 497.95,203.01 497.94,204.81 497.69,205.76 C 497.44,206.72 497.24,205.70 497.25,203.50 Z M 188.63,201.75 C 188.30,200.51 188.10,197.25 188.19,194.50 C 188.35,189.61 188.36,189.59 188.73,193.67 C 189.11,197.87 191.09,200.68 192.88,199.58 C 193.41,199.25 197.97,191.01 203.01,181.27 C 217.29,153.68 222.87,145.00 226.34,145.00 C 227.80,145.00 228.97,147.91 228.97,151.50 C 228.97,153.24 228.80,153.17 227.71,151.00 C 227.01,149.62 225.78,148.50 224.97,148.50 C 222.67,148.50 215.11,160.64 204.47,181.42 C 199.10,191.91 194.02,201.29 193.20,202.25 C 191.14,204.64 189.35,204.45 188.63,201.75 Z M 253.52,191.61 C 251.19,189.28 249.14,182.53 250.38,181.29 C 250.72,180.95 251.00,181.75 251.00,183.08 C 251.01,186.37 254.38,191.67 257.00,192.50 C 258.49,192.97 260.33,192.35 263.06,190.46 C 270.40,185.37 284.62,165.89 291.15,151.99 C 295.19,143.39 299.60,138.47 304.17,137.46 C 306.63,136.92 307.65,137.17 308.67,138.56 C 310.47,141.03 309.43,141.70 307.09,139.58 C 304.65,137.37 302.53,138.40 297.60,144.15 C 294.86,147.36 294.28,148.64 295.14,149.66 C 296.99,151.90 298.87,151.20 304.04,146.36 C 306.77,143.81 309.00,142.30 309.00,143.00 C 309.00,145.19 302.09,150.89 297.90,152.15 C 290.76,154.29 286.49,162.21 285.31,175.50 C 284.72,182.11 286.03,184.37 291.00,185.27 C 293.26,185.68 293.21,185.74 290.50,185.85 C 286.10,186.03 284.84,184.78 284.26,179.64 C 283.46,172.53 281.87,172.08 277.41,177.71 C 270.94,185.87 266.65,190.09 262.79,192.08 C 257.96,194.58 256.41,194.50 253.52,191.61 Z M 56.31,187.50 C 56.32,184.20 56.50,182.97 56.72,184.77 C 56.95,186.57 56.94,189.27 56.71,190.77 C 56.49,192.27 56.30,190.80 56.31,187.50 Z M 68.16,189.00 C 68.16,187.62 68.38,187.06 68.66,187.75 C 68.94,188.44 68.94,189.56 68.66,190.25 C 68.38,190.94 68.16,190.38 68.16,189.00 Z M 189.27,184.00 C 189.27,181.53 189.47,180.51 189.71,181.75 C 189.94,182.99 189.94,185.01 189.71,186.25 C 189.47,187.49 189.27,186.47 189.27,184.00 Z M 497.31,181.50 C 497.32,178.20 497.50,176.97 497.72,178.77 C 497.95,180.57 497.94,183.27 497.71,184.77 C 497.49,186.27 497.30,184.80 497.31,181.50 Z M 69.16,183.00 C 69.16,181.62 69.38,181.06 69.66,181.75 C 69.94,182.44 69.94,183.56 69.66,184.25 C 69.38,184.94 69.16,184.38 69.16,183.00 Z M 299.08,181.77 C 307.09,176.86 312.98,172.22 325.83,160.68 C 332.07,155.08 337.61,150.34 338.15,150.14 C 339.23,149.75 338.25,156.96 337.04,158.29 C 336.64,158.73 335.75,158.40 335.05,157.56 C 333.95,156.24 332.83,156.91 326.64,162.59 C 314.96,173.31 301.51,182.92 296.00,184.48 C 294.62,184.87 296.01,183.65 299.08,181.77 Z M 70.16,178.00 C 70.16,176.62 70.38,176.06 70.66,176.75 C 70.94,177.44 70.94,178.56 70.66,179.25 C 70.38,179.94 70.16,179.38 70.16,178.00 Z M 249.00,171.29 C 249.00,158.34 247.75,157.74 240.69,167.28 C 234.72,175.36 230.74,179.00 227.88,179.00 C 225.76,179.00 224.63,175.69 225.27,171.37 C 225.70,168.50 225.70,168.50 225.85,171.63 C 225.93,173.35 226.70,175.33 227.54,176.04 C 228.85,177.12 229.71,176.71 233.13,173.41 C 235.34,171.26 239.87,165.45 243.19,160.50 C 246.50,155.55 249.58,151.36 250.02,151.20 C 250.77,150.91 250.14,179.04 249.37,179.92 C 249.17,180.15 249.00,176.26 249.00,171.29 Z M 190.18,176.50 C 190.15,174.85 190.49,171.70 190.94,169.50 C 192.03,164.24 192.12,168.97 191.05,175.00 C 190.45,178.37 190.23,178.75 190.18,176.50 Z M 337.88,176.36 C 337.05,175.35 336.48,171.99 336.42,167.61 C 336.31,161.01 336.33,160.94 336.70,166.62 C 337.00,171.44 337.58,173.20 339.45,174.95 C 341.72,177.08 341.91,177.10 344.42,175.46 C 348.06,173.08 355.81,162.46 363.22,149.71 C 376.74,126.46 380.10,122.55 381.29,128.70 C 381.94,132.12 381.52,132.67 379.52,131.02 C 377.20,129.09 376.14,130.42 365.42,148.67 C 354.52,167.21 349.37,174.24 345.04,176.48 C 341.27,178.43 339.58,178.40 337.88,176.36 Z M 551.57,176.43 C 550.71,175.56 550.03,173.88 550.06,172.68 C 550.13,170.55 550.15,170.55 550.95,172.53 C 551.41,173.65 552.52,175.19 553.43,175.95 C 554.86,177.13 555.47,177.04 557.80,175.32 C 562.44,171.89 569.21,162.71 576.95,149.35 C 588.92,128.69 590.76,126.00 592.99,126.00 C 594.28,126.00 595.00,126.66 595.00,127.85 C 595.00,130.01 598.00,133.00 600.17,133.00 C 602.22,133.00 604.72,130.06 605.27,127.00 C 605.66,124.85 605.75,124.95 605.86,127.68 C 606.03,131.49 603.80,134.00 600.26,134.00 C 598.83,134.00 596.83,134.74 595.83,135.65 C 594.10,137.22 594.00,137.17 594.00,134.78 C 594.00,133.38 593.40,131.75 592.66,131.13 C 590.71,129.52 588.39,132.41 579.96,147.00 C 564.28,174.10 556.90,181.76 551.57,176.43 Z M 618.57,176.43 C 617.71,175.56 617.00,174.15 617.00,173.29 C 617.00,172.22 617.65,172.56 619.07,174.37 C 620.21,175.81 621.56,177.00 622.07,177.00 C 622.58,177.00 624.75,175.42 626.89,173.48 C 631.32,169.47 638.64,158.71 648.29,141.97 C 658.45,124.37 661.39,122.18 661.63,132.08 C 661.70,135.06 661.56,136.30 661.32,134.82 C 661.08,133.35 660.28,131.65 659.55,131.04 C 657.68,129.49 655.07,132.89 645.72,149.05 C 636.19,165.53 630.02,173.95 625.76,176.25 C 621.78,178.41 620.58,178.44 618.57,176.43 Z M 380.56,174.78 C 378.24,171.48 378.67,170.31 381.07,173.37 C 382.21,174.81 383.74,176.00 384.46,176.00 C 386.61,176.00 397.54,163.61 401.39,156.81 C 403.36,153.34 404.98,151.17 404.98,151.98 C 405.03,155.91 392.58,173.13 387.97,175.52 C 384.04,177.55 382.38,177.38 380.56,174.78 Z M 594.57,175.43 C 592.74,173.60 591.58,169.65 592.32,167.79 C 592.61,167.08 592.88,167.66 592.92,169.08 C 593.03,172.73 597.22,176.49 599.70,175.16 C 603.14,173.32 610.56,164.59 614.92,157.25 C 617.29,153.26 619.33,150.00 619.46,150.00 C 619.58,150.00 619.10,153.04 618.38,156.75 C 617.66,160.46 616.99,165.30 616.89,167.50 C 616.75,170.44 616.59,170.79 616.29,168.82 C 615.47,163.45 613.53,163.51 608.86,169.06 C 602.58,176.50 597.78,178.64 594.57,175.43 Z M 661.70,175.75 C 660.78,175.06 659.86,173.15 659.65,171.50 C 659.44,169.85 659.46,169.23 659.69,170.13 C 659.92,171.02 661.17,172.75 662.46,173.96 C 664.35,175.74 665.20,175.96 666.80,175.11 C 669.94,173.43 676.83,165.13 681.23,157.72 C 683.45,153.99 685.49,151.16 685.77,151.43 C 686.41,152.07 679.17,164.27 675.04,169.50 C 672.05,173.29 666.81,177.00 664.46,177.00 C 663.87,177.00 662.63,176.44 661.70,175.75 Z M 55.37,165.50 C 55.37,160.00 55.54,157.88 55.74,160.78 C 55.94,163.69 55.94,168.19 55.73,170.78 C 55.53,173.38 55.36,171.00 55.37,165.50 Z M 71.08,172.42 C 71.13,171.25 71.36,171.01 71.68,171.81 C 71.97,172.53 71.94,173.40 71.60,173.73 C 71.27,174.06 71.04,173.47 71.08,172.42 Z M 498.23,169.00 C 498.23,167.07 498.44,166.29 498.69,167.25 C 498.94,168.21 498.94,169.79 498.69,170.75 C 498.44,171.71 498.23,170.93 498.23,169.00 Z M 378.37,160.50 C 378.37,155.00 378.54,152.88 378.74,155.78 C 378.94,158.69 378.94,163.19 378.73,165.78 C 378.53,168.38 378.36,166.00 378.37,160.50 Z M 72.08,167.42 C 72.13,166.25 72.36,166.01 72.68,166.81 C 72.97,167.53 72.94,168.40 72.60,168.73 C 72.27,169.06 72.04,168.47 72.08,167.42 Z M 658.32,161.00 C 658.32,157.43 658.50,155.96 658.72,157.75 C 658.95,159.54 658.95,162.46 658.72,164.25 C 658.50,166.04 658.32,164.57 658.32,161.00 Z M 226.08,164.42 C 226.13,163.25 226.36,163.01 226.68,163.81 C 226.97,164.53 226.94,165.40 226.60,165.73 C 226.27,166.06 226.04,165.47 226.08,164.42 Z M 192.19,162.50 C 192.22,160.85 192.44,160.30 192.69,161.27 C 192.95,162.24 192.93,163.59 192.66,164.27 C 192.38,164.95 192.17,164.15 192.19,162.50 Z M 591.27,161.00 C 591.27,158.53 591.47,157.51 591.71,158.75 C 591.94,159.99 591.94,162.01 591.71,163.25 C 591.47,164.49 591.27,163.47 591.27,161.00 Z M 73.08,161.42 C 73.13,160.25 73.36,160.01 73.68,160.81 C 73.97,161.53 73.94,162.40 73.60,162.73 C 73.27,163.06 73.04,162.47 73.08,161.42 Z M 499.23,160.00 C 499.23,158.07 499.44,157.29 499.69,158.25 C 499.94,159.21 499.94,160.79 499.69,161.75 C 499.44,162.71 499.23,161.93 499.23,160.00 Z M 227.19,158.50 C 227.22,156.85 227.44,156.30 227.69,157.27 C 227.95,158.24 227.93,159.59 227.66,160.27 C 227.38,160.95 227.17,160.15 227.19,158.50 Z M 193.16,157.00 C 193.12,155.62 193.69,151.57 194.43,148.00 C 195.16,144.43 195.79,142.40 195.82,143.50 C 195.85,144.60 195.28,148.65 194.55,152.50 C 193.82,156.35 193.19,158.38 193.16,157.00 Z M 74.08,156.42 C 74.13,155.25 74.36,155.01 74.68,155.81 C 74.97,156.53 74.94,157.40 74.60,157.73 C 74.27,158.06 74.04,157.47 74.08,156.42 Z M 500.19,152.50 C 500.22,150.85 500.44,150.30 500.69,151.27 C 500.95,152.24 500.93,153.59 500.66,154.27 C 500.38,154.95 500.17,154.15 500.19,152.50 Z M 75.08,151.42 C 75.13,150.25 75.36,150.01 75.68,150.81 C 75.97,151.53 75.94,152.40 75.60,152.73 C 75.27,153.06 75.04,152.47 75.08,151.42 Z M 592.23,150.00 C 592.23,148.07 592.44,147.29 592.69,148.25 C 592.94,149.21 592.94,150.79 592.69,151.75 C 592.44,152.71 592.23,151.93 592.23,150.00 Z M 659.23,149.00 C 659.23,147.07 659.44,146.29 659.69,147.25 C 659.94,148.21 659.94,149.79 659.69,150.75 C 659.44,151.71 659.23,150.93 659.23,149.00 Z M 76.08,146.42 C 76.13,145.25 76.36,145.01 76.68,145.81 C 76.97,146.53 76.94,147.40 76.60,147.73 C 76.27,148.06 76.04,147.47 76.08,146.42 Z M 501.19,145.50 C 501.22,143.85 501.44,143.30 501.69,144.27 C 501.95,145.24 501.93,146.59 501.66,147.27 C 501.38,147.95 501.17,147.15 501.19,145.50 Z M 56.25,143.50 C 56.26,141.30 56.47,140.52 56.71,141.76 C 56.95,143.01 56.94,144.81 56.69,145.76 C 56.44,146.72 56.24,145.70 56.25,143.50 Z M 379.16,145.00 C 379.16,143.62 379.38,143.06 379.66,143.75 C 379.94,144.44 379.94,145.56 379.66,146.25 C 379.38,146.94 379.16,146.38 379.16,145.00 Z M 593.16,142.00 C 593.16,140.62 593.38,140.06 593.66,140.75 C 593.94,141.44 593.94,142.56 593.66,143.25 C 593.38,143.94 593.16,143.38 593.16,142.00 Z M 77.08,141.42 C 77.13,140.25 77.36,140.01 77.68,140.81 C 77.97,141.53 77.94,142.40 77.60,142.73 C 77.27,143.06 77.04,142.47 77.08,141.42 Z M 660.08,141.42 C 660.13,140.25 660.36,140.01 660.68,140.81 C 660.97,141.53 660.94,142.40 660.60,142.73 C 660.27,143.06 660.04,142.47 660.08,141.42 Z M 196.24,139.00 C 196.24,137.62 196.58,135.15 197.00,133.50 C 197.68,130.82 197.76,130.77 197.76,133.00 C 197.76,134.38 197.42,136.85 197.00,138.50 C 196.32,141.18 196.24,141.23 196.24,139.00 Z M 251.00,140.00 C 251.82,139.47 253.18,139.03 254.00,139.03 C 255.33,139.03 255.33,139.14 254.00,140.00 C 253.18,140.53 251.82,140.97 251.00,140.97 C 249.67,140.97 249.67,140.86 251.00,140.00 Z M 502.19,138.50 C 502.22,136.85 502.44,136.30 502.69,137.27 C 502.95,138.24 502.93,139.59 502.66,140.27 C 502.38,140.95 502.17,140.15 502.19,138.50 Z M 380.16,138.00 C 380.16,136.62 380.38,136.06 380.66,136.75 C 380.94,137.44 380.94,138.56 380.66,139.25 C 380.38,139.94 380.16,139.38 380.16,138.00 Z M 57.16,134.00 C 57.16,132.62 57.38,132.06 57.66,132.75 C 57.94,133.44 57.94,134.56 57.66,135.25 C 57.38,135.94 57.16,135.38 57.16,134.00 Z M 503.19,132.50 C 503.22,130.85 503.44,130.30 503.69,131.27 C 503.95,132.24 503.93,133.59 503.66,134.27 C 503.38,134.95 503.17,134.15 503.19,132.50 Z M 79.08,130.42 C 79.13,129.25 79.36,129.01 79.68,129.81 C 79.97,130.53 79.94,131.40 79.60,131.73 C 79.27,132.06 79.04,131.47 79.08,130.42 Z M 299.49,129.87 C 303.96,128.82 309.55,124.02 311.58,119.50 C 312.79,116.80 312.93,116.73 312.96,118.80 C 313.06,124.41 318.51,129.88 324.20,130.08 C 325.47,130.12 325.91,130.39 325.20,130.68 C 322.64,131.71 316.95,129.86 314.50,127.21 C 312.36,124.91 311.74,124.70 310.25,125.78 C 306.71,128.34 300.43,130.95 298.00,130.88 C 296.24,130.82 296.68,130.52 299.49,129.87 Z M 198.16,128.00 C 198.16,126.62 198.38,126.06 198.66,126.75 C 198.94,127.44 198.94,128.56 198.66,129.25 C 198.38,129.94 198.16,129.38 198.16,128.00 Z M 58.08,127.42 C 58.13,126.25 58.36,126.01 58.68,126.81 C 58.97,127.53 58.94,128.40 58.60,128.73 C 58.27,129.06 58.04,128.47 58.08,127.42 Z M 504.16,127.00 C 504.16,125.62 504.38,125.06 504.66,125.75 C 504.94,126.44 504.94,127.56 504.66,128.25 C 504.38,128.94 504.16,128.38 504.16,127.00 Z M 80.08,125.42 C 80.13,124.25 80.36,124.01 80.68,124.81 C 80.97,125.53 80.94,126.40 80.60,126.73 C 80.27,127.06 80.04,126.47 80.08,125.42 Z M 199.10,124.00 C 198.94,121.68 206.40,85.30 206.68,87.00 C 206.82,87.83 205.19,96.83 203.06,107.00 C 200.94,117.17 199.15,124.83 199.10,124.00 Z M 59.08,122.42 C 59.13,121.25 59.36,121.01 59.68,121.81 C 59.97,122.53 59.94,123.40 59.60,123.73 C 59.27,124.06 59.04,123.47 59.08,122.42 Z M 505.16,121.00 C 505.16,119.62 505.38,119.06 505.66,119.75 C 505.94,120.44 505.94,121.56 505.66,122.25 C 505.38,122.94 505.16,122.38 505.16,121.00 Z M 81.08,120.42 C 81.13,119.25 81.36,119.01 81.68,119.81 C 81.97,120.53 81.94,121.40 81.60,121.73 C 81.27,122.06 81.04,121.47 81.08,120.42 Z M 506.19,115.50 C 506.22,113.85 506.44,113.30 506.69,114.27 C 506.95,115.24 506.93,116.59 506.66,117.27 C 506.38,117.95 506.17,117.15 506.19,115.50 Z M 82.08,115.42 C 82.13,114.25 82.36,114.01 82.68,114.81 C 82.97,115.53 82.94,116.40 82.60,116.73 C 82.27,117.06 82.04,116.47 82.08,115.42 Z M 83.16,111.00 C 83.16,109.62 83.38,109.06 83.66,109.75 C 83.94,110.44 83.94,111.56 83.66,112.25 C 83.38,112.94 83.16,112.38 83.16,111.00 Z M 507.16,110.00 C 507.16,108.62 507.38,108.06 507.66,108.75 C 507.94,109.44 507.94,110.56 507.66,111.25 C 507.38,111.94 507.16,111.38 507.16,110.00 Z M 84.16,106.00 C 84.16,104.62 84.38,104.06 84.66,104.75 C 84.94,105.44 84.94,106.56 84.66,107.25 C 84.38,107.94 84.16,107.38 84.16,106.00 Z M 508.16,105.00 C 508.16,103.62 508.38,103.06 508.66,103.75 C 508.94,104.44 508.94,105.56 508.66,106.25 C 508.38,106.94 508.16,106.38 508.16,105.00 Z M 65.03,102.65 C 64.97,100.86 73.56,85.47 77.18,80.89 C 79.28,78.24 83.47,74.20 86.51,71.91 C 89.97,69.30 92.24,66.76 92.59,65.12 C 92.89,63.68 93.56,61.60 94.08,60.50 C 94.97,58.58 94.99,58.59 94.48,60.61 C 93.48,64.61 96.25,65.42 102.97,63.09 C 106.29,61.94 109.57,61.03 110.25,61.07 C 110.94,61.11 109.23,61.96 106.45,62.94 C 94.26,67.29 92.50,69.13 90.35,79.85 C 89.45,84.36 88.51,87.84 88.27,87.60 C 88.02,87.36 88.36,84.59 89.01,81.46 C 90.00,76.70 89.95,75.53 88.75,74.32 C 87.50,73.07 86.40,73.85 80.30,80.39 C 76.13,84.85 71.62,91.07 69.17,95.70 C 66.91,99.99 65.05,103.12 65.03,102.65 Z M 85.16,101.00 C 85.16,99.62 85.38,99.06 85.66,99.75 C 85.94,100.44 85.94,101.56 85.66,102.25 C 85.38,102.94 85.16,102.38 85.16,101.00 Z M 509.19,99.50 C 509.22,97.85 509.44,97.30 509.69,98.27 C 509.95,99.24 509.93,100.59 509.66,101.27 C 509.38,101.95 509.17,101.15 509.19,99.50 Z M 86.16,96.00 C 86.16,94.62 86.38,94.06 86.66,94.75 C 86.94,95.44 86.94,96.56 86.66,97.25 C 86.38,97.94 86.16,97.38 86.16,96.00 Z M 510.16,94.00 C 510.16,92.62 510.38,92.06 510.66,92.75 C 510.94,93.44 510.94,94.56 510.66,95.25 C 510.38,95.94 510.16,95.38 510.16,94.00 Z M 87.16,91.00 C 87.16,89.62 87.38,89.06 87.66,89.75 C 87.94,90.44 87.94,91.56 87.66,92.25 C 87.38,92.94 87.16,92.38 87.16,91.00 Z M 511.16,89.00 C 511.16,87.62 511.38,87.06 511.66,87.75 C 511.94,88.44 511.94,89.56 511.66,90.25 C 511.38,90.94 511.16,90.38 511.16,89.00 Z M 512.20,84.50 C 512.20,83.40 512.56,81.38 513.00,80.00 C 513.63,78.02 513.80,77.92 513.80,79.50 C 513.80,80.60 513.44,82.62 513.00,84.00 C 512.37,85.98 512.20,86.08 512.20,84.50 Z M 207.12,84.08 C 207.05,83.30 206.35,81.94 205.55,81.06 C 204.28,79.65 204.45,78.87 207.04,74.48 C 209.82,69.75 209.96,69.65 209.89,72.50 C 209.80,75.86 207.30,86.30 207.12,84.08 Z M 514.09,74.87 C 514.04,73.43 513.31,71.67 512.47,70.97 C 511.10,69.84 511.15,69.47 512.91,67.59 C 514.00,66.43 515.57,63.91 516.41,61.99 C 518.44,57.30 518.33,59.84 516.06,69.50 C 515.03,73.90 514.14,76.32 514.09,74.87 Z M 162.50,61.48 C 159.67,60.75 158.58,60.18 160.00,60.17 C 161.38,60.16 164.30,60.75 166.50,61.47 C 171.61,63.15 169.04,63.16 162.50,61.48 Z M 112.75,60.34 C 113.44,60.06 114.56,60.06 115.25,60.34 C 115.94,60.62 115.38,60.84 114.00,60.84 C 112.62,60.84 112.06,60.62 112.75,60.34 Z M 119.25,59.31 C 120.21,59.06 121.79,59.06 122.75,59.31 C 123.71,59.56 122.92,59.77 121.00,59.77 C 119.08,59.77 118.29,59.56 119.25,59.31 Z M 151.25,59.31 C 152.21,59.06 153.79,59.06 154.75,59.31 C 155.71,59.56 154.93,59.77 153.00,59.77 C 151.07,59.77 150.29,59.56 151.25,59.31 Z M 135.77,58.28 C 137.57,58.05 140.27,58.06 141.77,58.29 C 143.27,58.51 141.80,58.70 138.50,58.69 C 135.20,58.68 133.97,58.50 135.77,58.28 Z" fill="none" stroke="black" stroke-width="0.5" stroke-linecap="round" stroke-linejoin="round" />
</svg>
