<svg xmlns="http://www.w3.org/2000/svg" viewBox="0 0 821 449" width="821" height="449">
  <path d="M 330.32,409.40 C 329.29,406.70 330.76,389.15 333.51,371.54 C 334.94,362.32 335.89,354.55 335.60,354.27 C 335.32,353.98 331.31,355.62 326.70,357.90 C 318.21,362.10 315.00,362.41 315.00,359.03 C 315.00,356.26 318.39,352.62 329.33,343.62 L 339.50,335.25 L 341.34,324.87 C 342.35,319.17 343.41,313.49 343.70,312.25 C 343.98,311.01 343.75,310.00 343.17,310.00 C 342.59,310.00 338.61,312.54 334.31,315.64 C 309.04,333.87 295.72,330.34 293.34,304.78 C 292.97,300.77 292.26,298.04 291.61,298.10 C 287.61,298.46 284.94,300.77 276.70,311.00 C 268.64,321.00 267.04,322.50 264.46,322.50 C 262.33,322.50 260.36,323.64 257.41,326.59 C 252.37,331.63 249.53,332.53 246.93,329.93 C 244.63,327.63 244.57,325.34 246.51,313.50 C 248.33,302.47 248.35,301.00 246.71,301.00 C 245.15,301.00 238.11,312.93 226.94,334.50 C 216.70,354.29 215.55,356.00 212.41,356.00 C 207.52,356.00 207.05,347.82 210.57,323.76 C 211.36,318.40 212.00,313.56 212.00,313.01 C 212.00,310.82 209.14,312.38 201.00,319.02 C 190.36,327.70 180.87,332.78 172.34,334.36 L 165.73,335.58 L 161.11,345.04 C 157.17,353.12 156.15,354.50 154.07,354.50 C 152.22,354.50 151.45,353.79 150.83,351.50 C 149.98,348.32 151.09,333.74 153.59,315.50 C 154.98,305.34 164.11,249.65 165.59,242.27 C 166.09,239.79 165.86,238.88 164.62,238.41 C 162.41,237.56 162.58,236.42 165.45,232.65 C 166.80,230.88 168.21,227.54 168.58,225.24 C 169.38,220.19 171.29,218.17 173.50,220.00 C 175.39,221.57 175.40,224.03 173.54,228.22 C 170.76,234.43 155.00,329.94 155.00,340.52 C 155.00,345.08 158.43,340.03 165.95,324.40 C 176.45,302.55 182.78,291.57 188.64,285.06 C 193.24,279.94 196.29,278.72 197.38,281.55 C 198.28,283.90 192.37,294.79 180.61,312.40 C 174.78,321.15 170.00,328.68 170.00,329.15 C 170.00,330.98 175.05,329.84 181.62,326.52 C 189.88,322.34 197.71,316.54 206.95,307.76 C 213.08,301.93 213.92,300.67 214.85,295.87 C 215.42,292.92 218.42,277.52 221.52,261.66 C 226.71,235.04 227.01,232.73 225.47,231.60 C 223.94,230.48 224.11,229.86 227.42,224.69 C 231.06,219.00 234.00,217.31 234.00,220.90 C 234.00,221.95 232.00,232.41 229.56,244.15 C 223.46,273.48 218.51,300.65 215.52,321.20 C 212.69,340.71 212.38,347.01 214.25,346.98 C 214.94,346.98 219.10,339.90 223.50,331.26 C 237.44,303.90 244.12,294.00 248.67,294.00 C 252.48,294.00 252.72,297.42 250.40,318.75 C 249.83,324.00 249.97,325.00 251.26,325.00 C 253.95,325.00 263.89,312.10 268.99,302.00 C 275.98,288.16 281.57,283.18 286.49,286.40 C 287.87,287.31 289.00,288.49 289.00,289.02 C 289.00,289.56 290.09,290.00 291.43,290.00 C 295.40,290.00 296.65,292.26 297.36,300.67 C 298.89,318.96 303.40,324.86 313.70,322.08 C 318.95,320.67 328.33,314.84 337.97,307.00 C 344.72,301.52 346.07,299.92 346.61,296.77 C 347.38,292.30 349.67,289.87 351.05,292.06 C 351.55,292.85 351.77,294.18 351.55,295.00 C 350.02,300.71 349.91,303.00 351.18,303.00 C 351.96,303.00 353.50,299.97 354.86,295.75 C 359.52,281.34 364.87,272.67 371.10,269.45 C 375.34,267.26 378.58,267.65 380.93,270.63 C 384.86,275.63 383.14,288.01 376.47,302.64 C 374.56,306.82 373.00,310.64 373.00,311.12 C 373.00,312.76 375.41,312.01 383.17,307.97 C 395.24,301.69 403.58,298.79 404.92,300.41 C 406.40,302.19 405.35,302.93 395.14,307.30 C 381.27,313.23 365.20,322.94 361.74,327.47 C 360.05,329.69 356.28,333.98 353.36,337.01 L 348.05,342.51 L 343.00,372.01 C 337.73,402.75 337.53,403.77 335.81,408.25 C 334.64,411.30 331.32,412.00 330.32,409.40 Z M 359.63,321.21 C 369.46,311.58 381.30,282.15 378.39,274.58 C 376.81,270.45 369.90,274.07 365.71,281.25 C 361.71,288.09 352.00,318.32 352.00,323.93 C 352.00,326.23 355.94,324.82 359.63,321.21 Z M 280.75,299.06 C 284.93,294.21 286.29,290.00 283.67,290.00 C 282.07,290.00 279.08,293.23 276.16,298.12 C 271.70,305.58 274.62,306.18 280.75,299.06 Z M 535.61,354.42 C 534.13,350.57 535.70,328.75 538.55,313.58 C 539.50,308.50 537.88,308.93 530.09,315.83 C 507.84,335.54 493.95,342.37 488.87,336.09 C 483.44,329.38 491.03,301.39 501.10,291.01 C 506.71,285.24 514.31,284.42 515.58,289.46 C 516.56,293.36 511.75,300.42 509.59,298.25 C 509.25,297.92 509.26,296.15 509.60,294.32 C 510.48,289.62 508.07,289.94 503.63,295.11 C 498.33,301.31 494.43,310.48 491.92,322.59 C 490.38,330.09 491.18,334.01 494.27,333.98 C 500.04,333.92 513.26,324.88 530.65,309.11 C 539.13,301.42 540.90,299.30 541.43,296.20 C 541.78,294.17 544.61,279.36 547.73,263.30 C 552.59,238.25 553.21,233.76 552.12,231.73 C 551.00,229.63 551.22,228.78 554.08,224.18 C 557.14,219.26 559.19,217.88 560.45,219.92 C 560.76,220.42 559.22,229.31 557.02,239.67 C 548.89,277.99 541.15,322.58 539.47,340.75 C 538.49,351.35 540.43,350.25 547.36,336.25 C 555.83,319.15 566.02,301.42 569.70,297.37 C 571.93,294.92 573.60,293.95 575.18,294.17 C 578.80,294.69 579.60,298.70 578.09,308.76 C 575.60,325.42 575.58,326.00 577.38,326.00 C 579.46,326.00 591.05,310.50 595.19,302.19 C 600.16,292.22 605.31,289.51 609.94,294.44 C 611.37,295.96 612.43,298.60 612.75,301.44 L 613.26,306.00 L 619.02,306.00 C 622.19,306.00 628.99,304.84 634.14,303.42 C 639.29,301.99 645.03,300.59 646.89,300.29 C 650.82,299.66 650.84,298.53 646.63,314.36 C 645.18,319.78 644.00,325.97 644.00,328.11 C 644.00,336.12 648.11,332.81 664.56,311.53 C 674.07,299.23 682.40,290.49 686.07,288.97 C 688.84,287.83 689.36,287.92 691.32,289.89 C 693.38,291.96 693.48,292.81 693.18,305.97 C 692.84,320.49 693.56,324.00 696.86,324.00 C 700.04,324.00 707.65,318.13 716.39,308.95 C 724.44,300.48 728.00,298.18 728.00,301.44 C 728.00,305.10 710.38,322.69 702.78,326.62 C 698.37,328.90 693.11,328.05 690.60,324.67 C 688.66,322.05 688.52,320.76 688.80,307.42 C 689.05,295.52 688.85,293.00 687.69,293.00 C 685.78,293.00 679.17,300.23 669.02,313.40 C 658.19,327.45 650.36,335.87 647.45,336.60 C 639.96,338.48 638.03,332.70 641.09,317.51 C 642.27,311.67 643.03,306.69 642.78,306.45 C 642.53,306.20 638.99,306.85 634.92,307.89 C 630.84,308.93 624.04,310.11 619.81,310.51 C 612.35,311.20 612.09,311.32 611.03,314.33 C 609.49,318.77 605.20,322.87 600.90,324.03 C 597.18,325.03 594.49,324.44 590.89,321.85 C 589.55,320.88 588.63,321.41 585.46,324.91 C 583.37,327.23 580.41,329.77 578.89,330.56 C 573.36,333.42 571.29,330.04 572.37,319.91 C 572.72,316.66 573.29,311.30 573.64,308.00 C 574.95,295.67 570.26,301.82 553.44,334.50 C 548.63,343.85 543.78,352.51 542.67,353.75 C 540.33,356.35 536.49,356.72 535.61,354.42 Z M 604.10,316.89 C 605.69,315.19 607.00,312.92 607.00,311.87 C 607.00,310.02 603.58,308.00 600.46,308.00 C 598.81,308.00 595.00,314.96 595.00,317.96 C 595.00,321.35 600.55,320.70 604.10,316.89 Z M 607.98,302.25 C 607.96,298.56 606.66,296.72 604.38,297.19 C 603.00,297.48 602.56,298.34 602.71,300.46 C 603.07,305.29 608.01,306.97 607.98,302.25 Z M 591.04,288.54 C 589.30,286.45 590.63,285.00 594.31,285.00 C 596.06,284.99 598.97,284.10 600.76,283.00 C 603.77,281.17 604.79,279.56 607.91,271.67 C 609.64,267.29 611.46,268.95 611.80,275.22 C 612.14,281.70 614.02,283.99 619.75,284.92 C 622.62,285.39 623.50,286.00 623.50,287.52 C 623.50,289.24 622.92,289.46 619.00,289.20 C 615.00,288.94 613.50,288.28 608.40,284.53 C 607.49,283.86 606.40,284.21 604.79,285.69 C 602.75,287.58 596.38,289.98 593.37,289.99 C 592.75,290.00 591.70,289.34 591.04,288.54 Z M 284.38,281.86 C 281.33,280.35 278.24,274.28 277.44,268.25 C 276.86,263.89 277.02,262.93 278.42,262.39 C 280.70,261.52 280.93,261.90 282.00,268.50 C 284.10,281.41 291.89,280.95 296.86,267.63 C 298.23,263.98 299.31,262.50 300.64,262.50 C 303.28,262.50 302.62,267.18 299.09,273.47 C 294.89,280.94 289.15,284.22 284.38,281.86 Z M 620.00,274.13 C 620.00,270.96 629.30,259.99 634.15,257.44 C 636.34,256.29 636.99,256.28 637.90,257.37 C 638.74,258.39 637.86,259.65 634.01,262.89 C 631.27,265.20 627.65,269.10 625.97,271.55 C 622.79,276.16 620.00,277.37 620.00,274.13 Z M 288.59,260.15 C 287.00,257.57 301.01,242.00 304.92,242.00 C 307.42,242.00 308.42,243.57 306.77,244.91 C 300.29,250.13 297.45,252.94 294.89,256.66 C 292.06,260.77 289.76,262.04 288.59,260.15 Z M 59.05,258.10 C 58.43,256.93 58.25,251.43 58.59,243.85 C 59.11,232.33 57.24,209.91 55.63,208.29 C 55.30,207.97 52.45,208.66 49.29,209.82 C 43.61,211.91 41.17,211.56 42.25,208.82 C 42.54,208.09 45.56,206.44 48.96,205.14 L 55.15,202.78 L 54.32,189.14 C 50.75,130.04 61.14,90.04 84.93,71.38 C 89.71,67.62 90.64,66.33 91.51,62.25 C 92.30,58.51 92.94,57.50 94.51,57.50 C 95.94,57.50 96.59,58.28 96.82,60.25 C 97.18,63.45 97.51,63.52 102.53,61.42 C 113.91,56.67 145.35,55.34 162.57,58.90 C 184.07,63.33 196.00,74.43 196.00,89.97 C 196.00,120.02 152.46,161.00 85.34,194.12 C 76.45,198.51 68.92,202.78 68.60,203.61 C 68.28,204.44 67.07,211.68 65.90,219.71 C 64.09,232.20 63.93,235.83 64.77,244.90 C 65.32,250.86 65.38,256.49 64.90,257.75 C 63.86,260.51 60.45,260.71 59.05,258.10 Z M 63.75,198.75 C 64.29,198.06 66.86,186.25 69.45,172.50 C 72.04,158.75 77.27,131.70 81.08,112.38 C 84.88,93.07 88.00,76.98 88.00,76.63 C 88.00,76.29 87.33,76.00 86.51,76.00 C 84.31,76.00 73.67,89.89 70.14,97.37 C 60.59,117.56 57.37,138.37 58.34,173.50 C 58.67,185.60 59.23,196.51 59.59,197.75 C 60.30,200.23 62.21,200.69 63.75,198.75 Z M 86.63,188.14 C 149.82,156.86 191.00,118.11 191.00,89.92 C 191.00,82.63 188.79,77.85 182.99,72.61 C 174.73,65.14 163.70,62.11 142.00,61.33 C 124.07,60.68 111.96,62.30 101.20,66.77 C 95.74,69.04 94.51,70.00 93.83,72.50 C 91.17,82.29 70.00,190.09 70.00,193.82 C 70.00,195.97 72.63,195.07 86.63,188.14 Z M 501.41,218.03 C 500.26,217.56 498.46,215.45 497.41,213.34 C 495.72,209.95 495.51,207.27 495.57,190.50 C 495.66,166.37 498.45,145.24 508.20,94.76 C 512.34,73.37 512.37,72.99 510.45,71.58 C 508.54,70.18 508.56,70.09 511.16,67.32 C 512.62,65.77 514.52,62.77 515.39,60.66 C 517.21,56.25 519.55,56.21 519.40,60.60 C 519.35,62.19 516.77,75.88 513.68,91.00 C 503.90,138.84 499.77,168.38 499.61,191.50 C 499.52,205.08 499.77,207.99 501.28,210.75 C 503.89,215.53 506.44,214.99 512.98,208.25 C 521.10,199.88 530.76,184.63 549.44,150.68 C 551.22,147.44 554.64,147.34 554.28,150.54 C 554.15,151.62 553.51,156.42 552.85,161.22 C 551.58,170.45 552.41,175.00 555.39,175.00 C 558.82,175.00 566.42,164.37 582.11,137.61 C 588.88,126.09 592.02,122.89 594.85,124.67 C 595.76,125.24 596.64,126.92 596.82,128.41 C 597.09,130.70 597.56,131.07 599.82,130.81 C 602.04,130.55 602.59,129.90 603.00,127.00 C 603.38,124.33 603.98,123.50 605.50,123.50 C 607.07,123.50 607.56,124.27 607.80,127.08 C 608.20,131.86 605.52,135.07 600.44,135.89 L 596.50,136.53 L 595.33,145.01 C 593.03,161.59 594.11,174.00 597.86,174.00 C 601.28,174.00 610.45,162.93 615.88,152.25 C 617.85,148.37 620.20,146.86 621.33,148.75 C 621.58,149.16 621.14,152.62 620.35,156.44 C 619.56,160.25 619.04,165.65 619.20,168.44 C 619.47,173.07 619.72,173.53 622.13,173.80 C 626.39,174.30 631.80,167.05 649.10,137.61 C 655.65,126.46 658.47,123.48 661.37,124.59 C 664.07,125.62 664.35,129.52 662.62,141.83 C 659.92,161.01 660.79,174.00 664.78,174.00 C 667.19,174.00 675.02,165.27 679.37,157.74 C 683.60,150.41 685.37,148.49 686.96,149.47 C 688.81,150.62 688.11,152.39 682.18,161.55 C 670.97,178.89 663.17,183.09 658.63,174.22 C 655.67,168.45 655.66,161.04 658.56,139.25 C 659.11,135.12 658.96,134.00 657.88,134.00 C 657.12,134.00 652.45,140.84 647.50,149.21 C 631.26,176.64 623.71,183.80 617.55,177.64 C 615.66,175.75 615.00,174.05 615.00,171.05 C 615.00,165.75 613.40,165.83 608.79,171.35 C 604.12,176.94 598.71,179.65 595.33,178.10 C 590.83,176.05 589.68,171.03 590.40,156.50 C 590.75,149.35 591.30,141.36 591.62,138.75 C 592.06,135.13 591.88,134.00 590.85,134.00 C 590.10,134.00 585.16,141.31 579.86,150.25 C 568.58,169.28 563.38,176.12 558.39,178.49 C 552.32,181.37 548.00,177.81 548.00,169.93 C 548.00,164.79 545.66,166.72 540.34,176.25 C 528.80,196.91 517.12,212.66 510.41,216.60 C 506.06,219.16 504.72,219.37 501.41,218.03 Z M 188.20,204.74 C 187.63,204.05 186.86,202.31 186.50,200.86 C 184.89,194.46 190.55,155.80 200.13,107.73 C 204.76,84.51 205.11,81.80 203.69,80.71 C 202.29,79.63 202.47,78.90 205.38,74.00 C 208.61,68.56 211.18,66.99 211.78,70.11 C 211.95,70.99 209.40,84.94 206.12,101.11 C 199.12,135.50 192.42,174.83 191.42,187.25 C 190.85,194.39 190.98,196.00 192.11,195.98 C 192.89,195.97 197.61,188.08 202.80,178.10 C 218.03,148.88 224.34,140.55 228.58,144.07 C 230.27,145.47 230.23,150.79 228.40,168.75 C 227.86,173.97 228.01,175.00 229.29,175.00 C 230.82,175.00 238.22,165.63 245.33,154.69 C 247.84,150.82 249.66,148.98 250.77,149.20 C 252.26,149.48 252.45,151.48 252.47,167.01 C 252.50,186.65 253.37,190.25 258.20,190.81 C 263.69,191.45 280.14,171.04 288.93,152.67 C 294.89,140.23 302.50,133.72 308.45,135.98 C 310.55,136.78 311.00,137.61 311.00,140.65 C 311.00,143.73 310.24,145.07 306.47,148.68 C 303.58,151.46 300.33,153.45 297.48,154.22 C 293.73,155.22 292.73,156.04 291.14,159.45 C 288.57,164.94 286.75,173.65 287.16,178.50 C 287.47,182.12 287.78,182.53 290.50,182.79 C 295.83,183.31 308.51,174.64 327.15,157.75 C 338.78,147.21 341.70,145.80 340.59,151.25 C 338.87,159.73 338.08,168.78 338.82,171.50 C 341.03,179.58 347.02,173.49 363.10,146.81 C 375.33,126.52 378.64,122.63 381.58,125.07 C 383.41,126.59 383.27,133.04 381.01,151.50 C 379.44,164.25 380.97,174.00 384.54,174.00 C 387.01,174.00 393.53,166.63 399.05,157.60 C 404.24,149.12 407.05,146.85 406.94,151.25 C 406.82,156.13 393.39,174.71 387.96,177.52 C 376.89,183.25 373.21,166.97 378.65,136.25 C 379.75,130.00 376.50,132.80 370.49,143.25 C 353.96,172.02 346.10,181.25 339.51,179.59 C 336.24,178.77 334.00,173.28 334.00,166.10 C 334.00,162.28 333.58,160.00 332.88,160.00 C 332.27,160.00 328.78,162.64 325.13,165.87 C 310.12,179.14 296.05,188.00 289.97,188.00 C 285.95,188.00 283.08,185.34 282.38,180.95 C 282.03,178.78 281.19,177.00 280.51,177.00 C 279.83,177.00 278.03,178.80 276.50,180.99 C 272.90,186.20 265.91,192.60 261.58,194.66 C 257.35,196.68 253.23,195.36 250.78,191.21 C 248.71,187.68 247.00,178.26 247.00,170.32 C 247.00,162.50 245.74,162.22 241.13,169.01 C 236.50,175.84 230.40,181.20 227.69,180.81 C 226.46,180.63 224.91,179.23 224.11,177.55 C 222.89,174.99 222.92,173.27 224.35,164.42 C 226.36,152.01 226.38,151.00 224.59,151.00 C 222.68,151.00 218.61,157.79 206.33,181.45 C 194.09,205.04 191.36,208.55 188.20,204.74 Z M 302.69,145.83 C 305.17,143.49 305.75,141.00 303.81,141.00 C 302.17,141.00 298.00,145.07 298.00,146.67 C 298.00,148.65 300.08,148.28 302.69,145.83 Z M 249.10,142.09 C 246.92,140.70 248.50,138.35 252.10,137.63 C 256.62,136.73 258.23,138.54 255.14,141.07 C 252.54,143.19 251.21,143.42 249.10,142.09 Z M 294.38,131.55 C 293.49,129.24 294.87,128.00 298.31,128.00 C 304.89,127.99 308.51,123.97 311.58,113.25 C 311.78,112.56 312.63,112.00 313.47,112.00 C 315.14,112.00 315.26,112.52 315.03,118.56 C 314.81,124.14 317.41,127.15 323.08,127.91 C 326.07,128.31 327.58,129.03 327.79,130.16 C 328.55,134.09 318.84,133.44 314.34,129.27 C 312.17,127.25 311.31,126.98 310.06,127.89 C 303.98,132.37 295.46,134.35 294.38,131.55 Z" fill="black" stroke="none" fill-rule="evenodd" />
</svg>
