<svg xmlns="http://www.w3.org/2000/svg" viewBox="0 0 200 109" width="200" height="109">
  <path d="M 80.72,99.36 C 80.39,98.83 80.49,95.71 80.94,92.44 C 81.40,89.17 81.63,86.35 81.47,86.17 C 81.31,85.99 80.23,86.34 79.09,86.95 C 76.04,88.58 76.52,86.59 79.83,83.79 C 81.39,82.48 82.96,79.94 83.32,78.15 L 83.97,74.88 L 80.99,77.01 C 76.59,80.14 72.84,79.38 71.75,75.15 C 70.90,71.83 70.86,71.81 68.80,73.65 C 66.73,75.49 66.72,75.48 67.91,73.00 C 69.01,70.71 68.99,70.66 67.62,72.35 C 66.81,73.36 66.39,74.85 66.70,75.66 C 67.06,76.59 66.48,77.32 65.13,77.68 C 63.96,77.98 63.00,78.63 63.00,79.12 C 63.00,79.60 62.35,80.00 61.56,80.00 C 60.68,80.00 60.00,78.76 59.80,76.75 C 59.49,73.55 59.43,73.59 56.23,79.75 C 52.24,87.40 50.68,87.78 51.15,81.00 C 51.34,78.25 51.41,76.00 51.29,76.00 C 51.18,76.00 49.43,77.12 47.40,78.50 C 45.38,79.88 42.96,81.00 42.02,81.00 C 41.09,81.00 39.70,82.24 38.94,83.75 L 37.57,86.50 L 37.20,83.06 C 36.90,80.10 37.55,74.87 40.57,56.22 C 40.86,54.42 41.45,53.16 41.87,53.42 C 42.29,53.68 41.87,57.67 40.93,62.29 C 40.00,66.91 38.93,73.57 38.56,77.10 L 37.88,83.50 L 40.99,77.50 C 44.03,71.61 48.00,66.56 48.00,68.58 C 48.00,69.15 46.63,71.77 44.95,74.42 C 43.27,77.07 42.14,79.47 42.43,79.76 C 43.33,80.67 51.16,74.71 52.01,72.48 C 52.45,71.33 53.38,66.81 54.08,62.44 C 54.78,58.07 55.78,54.05 56.31,53.50 C 56.92,52.86 57.01,53.76 56.56,56.00 C 54.36,66.90 52.00,80.62 52.01,82.42 C 52.02,83.91 52.75,83.21 54.58,80.00 C 55.98,77.53 57.89,74.38 58.82,73.00 L 60.50,70.50 L 61.01,75.00 L 61.53,79.50 L 64.85,74.25 C 66.68,71.36 68.56,69.00 69.03,69.00 C 70.30,69.00 73.00,73.19 73.00,75.16 C 73.00,79.28 77.93,78.66 82.77,73.92 C 84.55,72.18 86.00,71.15 86.00,71.63 C 86.00,72.11 86.79,70.93 87.75,69.00 C 88.71,67.08 90.34,65.35 91.36,65.16 C 92.98,64.86 93.17,65.32 92.78,68.65 C 92.53,70.77 91.96,73.33 91.52,74.35 C 90.75,76.11 90.86,76.13 93.80,74.60 C 95.51,73.72 97.42,73.00 98.06,73.00 C 98.70,73.00 96.82,74.26 93.87,75.80 C 87.24,79.26 84.45,83.27 83.53,90.63 C 82.70,97.27 81.58,100.75 80.72,99.36 Z M 90.01,73.97 C 91.11,71.83 92.00,69.11 92.00,67.92 C 92.00,66.05 91.78,65.93 90.40,67.09 C 88.62,68.56 87.62,70.83 86.52,75.88 C 85.57,80.24 87.29,79.30 90.01,73.97 Z M 85.68,72.81 C 85.36,72.01 85.13,72.25 85.08,73.42 C 85.04,74.47 85.27,75.06 85.60,74.73 C 85.94,74.40 85.97,73.53 85.68,72.81 Z M 130.57,80.30 L 131.28,74.60 L 126.96,78.30 C 121.53,82.95 119.00,83.16 119.00,78.95 C 119.00,75.57 121.51,70.00 123.03,70.00 C 123.56,70.00 124.22,70.00 124.50,70.00 C 124.78,70.00 125.00,70.34 125.00,70.75 C 125.00,71.16 124.45,71.50 123.78,71.50 C 122.25,71.50 120.03,75.77 120.01,78.75 C 119.99,81.86 121.06,81.60 126.73,77.12 C 131.42,73.41 131.69,72.92 132.98,65.87 C 133.72,61.82 134.39,57.72 134.47,56.77 C 134.56,55.82 135.00,54.69 135.45,54.27 C 136.32,53.46 136.16,54.63 133.05,72.48 C 132.00,78.52 131.28,83.62 131.46,83.80 C 131.65,83.98 133.29,81.40 135.13,78.06 C 138.96,71.10 141.60,69.92 140.68,75.58 C 140.17,78.70 140.29,79.00 141.62,77.90 C 142.45,77.21 143.79,75.38 144.59,73.82 C 146.18,70.76 149.00,70.00 149.00,72.64 C 149.00,74.00 149.75,74.17 153.51,73.65 L 158.02,73.04 L 157.38,77.02 C 157.03,79.21 156.97,81.00 157.25,81.00 C 157.53,81.00 159.67,78.53 162.00,75.50 C 167.28,68.66 168.79,68.49 169.20,74.70 L 169.50,79.39 L 173.25,76.09 C 175.31,74.28 177.00,73.27 177.00,73.85 C 177.00,75.44 170.24,80.26 169.04,79.53 C 168.47,79.17 167.99,77.00 167.98,74.69 L 167.95,70.50 L 162.73,76.28 C 159.85,79.46 157.10,82.04 156.62,82.03 C 156.13,82.01 155.97,80.30 156.24,78.22 L 156.75,74.43 L 153.13,74.85 C 151.03,75.10 148.92,76.10 148.13,77.22 C 147.30,78.41 146.03,78.98 144.88,78.68 C 143.85,78.41 142.75,78.60 142.44,79.09 C 142.13,79.59 141.21,80.00 140.40,80.00 C 139.23,80.00 139.06,79.22 139.59,76.36 C 140.54,71.30 139.02,72.65 135.54,79.92 C 131.71,87.94 129.59,88.10 130.57,80.30 Z M 148.00,75.81 C 148.00,74.50 145.73,75.32 145.23,76.81 C 144.99,77.54 145.44,77.77 146.42,77.39 C 147.29,77.06 148.00,76.35 148.00,75.81 Z M 145.12,69.27 C 146.01,69.07 147.22,67.91 147.80,66.70 L 148.86,64.50 L 148.93,66.68 C 148.97,67.90 149.77,69.02 150.75,69.24 C 151.71,69.45 150.47,69.63 148.00,69.63 C 145.53,69.63 144.23,69.47 145.12,69.27 Z M 69.25,68.28 C 68.56,68.04 68.05,66.86 68.12,65.67 C 68.21,63.98 68.33,63.88 68.69,65.25 C 68.94,66.21 69.63,67.00 70.21,67.00 C 70.80,67.00 71.92,66.21 72.69,65.25 C 73.98,63.66 74.01,63.70 73.05,65.69 C 71.79,68.30 70.93,68.89 69.25,68.28 Z M 151.86,65.31 C 153.13,62.87 155.00,61.38 155.00,62.79 C 155.00,63.28 154.03,64.55 152.85,65.60 C 150.72,67.49 150.72,67.48 151.86,65.31 Z M 14.00,57.00 C 14.00,51.98 13.71,50.99 12.25,50.92 C 11.20,50.87 11.00,50.64 11.75,50.34 C 12.61,49.99 13.00,47.28 13.00,41.73 C 13.00,31.69 15.36,22.89 19.15,18.84 C 20.72,17.16 22.00,15.47 22.00,15.07 C 22.00,13.94 39.34,13.80 42.26,14.91 C 46.17,16.40 48.33,20.24 47.46,24.18 C 46.51,28.52 36.36,38.46 28.25,43.00 C 14.76,50.55 16.00,49.18 16.00,56.49 C 16.00,60.16 15.56,63.00 15.00,63.00 C 14.44,63.00 14.00,60.33 14.00,57.00 Z M 18.42,33.88 C 19.89,26.11 20.88,19.55 20.62,19.29 C 19.73,18.39 16.65,24.21 15.33,29.30 C 13.84,35.05 13.52,48.00 14.87,48.00 C 15.35,48.00 16.95,41.65 18.42,33.88 Z M 23.86,44.07 C 43.75,34.03 52.73,19.71 41.46,15.99 C 37.21,14.59 25.53,15.07 23.88,16.72 C 23.02,17.58 17.26,42.43 17.04,46.25 C 16.98,47.42 17.66,47.20 23.86,44.07 Z M 71.50,61.00 C 72.50,59.90 73.69,59.00 74.15,59.00 C 74.62,59.00 74.10,59.90 73.00,61.00 C 71.90,62.10 70.71,63.00 70.35,63.00 C 69.98,63.00 70.50,62.10 71.50,61.00 Z M 121.67,52.33 C 120.46,51.13 120.98,38.68 122.60,29.50 C 123.48,24.55 124.21,19.50 124.23,18.27 C 124.24,17.04 124.81,15.57 125.50,15.00 C 126.39,14.26 126.21,16.47 124.88,22.73 C 123.85,27.56 122.71,36.17 122.35,41.89 C 121.45,55.90 121.63,55.83 133.75,37.40 C 134.89,35.67 134.98,35.76 134.75,38.41 C 134.34,43.23 136.29,42.35 140.30,35.92 C 143.32,31.10 144.39,30.07 145.46,30.96 C 146.47,31.80 146.94,31.76 147.32,30.79 C 147.74,29.75 147.86,29.75 147.92,30.78 C 147.96,31.49 147.32,32.32 146.50,32.64 C 144.78,33.30 144.33,42.00 146.01,42.00 C 146.57,42.00 147.92,40.54 149.01,38.75 L 150.99,35.50 L 151.00,38.75 C 151.00,40.54 151.42,42.00 151.93,42.00 C 152.44,42.00 154.50,39.30 156.51,35.99 C 158.51,32.68 160.54,30.21 161.01,30.50 C 161.47,30.79 161.60,33.50 161.29,36.51 C 160.64,42.73 161.69,43.53 164.88,39.25 C 166.01,37.74 166.94,36.95 166.95,37.50 C 166.97,39.76 163.24,43.30 161.53,42.65 C 160.15,42.12 159.88,41.00 160.15,36.99 C 160.34,34.25 160.43,32.00 160.35,32.00 C 160.26,32.00 159.07,33.91 157.70,36.25 C 156.33,38.59 154.30,41.32 153.19,42.32 C 151.25,44.09 151.15,44.09 150.15,42.32 C 149.33,40.86 148.87,40.75 147.86,41.75 C 145.21,44.37 144.00,43.14 143.94,37.75 C 143.89,33.30 143.70,32.78 142.69,34.36 C 142.04,35.38 140.22,38.03 138.66,40.23 C 136.09,43.85 135.66,44.09 134.26,42.69 C 132.86,41.29 132.34,41.71 128.88,47.07 C 125.33,52.56 123.34,54.01 121.67,52.33 Z M 45.61,49.18 C 44.68,47.68 49.82,17.00 51.00,17.00 C 51.37,17.00 50.64,22.29 49.36,28.75 C 48.09,35.21 47.04,42.08 47.04,44.00 L 47.02,47.50 L 50.33,41.56 C 54.36,34.32 55.77,33.62 56.19,38.69 L 56.50,42.50 L 58.47,39.25 C 61.04,34.99 61.91,35.14 61.36,39.75 C 61.12,41.81 61.35,44.15 61.88,44.94 C 63.20,46.90 65.30,45.11 69.70,38.25 C 71.55,35.36 73.72,33.00 74.53,33.00 C 76.77,33.00 76.30,34.29 73.00,37.19 C 69.86,39.94 68.94,44.00 71.47,44.00 C 72.27,44.00 74.41,42.75 76.22,41.23 C 83.30,35.24 83.24,35.27 82.85,38.46 C 82.26,43.29 84.31,42.30 88.50,35.75 L 92.50,29.50 L 92.80,35.75 C 92.96,39.19 93.48,42.00 93.95,42.00 C 94.42,42.00 95.74,40.54 96.88,38.75 C 98.03,36.96 98.97,36.00 98.98,36.62 C 99.01,38.36 95.01,43.00 93.48,43.00 C 92.53,43.00 92.01,41.42 91.80,37.91 L 91.50,32.83 L 88.00,38.11 C 84.19,43.88 83.07,44.39 81.41,41.14 C 80.33,39.03 80.28,39.03 78.58,40.91 C 77.63,41.96 75.42,43.52 73.68,44.38 C 70.90,45.74 70.36,45.76 69.40,44.48 C 68.45,43.22 68.04,43.30 66.49,45.01 C 63.15,48.70 60.00,47.10 60.00,41.73 L 60.00,39.62 L 57.94,41.83 C 55.34,44.63 53.89,43.80 54.66,39.96 C 54.98,38.33 55.01,37.00 54.71,37.00 C 54.41,37.00 52.54,39.92 50.54,43.50 C 46.79,50.20 46.47,50.57 45.61,49.18 Z M 74.50,35.00 C 74.84,34.45 74.64,34.00 74.06,34.00 C 73.48,34.00 73.00,34.45 73.00,35.00 C 73.00,35.55 73.20,36.00 73.44,36.00 C 73.68,36.00 74.16,35.55 74.50,35.00 Z M 74.42,29.61 C 76.26,27.75 76.54,27.70 76.81,29.19 C 76.98,30.12 77.88,31.05 78.81,31.25 C 79.74,31.46 78.67,31.65 76.42,31.68 L 72.35,31.73 L 74.42,29.61 Z" fill="black" stroke="none" fill-rule="evenodd" />
</svg>
