<svg xmlns="http://www.w3.org/2000/svg" viewBox="0 0 821 449" width="821" height="449">
  <path d="M 332.43,405.00 C 332.68,403.62 333.37,398.68 333.96,394.00 C 334.54,389.32 336.13,378.98 337.50,371.00 C 340.00,356.40 340.64,348.00 339.25,348.01 C 336.20,348.03 329.66,350.85 325.11,354.11 C 322.12,356.25 319.19,358.00 318.60,358.00 C 316.47,358.00 330.79,349.13 334.60,348.09 C 337.32,347.34 339.18,345.96 340.75,343.52 C 341.99,341.60 343.00,339.75 343.00,339.42 C 343.00,339.08 343.62,337.38 344.37,335.65 C 345.66,332.69 348.03,315.82 348.01,309.75 C 347.99,305.05 343.66,306.31 333.58,313.94 C 322.71,322.17 317.64,324.40 309.66,324.45 C 303.23,324.50 302.67,324.32 300.42,321.50 C 297.20,317.47 295.11,311.00 294.34,302.69 C 293.80,296.97 293.34,295.68 291.60,295.00 C 289.85,294.31 288.55,295.17 283.83,300.11 C 280.71,303.38 276.89,306.50 275.33,307.04 C 273.68,307.63 270.93,310.29 268.73,313.46 C 266.66,316.44 264.04,319.17 262.92,319.53 C 261.79,319.88 259.43,321.75 257.67,323.67 C 255.30,326.24 253.56,327.20 250.99,327.33 L 247.50,327.50 L 247.56,321.50 C 247.59,318.20 247.99,311.79 248.45,307.25 C 249.27,299.22 249.23,299.00 247.14,299.00 C 244.33,299.00 238.81,307.60 226.87,330.59 C 217.94,347.78 214.94,351.68 211.64,350.42 C 210.36,349.92 210.00,348.40 210.00,343.43 C 210.00,337.71 212.13,319.03 213.63,311.61 C 214.19,308.87 214.08,308.76 211.44,309.43 C 209.91,309.81 206.37,312.18 203.58,314.69 C 192.27,324.86 179.91,331.62 171.42,332.28 C 168.62,332.50 165.84,332.98 165.23,333.36 C 164.63,333.73 163.02,336.46 161.67,339.42 C 160.18,342.65 158.36,345.07 157.10,345.47 C 155.87,345.86 154.95,347.04 154.88,348.32 C 154.78,350.32 154.73,350.34 154.33,348.50 C 154.09,347.40 153.39,345.48 152.77,344.23 C 151.93,342.54 151.95,339.24 152.86,331.23 C 155.64,306.78 168.23,231.53 170.48,226.00 C 172.12,221.96 172.53,223.47 170.94,227.66 C 169.39,231.74 157.48,303.44 154.83,324.72 C 153.15,338.16 152.84,343.24 153.67,344.07 C 155.56,345.96 159.00,343.27 161.22,338.16 C 162.34,335.60 164.10,332.69 165.13,331.71 C 166.16,330.73 167.00,329.09 167.00,328.08 C 167.00,327.06 169.12,322.69 171.70,318.37 C 181.37,302.20 190.26,288.21 192.65,285.40 C 195.90,281.59 194.84,283.46 186.90,295.50 C 183.27,301.00 178.41,308.88 176.08,313.00 C 173.76,317.12 171.04,321.85 170.05,323.50 C 169.05,325.15 167.95,327.73 167.60,329.23 L 166.97,331.97 L 171.74,331.40 C 178.76,330.57 189.31,325.00 199.50,316.76 C 204.45,312.75 209.70,308.94 211.16,308.30 C 214.40,306.87 214.08,307.91 218.53,284.00 C 220.53,273.27 223.66,257.07 225.49,248.00 C 227.32,238.93 229.12,229.61 229.49,227.31 C 229.86,225.00 230.87,222.53 231.74,221.81 C 233.14,220.66 233.20,220.74 232.25,222.51 C 231.66,223.62 228.19,239.82 224.54,258.51 C 220.89,277.21 217.25,295.65 216.44,299.50 C 215.64,303.35 214.76,308.90 214.48,311.84 C 214.20,314.77 213.31,321.63 212.49,327.08 C 210.89,337.71 210.53,348.61 211.75,349.32 C 214.43,350.90 217.28,347.13 225.83,330.67 C 235.43,312.17 242.52,299.98 244.38,298.77 C 245.00,298.36 246.58,298.02 247.89,298.02 C 250.27,298.00 250.28,298.05 249.60,305.75 C 249.22,310.01 248.64,316.61 248.31,320.40 L 247.71,327.31 L 251.10,326.65 C 253.11,326.25 255.52,324.75 257.00,322.96 C 258.38,321.29 260.61,319.38 261.96,318.71 C 266.12,316.64 271.00,309.33 271.00,305.17 C 271.01,300.90 276.08,291.77 280.13,288.75 C 283.30,286.39 287.00,287.14 287.00,290.15 C 287.00,291.56 288.16,292.62 290.87,293.68 L 294.73,295.20 L 295.38,302.35 C 296.28,312.19 298.51,318.41 302.29,321.59 C 305.10,323.95 306.04,324.18 311.04,323.73 C 317.68,323.13 321.77,321.17 332.50,313.47 C 336.90,310.31 341.73,307.30 343.23,306.77 C 345.87,305.85 347.98,301.44 347.99,296.81 C 348.00,295.88 348.41,294.86 348.91,294.56 C 349.41,294.25 349.22,296.58 348.48,299.75 C 347.70,303.08 347.50,305.88 348.01,306.40 C 349.39,307.80 353.88,304.31 354.65,301.24 C 355.97,295.96 361.66,282.46 364.35,278.21 C 368.90,271.05 375.90,268.04 379.55,271.69 C 382.35,274.49 381.04,285.56 376.56,297.00 C 369.51,315.00 369.91,313.46 372.13,313.83 C 373.21,314.00 379.81,311.48 386.80,308.21 C 401.28,301.43 403.36,300.61 402.49,302.01 C 402.16,302.56 401.33,303.00 400.66,303.00 C 400.00,303.00 394.39,305.49 388.21,308.53 C 382.03,311.57 375.52,314.33 373.74,314.67 C 371.60,315.07 368.12,317.55 363.50,321.96 C 358.38,326.85 355.28,328.98 351.96,329.89 C 348.36,330.88 347.15,331.80 346.07,334.32 C 345.33,336.07 343.79,339.52 342.65,342.00 C 341.32,344.92 340.69,348.08 340.86,351.00 C 341.01,353.48 339.79,363.60 338.15,373.50 C 336.51,383.40 334.87,394.16 334.49,397.41 C 334.12,400.66 333.40,404.26 332.88,405.41 C 332.05,407.29 332.00,407.25 332.43,405.00 M 353.21,328.30 C 359.31,325.86 368.11,316.98 370.15,311.21 C 371.07,308.62 373.49,302.23 375.54,297.00 C 379.66,286.49 381.26,275.22 379.01,272.51 C 377.04,270.14 373.38,270.73 369.61,274.04 C 365.29,277.83 362.08,283.34 358.56,293.00 C 357.06,297.12 355.39,301.68 354.85,303.12 C 354.31,304.56 352.83,306.29 351.57,306.96 C 349.68,307.97 349.17,309.29 348.67,314.35 C 348.35,317.73 347.77,322.64 347.40,325.25 C 346.63,330.66 346.92,330.82 353.21,328.30 M 275.32,305.89 C 276.52,305.28 279.82,302.34 282.66,299.37 C 287.77,294.01 287.81,293.93 286.34,290.98 C 283.87,286.02 281.26,287.23 275.57,295.98 C 273.60,298.99 272.00,302.70 272.00,304.23 C 272.00,307.34 272.23,307.46 275.32,305.89 M 536.34,349.45 C 535.38,346.94 538.18,320.22 540.56,309.22 C 541.00,307.17 540.78,307.02 538.28,307.63 C 536.75,308.00 532.60,311.00 529.05,314.30 C 520.90,321.89 507.71,331.73 502.50,334.12 C 500.30,335.13 496.66,335.97 494.41,335.98 C 490.99,336.00 490.13,335.58 489.16,333.45 C 487.48,329.76 487.72,325.62 490.12,317.06 C 494.58,301.15 503.29,288.00 509.36,288.00 C 512.68,288.00 513.44,289.72 512.09,294.13 C 511.08,297.41 511.07,297.39 511.61,293.25 C 512.15,289.20 512.05,289.00 509.59,289.00 C 503.80,289.00 495.40,301.75 491.12,317.06 C 487.45,330.17 488.47,335.00 494.89,335.00 C 501.39,335.00 511.66,328.40 528.61,313.32 C 532.53,309.85 536.41,307.00 537.24,307.00 C 540.84,307.00 540.82,307.09 551.97,247.50 C 555.37,229.31 556.87,223.05 558.16,221.57 C 558.60,221.05 558.48,222.18 557.89,224.07 C 557.30,225.96 556.23,230.88 555.51,235.00 C 553.95,243.90 544.33,293.54 542.90,300.00 C 542.36,302.48 541.69,306.48 541.43,308.91 C 541.17,311.33 540.30,317.70 539.49,323.06 C 538.68,328.43 537.73,336.72 537.36,341.49 L 536.69,350.16 L 539.60,349.83 C 542.16,349.54 543.07,348.38 547.35,340.00 C 554.35,326.26 566.78,303.85 568.78,301.36 C 570.83,298.80 573.97,297.71 575.87,298.90 C 577.02,299.63 576.95,301.86 575.44,312.90 C 574.22,321.80 573.97,326.37 574.66,327.06 C 576.29,328.69 580.35,326.58 584.20,322.08 C 586.12,319.84 588.20,318.00 588.82,318.00 C 589.43,318.00 591.19,315.45 592.72,312.33 C 595.34,306.97 601.54,301.00 604.48,301.00 C 606.01,301.00 610.00,305.26 610.00,306.90 C 610.00,308.63 624.85,307.43 634.91,304.88 C 644.36,302.48 646.00,302.49 646.00,304.94 C 646.00,306.00 645.10,310.61 644.01,315.19 C 641.47,325.77 641.39,331.61 643.75,332.85 C 647.67,334.90 651.84,330.98 668.39,309.69 C 681.72,292.53 686.23,288.62 689.98,290.97 C 691.20,291.74 691.41,294.43 691.18,306.05 C 690.86,322.58 691.66,325.00 697.47,325.00 C 701.90,325.00 711.15,318.01 719.75,308.17 C 723.19,304.24 726.00,301.47 726.00,302.03 C 726.00,303.71 710.07,319.76 705.20,322.99 C 702.15,325.01 699.41,326.00 696.85,326.00 C 690.84,326.00 689.81,322.99 690.19,306.48 C 690.52,292.14 689.92,289.90 686.26,291.86 C 683.38,293.40 674.39,303.38 665.25,315.17 C 652.38,331.76 650.01,334.13 646.15,334.23 C 644.29,334.27 642.42,333.69 641.92,332.90 C 640.46,330.59 640.87,324.43 643.17,314.44 C 644.36,309.25 645.04,304.70 644.67,304.34 C 644.31,303.98 640.07,304.62 635.26,305.76 C 630.44,306.91 622.90,308.15 618.50,308.53 C 610.31,309.23 609.04,309.91 609.02,313.64 C 609.01,314.82 607.69,317.19 606.10,318.89 C 603.60,321.57 602.51,322.00 598.17,322.00 C 593.98,322.00 593.03,321.66 592.49,319.96 C 591.71,317.51 588.28,318.18 586.15,321.20 C 581.52,327.78 576.40,330.39 573.94,327.43 C 572.88,326.15 572.96,323.60 574.39,313.30 C 575.57,304.81 575.80,300.40 575.12,299.72 C 572.19,296.79 565.62,306.32 551.85,333.50 C 547.94,341.20 544.06,348.29 543.22,349.25 C 541.33,351.42 537.14,351.54 536.34,349.45 M 605.23,318.25 C 606.92,316.47 608.08,313.81 608.54,310.69 C 609.16,306.47 608.97,305.62 606.99,303.78 C 605.18,302.09 604.41,301.91 603.12,302.84 C 602.23,303.48 600.50,304.44 599.29,304.96 C 598.07,305.49 595.89,308.26 594.44,311.11 C 592.30,315.35 592.01,316.73 592.89,318.65 C 593.77,320.59 594.71,321.00 598.29,321.00 C 601.72,321.00 603.17,320.43 605.23,318.25 M 597.03,286.08 C 598.97,285.70 602.12,284.29 604.03,282.95 C 605.94,281.60 607.70,280.38 607.94,280.23 C 608.17,280.09 608.72,278.06 609.14,275.73 L 609.91,271.50 L 609.58,276.20 C 609.31,280.08 609.66,281.28 611.61,283.10 C 612.90,284.31 615.65,285.64 617.73,286.04 C 621.49,286.77 621.49,286.77 618.28,286.89 C 616.05,286.97 614.06,286.11 611.74,284.08 L 608.41,281.15 L 604.05,284.08 C 601.36,285.88 598.52,286.96 596.60,286.89 L 593.50,286.77 L 597.03,286.08 M 282.82,278.25 C 280.19,275.16 277.34,265.52 278.80,264.63 C 279.24,264.35 279.71,265.76 279.84,267.76 C 279.98,269.75 281.05,273.10 282.23,275.19 C 284.12,278.56 284.81,279.00 288.18,279.00 C 291.48,279.00 292.38,278.46 294.93,274.94 C 296.54,272.71 298.16,269.57 298.51,267.95 C 298.86,266.34 299.56,264.77 300.05,264.47 C 301.31,263.69 298.39,271.64 295.97,275.54 C 294.87,277.33 293.26,279.07 292.40,279.40 C 289.31,280.59 284.30,279.99 282.82,278.25 M 622.00,273.24 C 622.00,270.51 632.63,259.00 635.15,259.00 C 635.70,259.00 634.71,260.22 632.94,261.71 C 631.17,263.20 627.98,266.61 625.86,269.30 C 623.74,271.98 622.00,273.76 622.00,273.24 M 291.00,258.30 C 291.00,256.70 296.42,249.67 299.93,246.71 C 304.82,242.59 305.59,243.47 300.84,247.75 C 298.55,249.81 295.40,253.26 293.84,255.40 C 292.28,257.55 291.00,258.85 291.00,258.30 M 61.23,230.75 C 60.97,201.21 61.99,203.46 50.59,207.48 C 46.79,208.82 44.09,209.52 44.59,209.04 C 45.09,208.56 48.20,207.24 51.50,206.12 C 55.25,204.84 57.37,203.59 57.15,202.79 C 54.82,194.18 54.39,151.07 56.49,136.28 C 58.96,118.91 64.98,99.39 70.72,90.17 C 75.62,82.30 83.22,74.00 86.25,73.21 C 89.69,72.32 92.72,68.22 94.04,62.66 C 94.79,59.54 94.80,59.53 94.90,62.27 C 94.99,64.75 95.28,64.98 97.75,64.43 C 99.26,64.10 102.30,63.15 104.50,62.32 C 112.14,59.44 123.11,58.00 137.34,58.01 C 165.82,58.04 184.35,65.06 191.24,78.43 C 194.20,84.19 194.09,95.36 190.98,103.46 C 180.07,131.91 143.25,163.10 88.71,190.10 C 81.12,193.85 73.37,197.21 71.49,197.57 C 69.40,197.96 67.84,198.94 67.47,200.08 C 67.15,201.11 65.79,202.81 64.46,203.85 L 62.03,205.76 L 61.75,231.13 L 61.46,256.50 L 61.23,230.75 M 64.69,201.83 C 66.29,200.32 67.00,198.52 67.00,195.99 C 67.00,192.32 72.88,160.69 84.03,104.38 C 87.32,87.81 90.00,73.89 90.00,73.46 C 90.00,73.02 90.25,72.91 90.55,73.22 C 90.85,73.52 88.39,87.43 85.08,104.13 C 75.03,154.91 68.00,192.20 68.00,194.79 C 68.00,197.03 68.30,197.19 71.25,196.63 C 76.10,195.71 99.61,183.97 115.50,174.53 C 156.76,150.03 183.42,123.91 191.08,100.50 C 193.28,93.77 192.73,83.05 189.91,77.95 C 187.00,72.68 179.63,66.90 172.19,64.05 C 155.64,57.72 119.22,57.27 105.00,63.22 C 103.08,64.03 99.76,65.01 97.64,65.41 C 94.62,65.97 93.54,66.76 92.69,69.00 C 91.68,71.68 89.92,73.05 85.82,74.35 C 82.70,75.34 72.88,88.44 68.46,97.50 C 59.92,114.99 56.03,136.04 56.05,164.50 C 56.07,182.52 57.22,200.94 58.46,202.94 C 59.52,204.65 62.19,204.17 64.69,201.83 M 499.61,213.53 C 492.58,202.80 495.98,164.22 510.56,89.50 C 514.88,67.31 516.77,59.44 517.58,60.25 C 517.79,60.46 517.50,62.18 516.94,64.07 C 515.41,69.19 507.42,110.59 504.05,130.80 C 499.12,160.42 497.70,173.70 497.60,191.00 C 497.51,205.22 497.76,208.02 499.36,211.25 C 501.05,214.63 501.61,215.00 505.17,215.00 C 508.62,215.00 509.74,214.34 514.16,209.75 C 520.08,203.59 530.35,188.53 538.36,174.25 C 541.49,168.68 544.87,163.86 545.87,163.54 C 547.05,163.17 548.34,160.83 549.52,156.93 C 550.52,153.62 551.70,150.69 552.13,150.42 C 552.56,150.15 552.04,152.47 550.98,155.57 C 549.36,160.27 549.19,162.26 549.94,167.57 C 551.06,175.48 551.39,176.00 555.22,176.00 C 559.87,176.00 565.21,169.50 577.52,148.83 C 585.96,134.67 588.67,130.87 590.73,130.35 C 592.54,129.90 593.67,130.20 594.52,131.35 C 596.94,134.67 603.35,133.00 604.86,128.66 L 605.96,125.50 L 605.41,128.50 C 604.68,132.46 604.14,132.91 598.96,133.79 L 594.57,134.54 L 593.34,144.02 C 591.66,157.01 591.70,167.34 593.45,171.53 C 594.68,174.47 595.39,175.00 598.11,175.00 C 600.72,175.00 602.38,173.89 607.08,169.00 C 610.25,165.70 613.24,163.00 613.72,163.00 C 614.68,163.00 617.00,157.25 617.00,154.87 C 617.00,154.05 617.65,152.51 618.45,151.44 C 619.65,149.84 619.63,150.37 618.32,154.50 C 616.63,159.84 616.51,160.90 616.81,168.18 C 617.02,173.30 618.90,176.00 622.26,176.00 C 626.14,176.00 634.21,166.09 644.85,148.25 C 652.84,134.87 655.70,130.86 657.64,130.37 C 659.02,130.03 660.55,130.15 661.03,130.63 C 661.55,131.15 661.32,135.70 660.49,141.51 C 659.71,147.00 659.05,155.46 659.03,160.30 C 658.99,171.07 660.57,175.00 664.95,175.00 C 668.78,175.00 672.83,170.88 680.19,159.53 C 683.38,154.59 686.00,150.88 686.00,151.27 C 686.00,153.17 676.96,166.97 672.93,171.20 C 669.18,175.15 667.75,176.00 664.87,176.00 C 661.85,176.00 661.14,175.52 659.69,172.47 C 657.57,168.03 657.49,155.52 659.49,141.54 C 660.27,136.06 660.76,131.43 660.57,131.24 C 660.39,131.05 659.13,131.18 657.77,131.52 C 655.94,131.98 653.79,134.77 649.47,142.32 C 641.71,155.86 631.78,170.97 628.80,173.73 C 622.60,179.50 616.00,176.80 616.00,168.50 C 616.00,162.32 614.27,162.62 607.34,170.00 C 602.38,175.28 601.25,176.00 597.94,176.00 C 594.39,176.00 594.06,175.73 592.45,171.51 C 590.59,166.65 590.78,154.31 592.94,139.08 C 593.52,135.00 593.82,131.49 593.61,131.28 C 593.41,131.07 592.13,131.18 590.77,131.52 C 588.94,131.98 586.80,134.77 582.48,142.32 C 567.71,168.15 560.80,177.00 555.42,177.00 C 551.30,177.00 549.81,175.07 549.22,168.97 C 548.77,164.24 547.77,163.12 545.48,164.77 C 544.91,165.17 540.92,171.57 536.60,179.00 C 527.10,195.35 519.04,206.78 513.32,212.06 C 509.86,215.25 508.30,216.00 505.14,216.00 C 502.08,216.00 500.88,215.46 499.61,213.53 M 189.09,199.08 C 185.77,196.98 190.02,166.08 202.02,105.00 C 205.42,87.67 208.52,73.16 208.91,72.75 C 209.29,72.33 207.21,84.03 204.27,98.75 C 192.76,156.52 186.95,196.62 189.84,198.40 C 192.34,199.95 195.21,196.31 202.56,182.26 C 214.97,158.52 220.81,149.02 223.64,147.94 C 228.60,146.06 228.57,145.85 226.37,169.23 C 225.83,174.93 225.98,176.06 227.37,176.59 C 229.89,177.55 233.68,174.50 238.83,167.39 C 241.40,163.84 244.44,160.69 245.59,160.40 C 246.83,160.08 248.08,158.57 248.67,156.68 C 249.22,154.93 249.58,154.21 249.47,155.07 C 249.37,155.93 249.58,163.14 249.95,171.09 C 250.48,182.68 250.99,186.18 252.52,188.77 C 256.50,195.50 265.21,191.65 274.44,179.08 C 276.42,176.38 279.12,173.93 280.51,173.59 C 281.88,173.24 283.00,172.29 283.00,171.47 C 283.00,170.65 283.44,169.19 283.97,168.24 C 284.51,167.28 286.14,163.57 287.59,160.00 C 289.44,155.45 291.47,152.46 294.37,150.01 C 296.64,148.10 299.74,145.32 301.25,143.84 C 302.76,142.36 304.00,141.54 304.00,142.01 C 304.00,142.48 301.12,145.42 297.59,148.53 C 292.70,152.86 290.57,155.64 288.54,160.34 C 287.09,163.73 285.48,167.26 284.98,168.19 C 284.48,169.11 284.34,172.86 284.68,176.52 C 285.21,182.16 285.64,183.29 287.52,184.01 C 293.11,186.13 302.43,181.27 318.01,168.07 C 323.58,163.36 329.79,158.57 331.82,157.43 C 333.84,156.30 336.00,154.38 336.60,153.17 C 338.10,150.17 339.27,149.10 338.40,151.53 C 338.01,152.61 337.41,153.95 337.06,154.50 C 336.72,155.05 336.45,159.37 336.47,164.09 C 336.50,173.71 337.58,176.00 342.04,176.00 C 346.75,176.00 353.53,167.03 369.32,139.88 C 374.81,130.44 378.00,127.60 380.41,130.01 C 381.01,130.61 380.70,136.52 379.57,145.99 C 377.05,167.07 378.42,175.00 384.58,175.00 C 387.26,175.00 388.65,174.08 392.32,169.88 C 394.78,167.07 398.49,161.88 400.55,158.35 C 402.62,154.82 404.78,151.64 405.36,151.28 C 408.79,149.16 393.19,171.99 389.59,174.35 C 385.46,177.06 381.32,176.51 379.51,173.02 C 376.87,167.91 376.64,161.43 378.54,145.94 C 379.55,137.75 380.10,130.77 379.77,130.44 C 378.05,128.71 374.14,133.67 364.52,149.82 C 358.68,159.63 351.97,169.76 349.61,172.33 C 345.98,176.28 344.75,177.00 341.61,177.00 C 338.28,177.00 337.74,176.62 336.35,173.30 C 335.20,170.55 334.98,167.98 335.49,163.21 C 336.18,156.84 336.17,156.81 333.84,157.50 C 332.55,157.89 329.93,159.51 328.00,161.11 C 306.62,178.93 299.91,183.56 293.32,185.04 C 287.26,186.41 284.57,184.55 284.20,178.74 C 283.79,172.41 281.92,172.53 276.07,179.25 C 273.56,182.14 269.50,186.43 267.06,188.80 C 262.99,192.73 262.24,193.07 258.11,192.80 C 254.15,192.54 253.35,192.07 251.55,189.00 C 249.86,186.11 249.44,183.37 249.15,173.25 C 248.95,166.31 248.38,161.00 247.83,161.00 C 245.55,161.00 243.00,163.33 238.41,169.57 C 233.39,176.41 230.24,178.53 226.73,177.41 C 224.87,176.83 224.78,176.22 225.41,169.14 C 227.52,145.49 227.63,146.47 223.28,149.52 C 220.61,151.39 213.71,162.85 203.57,182.24 C 196.96,194.89 193.31,200.05 191.03,199.98 C 190.74,199.98 189.87,199.57 189.09,199.08 M 251.75,139.34 C 252.44,139.06 253.56,139.06 254.25,139.34 C 254.94,139.62 254.38,139.84 253.00,139.84 C 251.62,139.84 251.06,139.62 251.75,139.34 M 298.00,130.11 C 298.82,129.52 300.43,129.02 301.57,129.02 C 302.71,129.01 305.52,127.55 307.82,125.79 C 311.40,123.03 312.00,122.04 312.00,118.85 C 312.00,116.80 312.35,114.90 312.79,114.63 C 313.22,114.36 313.33,116.25 313.04,118.82 C 312.56,122.98 312.81,123.81 315.28,126.25 C 316.82,127.76 319.15,129.00 320.48,129.00 C 321.80,129.00 323.13,129.40 323.43,129.89 C 324.56,131.72 316.45,129.04 314.84,127.05 C 312.71,124.42 311.87,124.47 307.40,127.50 C 305.38,128.88 302.92,130.00 301.94,130.00 C 300.96,130.00 299.34,130.27 298.33,130.59 C 296.81,131.09 296.75,131.01 298.00,130.11" fill="none" stroke="black" stroke-width="1.2" stroke-linecap="round" stroke-linejoin="round" />
</svg>
